<?xml version="1.0" encoding="utf-8" ?>
<svg baseProfile="full" height="768" version="1.1" width="1024" xmlns="http://www.w3.org/2000/svg" xmlns:ev="http://www.w3.org/2001/xml-events" xmlns:xlink="http://www.w3.org/1999/xlink"><defs /><rect fill="none" height="768" width="1024" x="0" y="0" /><polyline fill="none" points="151.0,332.0 149.0,334.0 149.0,356.0 147.0,358.0 133.0,354.0 129.0,351.0 130.0,339.0" stroke="#2e7d32" stroke-linecap="round" stroke-linejoin="round" stroke-width="1.5" /><polyline fill="none" points="109.0,342.0 107.0,354.0 101.0,357.0 88.0,357.0 85.0,355.0 83.0,350.0 84.0,345.0" stroke="#2e7d32" stroke-linecap="round" stroke-linejoin="round" stroke-width="1.5" /><polyline fill="none" points="185.0,345.0 184.0,348.0 188.0,358.0 188.0,362.0 186.0,364.0 173.0,362.0 169.0,358.0 170.0,347.0" stroke="#2e7d32" stroke-linecap="round" stroke-linejoin="round" stroke-width="1.5" /><polyline fill="none" points="70.0,348.0 69.0,362.0 66.0,365.0 61.0,366.0" stroke="#2e7d32" stroke-linecap="round" stroke-linejoin="round" stroke-width="1.5" /><polyline fill="none" points="209.0,348.0 211.0,351.0 212.0,364.0 210.0,367.0 210.0,376.0 208.0,378.0 191.0,372.0 189.0,370.0 188.0,363.0" stroke="#2e7d32" stroke-linecap="round" stroke-linejoin="round" stroke-width="1.5" /><polyline fill="none" points="882.0,369.0 876.0,369.0 872.0,364.0 864.0,373.0 860.0,374.0 858.0,376.0 857.0,385.0 851.0,394.0 840.0,400.0 836.0,404.0 835.0,413.0 828.0,414.0 824.0,417.0 819.0,422.0 818.0,426.0 810.0,425.0 811.0,415.0" stroke="#2e7d32" stroke-linecap="round" stroke-linejoin="round" stroke-width="1.5" /><polyline fill="none" points="887.0,370.0 888.0,374.0 905.0,372.0 937.0,376.0 942.0,382.0 944.0,419.0 946.0,425.0" stroke="#2e7d32" stroke-linecap="round" stroke-linejoin="round" stroke-width="1.5" /><polyline fill="none" points="235.0,375.0 234.0,385.0 232.0,387.0 215.0,382.0 210.0,377.0" stroke="#2e7d32" stroke-linecap="round" stroke-linejoin="round" stroke-width="1.5" /><polyline fill="none" points="868.0,376.0 865.0,373.0" stroke="#2e7d32" stroke-linecap="round" stroke-linejoin="round" stroke-width="1.5" /><polyline fill="none" points="254.0,380.0 256.0,389.0 252.0,395.0 239.0,392.0 233.0,387.0" stroke="#2e7d32" stroke-linecap="round" stroke-linejoin="round" stroke-width="1.5" /><polyline fill="none" points="278.0,383.0 278.0,394.0 275.0,396.0 268.0,396.0" stroke="#2e7d32" stroke-linecap="round" stroke-linejoin="round" stroke-width="1.5" /><polyline fill="none" points="992.0,385.0 983.0,380.0 971.0,379.0 967.0,383.0 967.0,387.0" stroke="#2e7d32" stroke-linecap="round" stroke-linejoin="round" stroke-width="1.5" /><polyline fill="none" points="264.0,396.0 259.0,396.0 255.0,393.0" stroke="#2e7d32" stroke-linecap="round" stroke-linejoin="round" stroke-width="1.5" /><polyline fill="none" points="296.0,396.0 295.0,411.0 288.0,413.0 279.0,406.0 278.0,395.0" stroke="#2e7d32" stroke-linecap="round" stroke-linejoin="round" stroke-width="1.5" /><polyline fill="none" points="327.0,399.0 325.0,419.0 323.0,421.0 317.0,419.0 314.0,415.0 312.0,402.0" stroke="#2e7d32" stroke-linecap="round" stroke-linejoin="round" stroke-width="1.5" /><polyline fill="none" points="495.0,406.0 489.0,439.0 487.0,441.0 474.0,442.0" stroke="#2e7d32" stroke-linecap="round" stroke-linejoin="round" stroke-width="1.5" /><polyline fill="none" points="595.0,406.0 597.0,427.0 594.0,431.0 589.0,431.0 586.0,429.0 584.0,411.0" stroke="#2e7d32" stroke-linecap="round" stroke-linejoin="round" stroke-width="1.5" /><polyline fill="none" points="360.0,407.0 358.0,412.0 357.0,427.0 343.0,426.0 340.0,423.0 340.0,409.0" stroke="#2e7d32" stroke-linecap="round" stroke-linejoin="round" stroke-width="1.5" /><polyline fill="none" points="797.0,407.0 797.0,427.0 793.0,432.0 780.0,432.0 771.0,422.0 770.0,413.0" stroke="#2e7d32" stroke-linecap="round" stroke-linejoin="round" stroke-width="1.5" /><polyline fill="none" points="899.0,407.0 899.0,374.0" stroke="#2e7d32" stroke-linecap="round" stroke-linejoin="round" stroke-width="1.5" /><polyline fill="none" points="534.0,408.0 535.0,434.0 532.0,438.0 524.0,438.0 520.0,435.0 520.0,413.0" stroke="#2e7d32" stroke-linecap="round" stroke-linejoin="round" stroke-width="1.5" /><polyline fill="none" points="712.0,408.0 711.0,428.0 708.0,431.0 697.0,431.0 693.0,427.0 693.0,409.0" stroke="#2e7d32" stroke-linecap="round" stroke-linejoin="round" stroke-width="1.5" /><polyline fill="none" points="393.0,409.0 390.0,412.0 389.0,419.0 385.0,421.0 380.0,419.0 379.0,411.0" stroke="#2e7d32" stroke-linecap="round" stroke-linejoin="round" stroke-width="1.5" /><polyline fill="none" points="567.0,410.0 568.0,431.0 564.0,435.0 558.0,435.0 555.0,433.0 555.0,415.0 553.0,412.0" stroke="#2e7d32" stroke-linecap="round" stroke-linejoin="round" stroke-width="1.5" /><polyline fill="none" points="757.0,411.0 755.0,416.0 755.0,428.0 749.0,434.0 750.0,435.0" stroke="#2e7d32" stroke-linecap="round" stroke-linejoin="round" stroke-width="1.5" /><polyline fill="none" points="621.0,414.0 625.0,427.0 616.0,432.0 614.0,432.0 611.0,428.0 608.0,418.0" stroke="#2e7d32" stroke-linecap="round" stroke-linejoin="round" stroke-width="1.5" /><polyline fill="none" points="744.0,414.0 745.0,428.0 742.0,431.0 732.0,431.0 728.0,425.0 728.0,418.0" stroke="#2e7d32" stroke-linecap="round" stroke-linejoin="round" stroke-width="1.5" /><polyline fill="none" points="432.0,415.0 431.0,439.0 428.0,442.0 413.0,444.0" stroke="#2e7d32" stroke-linecap="round" stroke-linejoin="round" stroke-width="1.5" /><polyline fill="none" points="780.0,415.0 781.0,423.0 777.0,426.0" stroke="#2e7d32" stroke-linecap="round" stroke-linejoin="round" stroke-width="1.5" /><polyline fill="none" points="457.0,416.0 457.0,439.0 454.0,442.0 435.0,442.0 431.0,440.0" stroke="#2e7d32" stroke-linecap="round" stroke-linejoin="round" stroke-width="1.5" /><polyline fill="none" points="671.0,416.0 672.0,427.0 669.0,430.0 653.0,429.0 651.0,427.0 651.0,420.0" stroke="#2e7d32" stroke-linecap="round" stroke-linejoin="round" stroke-width="1.5" /><polyline fill="none" points="633.0,425.0 632.0,428.0 625.0,428.0" stroke="#2e7d32" stroke-linecap="round" stroke-linejoin="round" stroke-width="1.5" /><polyline fill="none" points="837.0,425.0 839.0,420.0 835.0,414.0" stroke="#2e7d32" stroke-linecap="round" stroke-linejoin="round" stroke-width="1.5" /><polyline fill="none" points="508.0,428.0 511.0,432.0 511.0,436.0 501.0,443.0 501.0,463.0 498.0,466.0" stroke="#2e7d32" stroke-linecap="round" stroke-linejoin="round" stroke-width="1.5" /><polyline fill="none" points="865.0,434.0 860.0,437.0 845.0,424.0 840.0,423.0" stroke="#2e7d32" stroke-linecap="round" stroke-linejoin="round" stroke-width="1.5" /><polyline fill="none" points="470.0,442.0 462.0,442.0 457.0,440.0" stroke="#2e7d32" stroke-linecap="round" stroke-linejoin="round" stroke-width="1.5" /><polyline fill="none" points="408.0,444.0 395.0,445.0 392.0,443.0 392.0,424.0 389.0,420.0" stroke="#2e7d32" stroke-linecap="round" stroke-linejoin="round" stroke-width="1.5" /><polyline fill="none" points="880.0,487.0 928.0,487.0" stroke="#2e7d32" stroke-linecap="round" stroke-linejoin="round" stroke-width="1.5" /><polyline fill="none" points="108.0,353.0 112.0,356.0 126.0,353.0" stroke="#2e7d32" stroke-linecap="round" stroke-linejoin="round" stroke-width="1.5" /><polyline fill="none" points="83.0,354.0 80.0,357.0 71.0,355.0" stroke="#2e7d32" stroke-linecap="round" stroke-linejoin="round" stroke-width="1.5" /><polyline fill="none" points="149.0,357.0 153.0,360.0 161.0,361.0 166.0,361.0 169.0,359.0" stroke="#2e7d32" stroke-linecap="round" stroke-linejoin="round" stroke-width="1.5" /><polyline fill="none" points="945.0,377.0 962.0,378.0 967.0,382.0" stroke="#2e7d32" stroke-linecap="round" stroke-linejoin="round" stroke-width="1.5" /><polyline fill="none" points="295.0,412.0 298.0,415.0 310.0,418.0 314.0,416.0" stroke="#2e7d32" stroke-linecap="round" stroke-linejoin="round" stroke-width="1.5" /><polyline fill="none" points="325.0,420.0 332.0,424.0 339.0,423.0" stroke="#2e7d32" stroke-linecap="round" stroke-linejoin="round" stroke-width="1.5" /><polyline fill="none" points="381.0,421.0 381.0,444.0 378.0,447.0 361.0,446.0 359.0,444.0 360.0,428.0 358.0,427.0" stroke="#2e7d32" stroke-linecap="round" stroke-linejoin="round" stroke-width="1.5" /><polyline fill="none" points="810.0,426.0 809.0,430.0 806.0,432.0 801.0,432.0 797.0,428.0" stroke="#2e7d32" stroke-linecap="round" stroke-linejoin="round" stroke-width="1.5" /><polyline fill="none" points="597.0,428.0 601.0,430.0 608.0,430.0 610.0,428.0" stroke="#2e7d32" stroke-linecap="round" stroke-linejoin="round" stroke-width="1.5" /><polyline fill="none" points="633.0,428.0 637.0,431.0 648.0,431.0 650.0,428.0" stroke="#2e7d32" stroke-linecap="round" stroke-linejoin="round" stroke-width="1.5" /><polyline fill="none" points="672.0,428.0 676.0,430.0 690.0,430.0 693.0,428.0" stroke="#2e7d32" stroke-linecap="round" stroke-linejoin="round" stroke-width="1.5" /><polyline fill="none" points="728.0,428.0 725.0,431.0 715.0,431.0 711.0,429.0" stroke="#2e7d32" stroke-linecap="round" stroke-linejoin="round" stroke-width="1.5" /><polyline fill="none" points="776.0,428.0 773.0,432.0 759.0,431.0 755.0,429.0" stroke="#2e7d32" stroke-linecap="round" stroke-linejoin="round" stroke-width="1.5" /><polyline fill="none" points="585.0,429.0 583.0,432.0 579.0,433.0 572.0,434.0 568.0,432.0" stroke="#2e7d32" stroke-linecap="round" stroke-linejoin="round" stroke-width="1.5" /><polyline fill="none" points="745.0,429.0 749.0,433.0" stroke="#2e7d32" stroke-linecap="round" stroke-linejoin="round" stroke-width="1.5" /><polyline fill="none" points="535.0,435.0 539.0,437.0 553.0,435.0" stroke="#2e7d32" stroke-linecap="round" stroke-linejoin="round" stroke-width="1.5" /><polyline fill="none" points="519.0,436.0 516.0,439.0 511.0,437.0" stroke="#2e7d32" stroke-linecap="round" stroke-linejoin="round" stroke-width="1.5" /><polyline fill="none" points="490.0,438.0 500.0,442.0" stroke="#2e7d32" stroke-linecap="round" stroke-linejoin="round" stroke-width="1.5" /><polyline fill="none" points="391.0,444.0 388.0,447.0 381.0,445.0" stroke="#2e7d32" stroke-linecap="round" stroke-linejoin="round" stroke-width="1.5" /><polyline fill="none" points="177.0,265.0 174.0,260.0 167.0,260.0 165.0,262.0 165.0,271.0" stroke="#e53935" stroke-linecap="round" stroke-linejoin="round" stroke-width="1.5" /><polyline fill="none" points="208.0,287.0 208.0,277.0 202.0,270.0 183.0,262.0 177.0,262.0" stroke="#e53935" stroke-linecap="round" stroke-linejoin="round" stroke-width="1.5" /><polyline fill="none" points="230.0,296.0 229.0,291.0 231.0,283.0 227.0,279.0 221.0,279.0 215.0,274.0 210.0,274.0 208.0,276.0" stroke="#e53935" stroke-linecap="round" stroke-linejoin="round" stroke-width="1.5" /><polyline fill="none" points="490.0,313.0 490.0,319.0 476.0,330.0 479.0,343.0" stroke="#e53935" stroke-linecap="round" stroke-linejoin="round" stroke-width="1.5" /><polyline fill="none" points="259.0,314.0 262.0,309.0 262.0,299.0 253.0,293.0 254.0,286.0 243.0,282.0 232.0,283.0" stroke="#e53935" stroke-linecap="round" stroke-linejoin="round" stroke-width="1.5" /><polyline fill="none" points="272.0,321.0 279.0,317.0 280.0,309.0 278.0,305.0 267.0,296.0 262.0,298.0" stroke="#e53935" stroke-linecap="round" stroke-linejoin="round" stroke-width="1.5" /><polyline fill="none" points="863.0,323.0 863.0,321.0 859.0,318.0 851.0,318.0 849.0,322.0 844.0,325.0 844.0,329.0 842.0,331.0 838.0,331.0 834.0,336.0 835.0,345.0 833.0,349.0" stroke="#e53935" stroke-linecap="round" stroke-linejoin="round" stroke-width="1.5" /><polyline fill="none" points="299.0,324.0 296.0,317.0 291.0,316.0 287.0,312.0 281.0,310.0" stroke="#e53935" stroke-linecap="round" stroke-linejoin="round" stroke-width="1.5" /><polyline fill="none" points="324.0,326.0 321.0,320.0 313.0,319.0 311.0,321.0 312.0,332.0" stroke="#e53935" stroke-linecap="round" stroke-linejoin="round" stroke-width="1.5" /><polyline fill="none" points="346.0,326.0 345.0,323.0 339.0,323.0 336.0,326.0 336.0,338.0 338.0,343.0" stroke="#e53935" stroke-linecap="round" stroke-linejoin="round" stroke-width="1.5" /><polyline fill="none" points="875.0,326.0 872.0,326.0 868.0,320.0 864.0,320.0" stroke="#e53935" stroke-linecap="round" stroke-linejoin="round" stroke-width="1.5" /><polyline fill="none" points="361.0,327.0 367.0,334.0 367.0,343.0" stroke="#e53935" stroke-linecap="round" stroke-linejoin="round" stroke-width="1.5" /><polyline fill="none" points="442.0,336.0 441.0,328.0 422.0,329.0 418.0,333.0 419.0,342.0 422.0,344.0" stroke="#e53935" stroke-linecap="round" stroke-linejoin="round" stroke-width="1.5" /><polyline fill="none" points="581.0,337.0 575.0,323.0 561.0,323.0 558.0,321.0 553.0,323.0 547.0,332.0 536.0,332.0 532.0,336.0 531.0,348.0" stroke="#e53935" stroke-linecap="round" stroke-linejoin="round" stroke-width="1.5" /><polyline fill="none" points="599.0,337.0 597.0,322.0 583.0,321.0 578.0,324.0" stroke="#e53935" stroke-linecap="round" stroke-linejoin="round" stroke-width="1.5" /><polyline fill="none" points="736.0,339.0 736.0,331.0 732.0,327.0 717.0,326.0 714.0,329.0 715.0,339.0 713.0,343.0" stroke="#e53935" stroke-linecap="round" stroke-linejoin="round" stroke-width="1.5" /><polyline fill="none" points="782.0,339.0 780.0,337.0 780.0,326.0 775.0,325.0 772.0,328.0 764.0,327.0 761.0,330.0 759.0,340.0" stroke="#e53935" stroke-linecap="round" stroke-linejoin="round" stroke-width="1.5" /><polyline fill="none" points="636.0,341.0 636.0,325.0 632.0,321.0 620.0,322.0 617.0,325.0 617.0,344.0" stroke="#e53935" stroke-linecap="round" stroke-linejoin="round" stroke-width="1.5" /><polyline fill="none" points="797.0,343.0 797.0,325.0 794.0,323.0 783.0,323.0 781.0,325.0" stroke="#e53935" stroke-linecap="round" stroke-linejoin="round" stroke-width="1.5" /><polyline fill="none" points="400.0,344.0 400.0,332.0 397.0,330.0 388.0,330.0 385.0,333.0 388.0,342.0 384.0,347.0" stroke="#e53935" stroke-linecap="round" stroke-linejoin="round" stroke-width="1.5" /><polyline fill="none" points="457.0,344.0 458.0,340.0 456.0,328.0 454.0,326.0 445.0,326.0 442.0,328.0" stroke="#e53935" stroke-linecap="round" stroke-linejoin="round" stroke-width="1.5" /><polyline fill="none" points="506.0,346.0 510.0,344.0 510.0,320.0 508.0,318.0 495.0,318.0 492.0,316.0" stroke="#e53935" stroke-linecap="round" stroke-linejoin="round" stroke-width="1.5" /><polyline fill="none" points="672.0,347.0 671.0,324.0 668.0,322.0 652.0,322.0 649.0,325.0 648.0,344.0 650.0,348.0 654.0,350.0" stroke="#e53935" stroke-linecap="round" stroke-linejoin="round" stroke-width="1.5" /><polyline fill="none" points="515.0,348.0 510.0,345.0" stroke="#e53935" stroke-linecap="round" stroke-linejoin="round" stroke-width="1.5" /><polyline fill="none" points="816.0,348.0 819.0,344.0 818.0,329.0 805.0,323.0 800.0,323.0 798.0,325.0" stroke="#e53935" stroke-linecap="round" stroke-linejoin="round" stroke-width="1.5" /><polyline fill="none" points="553.0,349.0 549.0,346.0 547.0,333.0" stroke="#e53935" stroke-linecap="round" stroke-linejoin="round" stroke-width="1.5" /><polyline fill="none" points="687.0,350.0 684.0,347.0 684.0,326.0 680.0,322.0 674.0,322.0 672.0,324.0" stroke="#e53935" stroke-linecap="round" stroke-linejoin="round" stroke-width="1.5" /><polyline fill="none" points="868.0,365.0 863.0,365.0 857.0,370.0 851.0,365.0 851.0,327.0 849.0,323.0" stroke="#e53935" stroke-linecap="round" stroke-linejoin="round" stroke-width="1.5" /><polyline fill="none" points="890.0,367.0 995.0,378.0 997.0,380.0 996.0,405.0 999.0,407.0" stroke="#e53935" stroke-linecap="round" stroke-linejoin="round" stroke-width="1.5" /><polyline fill="none" points="846.0,369.0 850.0,366.0" stroke="#e53935" stroke-linecap="round" stroke-linejoin="round" stroke-width="1.5" /><polyline fill="none" points="880.0,503.0 928.0,503.0" stroke="#e53935" stroke-linecap="round" stroke-linejoin="round" stroke-width="1.5" /><polyline fill="none" points="302.0,317.0 306.0,317.0 311.0,320.0" stroke="#e53935" stroke-linecap="round" stroke-linejoin="round" stroke-width="1.5" /><polyline fill="none" points="601.0,321.0 613.0,321.0 616.0,324.0" stroke="#e53935" stroke-linecap="round" stroke-linejoin="round" stroke-width="1.5" /><polyline fill="none" points="638.0,322.0 646.0,322.0 649.0,324.0" stroke="#e53935" stroke-linecap="round" stroke-linejoin="round" stroke-width="1.5" /><polyline fill="none" points="324.0,323.0 333.0,323.0 336.0,325.0" stroke="#e53935" stroke-linecap="round" stroke-linejoin="round" stroke-width="1.5" /><polyline fill="none" points="686.0,323.0 706.0,324.0 711.0,325.0 714.0,328.0" stroke="#e53935" stroke-linecap="round" stroke-linejoin="round" stroke-width="1.5" /><polyline fill="none" points="461.0,328.0 476.0,329.0" stroke="#e53935" stroke-linecap="round" stroke-linejoin="round" stroke-width="1.5" /><polyline fill="none" points="741.0,328.0 761.0,329.0" stroke="#e53935" stroke-linecap="round" stroke-linejoin="round" stroke-width="1.5" /><polyline fill="none" points="411.0,329.0 415.0,329.0 418.0,332.0" stroke="#e53935" stroke-linecap="round" stroke-linejoin="round" stroke-width="1.5" /><polyline fill="none" points="402.0,330.0 410.0,330.0" stroke="#e53935" stroke-linecap="round" stroke-linejoin="round" stroke-width="1.5" /><polyline fill="none" points="370.0,331.0 385.0,332.0" stroke="#e53935" stroke-linecap="round" stroke-linejoin="round" stroke-width="1.5" /><polyline fill="none" points="512.0,332.0 529.0,332.0 532.0,335.0" stroke="#e53935" stroke-linecap="round" stroke-linejoin="round" stroke-width="1.5" /><polyline fill="none" points="820.0,334.0 833.0,335.0" stroke="#e53935" stroke-linecap="round" stroke-linejoin="round" stroke-width="1.5" /></svg>