<?xml version="1.0" encoding="utf-8" ?>
<svg baseProfile="full" width="1024" height="768" xmlns="http://www.w3.org/2000/svg"><g data-id="red" stroke="#e74c3c" fill="none" stroke-width="1.4" stroke-linecap="round" stroke-linejoin="round"><polyline points="529.0,10.0 532.0,7.0 533.0,7.0 534.0,6.0 535.0,7.0 538.0,7.0 541.0,9.0 543.0,9.0 544.0,10.0 546.0,10.0 549.0,12.0 551.0,12.0 552.0,13.0 555.0,14.0 556.0,15.0 556.0,19.0"/><polyline points="645.0,27.0 644.0,27.0 641.0,30.0 641.0,31.0 639.0,33.0 638.0,36.0 636.0,38.0 636.0,40.0 626.0,51.0 626.0,54.0 625.0,55.0 625.0,57.0 623.0,59.0 623.0,60.0 621.0,63.0 621.0,65.0 620.0,66.0 620.0,68.0 619.0,69.0 619.0,71.0 617.0,74.0 617.0,77.0 616.0,78.0 616.0,79.0 617.0,80.0 617.0,82.0 616.0,83.0 613.0,83.0 612.0,82.0 610.0,82.0 607.0,80.0 605.0,80.0 604.0,79.0 603.0,79.0 598.0,76.0 596.0,76.0 595.0,75.0 594.0,75.0 589.0,72.0 583.0,72.0 580.0,69.0 579.0,69.0 576.0,67.0 574.0,67.0 571.0,65.0 569.0,65.0 568.0,64.0 567.0,64.0 566.0,63.0 564.0,63.0 563.0,62.0 560.0,62.0 559.0,61.0 556.0,61.0 553.0,58.0 551.0,58.0 548.0,56.0 546.0,56.0 541.0,53.0 539.0,53.0 538.0,52.0 536.0,52.0 535.0,51.0 534.0,52.0 533.0,52.0 531.0,54.0"/><polyline points="629.0,58.0 626.0,57.0"/><polyline points="767.0,72.0 771.0,72.0 772.0,73.0 773.0,73.0 775.0,75.0 775.0,78.0 774.0,79.0 774.0,85.0 773.0,86.0 773.0,90.0 772.0,91.0 772.0,95.0 771.0,96.0 771.0,99.0 770.0,100.0 770.0,105.0 769.0,106.0 771.0,112.0 770.0,113.0 765.0,113.0 764.0,114.0 762.0,114.0 761.0,115.0 757.0,115.0 756.0,116.0 750.0,116.0 749.0,115.0 748.0,115.0 746.0,113.0 745.0,113.0 741.0,117.0 740.0,117.0 739.0,118.0 730.0,118.0 729.0,119.0 713.0,119.0 712.0,118.0 710.0,118.0 709.0,117.0 707.0,117.0 706.0,116.0 704.0,116.0 703.0,115.0 701.0,115.0 700.0,114.0 699.0,115.0 696.0,115.0 692.0,111.0 689.0,111.0 688.0,110.0 686.0,110.0 685.0,109.0 683.0,109.0 682.0,108.0 680.0,108.0 679.0,107.0 677.0,107.0 676.0,106.0 672.0,106.0 671.0,107.0 670.0,107.0 669.0,106.0 669.0,105.0 667.0,103.0 666.0,103.0 665.0,102.0 663.0,102.0 660.0,100.0 658.0,100.0 657.0,99.0 655.0,99.0 652.0,97.0 650.0,97.0 649.0,96.0 647.0,96.0 646.0,95.0 644.0,95.0 643.0,94.0 641.0,94.0 640.0,93.0 638.0,93.0 633.0,90.0 631.0,90.0 630.0,89.0 629.0,89.0 627.0,87.0 627.0,86.0 626.0,85.0 625.0,85.0 624.0,84.0 622.0,84.0 621.0,83.0 619.0,83.0 618.0,82.0"/><polyline points="723.0,76.0 721.0,74.0 717.0,74.0 716.0,75.0 712.0,75.0 709.0,73.0 707.0,73.0 704.0,71.0 702.0,71.0 699.0,69.0 699.0,68.0 697.0,65.0 696.0,66.0 694.0,66.0 693.0,67.0 691.0,67.0 690.0,66.0 688.0,66.0 687.0,65.0 685.0,65.0 682.0,63.0 680.0,63.0 679.0,62.0 677.0,62.0 676.0,61.0 675.0,61.0 672.0,58.0 672.0,57.0 671.0,56.0 670.0,56.0 669.0,57.0 664.0,57.0 663.0,56.0 661.0,56.0 658.0,54.0 656.0,54.0 655.0,53.0 653.0,53.0 650.0,51.0 648.0,51.0 645.0,49.0 643.0,49.0 642.0,48.0 639.0,47.0 635.0,42.0"/><polyline points="462.0,89.0 464.0,89.0 465.0,90.0 466.0,90.0 467.0,91.0 467.0,95.0 468.0,96.0 469.0,96.0 470.0,97.0 472.0,97.0 473.0,98.0 475.0,98.0 476.0,97.0 479.0,96.0 481.0,93.0"/><polyline points="625.0,90.0 626.0,87.0"/><polyline points="559.0,100.0 560.0,100.0 561.0,99.0 562.0,100.0 564.0,100.0 565.0,101.0 567.0,101.0 570.0,103.0 572.0,103.0 575.0,105.0 577.0,105.0 578.0,106.0 581.0,107.0 583.0,109.0 583.0,110.0 587.0,115.0 593.0,115.0 594.0,116.0 597.0,116.0 603.0,110.0 603.0,109.0 604.0,108.0 604.0,106.0 607.0,101.0 607.0,99.0 609.0,96.0 609.0,94.0 611.0,91.0 611.0,89.0 612.0,88.0 612.0,86.0 613.0,85.0 613.0,84.0 612.0,84.0 611.0,83.0"/><polyline points="774.0,112.0 773.0,113.0 771.0,113.0 769.0,115.0 769.0,116.0 768.0,117.0 768.0,120.0 767.0,121.0 767.0,141.0 766.0,142.0 766.0,154.0 764.0,156.0 757.0,156.0 756.0,157.0 744.0,157.0 743.0,158.0 731.0,158.0 730.0,159.0 724.0,159.0 723.0,160.0 720.0,160.0 719.0,161.0 714.0,161.0 712.0,158.0 712.0,156.0"/><polyline points="695.0,117.0 695.0,115.0"/><polyline points="583.0,118.0 584.0,117.0 584.0,116.0 585.0,115.0 586.0,115.0"/><polyline points="495.0,130.0 494.0,130.0 493.0,129.0 491.0,129.0 490.0,128.0 490.0,127.0 488.0,125.0 490.0,123.0 490.0,119.0 491.0,118.0 491.0,117.0 492.0,116.0 492.0,114.0 494.0,111.0 494.0,109.0 493.0,108.0 493.0,106.0 491.0,104.0 489.0,104.0 486.0,102.0 484.0,102.0 483.0,101.0 482.0,101.0 480.0,99.0 480.0,96.0"/><polyline points="452.0,137.0 454.0,135.0 456.0,135.0 461.0,138.0 463.0,138.0 468.0,143.0 471.0,143.0 472.0,142.0 475.0,142.0 476.0,143.0 481.0,143.0 485.0,139.0 485.0,137.0 486.0,136.0 486.0,134.0 487.0,133.0 488.0,130.0 489.0,129.0 490.0,129.0"/><polyline points="660.0,137.0 660.0,133.0 659.0,132.0 658.0,132.0 657.0,131.0 655.0,131.0 654.0,130.0 652.0,130.0 651.0,129.0 648.0,129.0 647.0,128.0 645.0,128.0 644.0,127.0 642.0,127.0 641.0,126.0 633.0,126.0 631.0,123.0 628.0,123.0 627.0,122.0 623.0,122.0 622.0,121.0 619.0,121.0 618.0,120.0 614.0,120.0 613.0,119.0 608.0,119.0 607.0,118.0 599.0,118.0 598.0,117.0"/><polyline points="572.0,143.0 573.0,142.0 573.0,140.0 572.0,139.0 572.0,135.0 570.0,133.0 568.0,133.0 567.0,132.0 565.0,132.0 562.0,130.0 560.0,130.0 557.0,128.0 555.0,128.0 554.0,127.0 552.0,127.0 551.0,126.0 550.0,127.0 547.0,127.0 543.0,123.0 542.0,123.0 541.0,122.0 539.0,122.0 536.0,120.0 534.0,120.0 531.0,118.0 529.0,118.0 528.0,117.0 527.0,117.0 525.0,115.0 525.0,111.0 524.0,110.0 519.0,113.0 515.0,113.0 514.0,112.0 512.0,112.0 511.0,111.0 509.0,111.0 508.0,110.0 506.0,110.0 505.0,109.0 503.0,109.0 502.0,108.0 496.0,108.0 495.0,109.0"/><polyline points="548.0,153.0 550.0,155.0 550.0,160.0 549.0,161.0 549.0,163.0 548.0,164.0 548.0,166.0 545.0,169.0 544.0,169.0 543.0,170.0 543.0,172.0 544.0,173.0 544.0,178.0 543.0,179.0 543.0,181.0 542.0,182.0 542.0,184.0 538.0,188.0 535.0,188.0 534.0,187.0 533.0,187.0"/><polyline points="591.0,166.0 589.0,166.0 587.0,164.0 587.0,157.0 588.0,156.0 588.0,155.0 589.0,154.0 589.0,152.0 591.0,149.0 591.0,145.0 589.0,143.0 588.0,143.0 587.0,142.0 585.0,142.0 584.0,141.0 582.0,141.0 581.0,140.0 579.0,140.0 578.0,139.0 577.0,140.0 574.0,140.0"/><polyline points="628.0,172.0 633.0,176.0 633.0,178.0 632.0,179.0 632.0,181.0 631.0,182.0 631.0,184.0 630.0,185.0 630.0,188.0 629.0,189.0 629.0,191.0 628.0,192.0 628.0,194.0 624.0,198.0 622.0,198.0 621.0,197.0"/><polyline points="574.0,202.0 573.0,202.0 572.0,201.0 572.0,198.0 571.0,197.0 572.0,196.0 572.0,194.0 573.0,193.0 573.0,191.0 574.0,190.0 574.0,189.0 577.0,184.0 581.0,184.0 582.0,183.0 581.0,182.0 581.0,180.0 580.0,179.0 580.0,175.0 581.0,174.0 581.0,172.0 584.0,167.0 585.0,167.0 586.0,166.0 588.0,166.0"/><polyline points="471.0,208.0 471.0,207.0 470.0,206.0 470.0,204.0 467.0,199.0 467.0,193.0 468.0,192.0 468.0,189.0 469.0,188.0 469.0,186.0 470.0,185.0 470.0,182.0 471.0,181.0 471.0,178.0 472.0,177.0 472.0,174.0 473.0,173.0 473.0,170.0 475.0,167.0 477.0,167.0 478.0,166.0 478.0,164.0 477.0,163.0 477.0,159.0 478.0,158.0 478.0,156.0 479.0,155.0 479.0,153.0 481.0,150.0 481.0,145.0 480.0,144.0"/><polyline points="236.0,210.0 234.0,212.0 234.0,213.0 233.0,214.0 232.0,217.0 230.0,219.0 230.0,222.0 227.0,225.0 227.0,226.0 226.0,227.0 225.0,230.0 223.0,232.0 220.0,232.0 219.0,231.0 218.0,232.0 217.0,232.0 213.0,236.0 212.0,239.0 211.0,240.0 210.0,240.0 207.0,243.0 207.0,244.0 210.0,249.0 210.0,252.0 204.0,258.0 204.0,262.0 206.0,264.0 206.0,265.0 210.0,269.0 210.0,270.0 214.0,274.0 214.0,275.0 217.0,278.0 219.0,278.0 220.0,277.0 221.0,277.0 223.0,275.0 224.0,275.0 225.0,274.0 227.0,274.0 228.0,275.0 228.0,276.0 235.0,283.0 235.0,284.0 241.0,290.0 241.0,291.0 255.0,305.0 255.0,306.0 266.0,317.0 266.0,318.0 270.0,322.0 275.0,322.0 276.0,323.0 277.0,323.0 283.0,329.0 284.0,329.0 287.0,332.0 287.0,334.0 288.0,335.0 288.0,336.0 292.0,340.0 293.0,340.0 299.0,346.0 300.0,346.0"/><polyline points="568.0,220.0 567.0,220.0 565.0,218.0 565.0,212.0 566.0,211.0 566.0,209.0 567.0,208.0 568.0,205.0 570.0,203.0 571.0,203.0 572.0,202.0"/><polyline points="552.0,226.0 553.0,227.0 558.0,227.0 561.0,224.0 561.0,223.0 565.0,219.0"/><polyline points="484.0,247.0 484.0,248.0 486.0,250.0 489.0,250.0 490.0,251.0 499.0,251.0 500.0,252.0 508.0,252.0 511.0,255.0 515.0,255.0 521.0,249.0 521.0,247.0 522.0,246.0 522.0,244.0 523.0,243.0 523.0,241.0 524.0,240.0 524.0,238.0 525.0,237.0 525.0,234.0 526.0,233.0 526.0,231.0 527.0,230.0 527.0,227.0 526.0,226.0 526.0,224.0 530.0,220.0 530.0,219.0 531.0,218.0 531.0,216.0 532.0,215.0 532.0,213.0 533.0,212.0 533.0,208.0 532.0,207.0 532.0,206.0 533.0,205.0 534.0,205.0 536.0,203.0 536.0,202.0 537.0,201.0 537.0,199.0 538.0,198.0 538.0,195.0 539.0,194.0 539.0,191.0 538.0,190.0 538.0,189.0"/><polyline points="604.0,252.0 607.0,255.0 607.0,259.0 605.0,262.0 605.0,264.0 604.0,265.0 604.0,267.0 602.0,270.0 602.0,272.0 601.0,273.0 601.0,274.0 597.0,278.0 596.0,278.0 595.0,279.0 595.0,280.0 596.0,281.0 596.0,287.0 595.0,288.0 595.0,290.0 593.0,293.0 593.0,295.0 592.0,296.0 592.0,298.0 591.0,299.0 591.0,300.0 590.0,301.0 590.0,303.0 589.0,304.0 589.0,308.0 590.0,309.0 590.0,311.0 588.0,313.0 587.0,313.0 586.0,314.0 586.0,315.0 585.0,316.0 585.0,319.0 584.0,320.0 584.0,323.0 583.0,324.0 583.0,326.0 582.0,327.0 582.0,329.0 578.0,333.0 578.0,335.0 580.0,337.0 580.0,339.0 579.0,340.0 579.0,344.0 578.0,345.0 578.0,349.0 577.0,350.0 577.0,354.0 576.0,355.0 576.0,359.0 575.0,360.0 575.0,364.0 574.0,365.0 574.0,367.0 572.0,369.0 571.0,369.0 570.0,370.0 567.0,370.0"/><polyline points="530.0,269.0 530.0,267.0 529.0,266.0 529.0,265.0 525.0,261.0 525.0,260.0 523.0,258.0 519.0,258.0 516.0,256.0"/><polyline points="500.0,288.0 500.0,285.0 501.0,284.0 501.0,280.0 502.0,279.0 502.0,275.0 503.0,274.0 503.0,270.0 504.0,269.0 504.0,265.0 505.0,264.0 505.0,261.0 507.0,258.0 508.0,258.0 510.0,256.0 511.0,256.0 511.0,257.0 510.0,258.0 509.0,258.0"/><polyline points="549.0,295.0 546.0,294.0 544.0,292.0 544.0,291.0 543.0,290.0 543.0,287.0 544.0,286.0 544.0,284.0 545.0,283.0 545.0,282.0 547.0,280.0 549.0,280.0 551.0,278.0 551.0,277.0 552.0,276.0 552.0,273.0 551.0,272.0 548.0,272.0 547.0,271.0 546.0,271.0 543.0,268.0 540.0,268.0 539.0,267.0 531.0,267.0"/><polyline points="525.0,323.0 526.0,324.0 529.0,324.0 533.0,320.0 533.0,318.0 534.0,317.0 534.0,315.0 535.0,314.0 535.0,310.0 534.0,309.0 533.0,306.0 534.0,305.0 535.0,305.0 539.0,301.0 539.0,299.0 540.0,298.0 540.0,296.0 543.0,294.0 545.0,294.0"/><polyline points="297.0,354.0 297.0,357.0 298.0,358.0 298.0,359.0 338.0,399.0 338.0,400.0 339.0,401.0 339.0,407.0 338.0,408.0 338.0,409.0 337.0,410.0 337.0,412.0 334.0,417.0 334.0,419.0 333.0,420.0 333.0,421.0 330.0,426.0 330.0,428.0 329.0,429.0 329.0,430.0 326.0,435.0 326.0,437.0 324.0,440.0 324.0,442.0 322.0,444.0 322.0,446.0 321.0,447.0 321.0,448.0 320.0,449.0 320.0,450.0 319.0,451.0 319.0,452.0 318.0,453.0 317.0,456.0 313.0,461.0 313.0,462.0 312.0,463.0 311.0,466.0 307.0,470.0 307.0,471.0 305.0,473.0 305.0,474.0 290.0,489.0 290.0,490.0 282.0,498.0"/><polyline points="515.0,360.0 518.0,360.0 523.0,356.0 523.0,354.0 524.0,353.0 524.0,350.0 525.0,349.0 525.0,343.0 524.0,342.0 524.0,341.0 528.0,337.0 528.0,335.0 529.0,334.0 529.0,325.0"/><polyline points="532.0,380.0 529.0,383.0 526.0,383.0 522.0,379.0 521.0,379.0 520.0,378.0 520.0,364.0 518.0,362.0 518.0,361.0"/><polyline points="575.0,402.0 572.0,402.0 568.0,398.0 568.0,394.0 569.0,393.0 569.0,388.0 570.0,387.0 570.0,383.0 571.0,382.0 571.0,378.0 572.0,377.0 572.0,375.0 571.0,374.0 570.0,371.0"/><polyline points="628.0,477.0 628.0,473.0 629.0,472.0 629.0,469.0 630.0,468.0 630.0,464.0 631.0,463.0 631.0,460.0 632.0,459.0 632.0,456.0 633.0,455.0 633.0,452.0 631.0,450.0 626.0,450.0 625.0,449.0 622.0,449.0 621.0,448.0 619.0,448.0 618.0,447.0 617.0,447.0 615.0,445.0 614.0,445.0 611.0,443.0 609.0,443.0 608.0,442.0 607.0,442.0 606.0,441.0 605.0,441.0 604.0,440.0 601.0,439.0 598.0,436.0 597.0,436.0 595.0,434.0 594.0,434.0 592.0,432.0 591.0,432.0 589.0,430.0 588.0,430.0 585.0,427.0 584.0,427.0 582.0,425.0 581.0,425.0 579.0,423.0 578.0,423.0 575.0,420.0 574.0,420.0 572.0,418.0 571.0,418.0 569.0,416.0 568.0,416.0 566.0,414.0 566.0,408.0 565.0,407.0 565.0,402.0 566.0,401.0 569.0,400.0"/><polyline points="278.0,503.0 271.0,510.0 271.0,511.0 269.0,513.0 267.0,513.0 266.0,514.0 264.0,514.0 263.0,513.0 234.0,513.0"/><polyline points="226.0,513.0 207.0,513.0 206.0,512.0 201.0,512.0 200.0,513.0 196.0,513.0 195.0,512.0 193.0,512.0 191.0,514.0 191.0,516.0 190.0,517.0 190.0,528.0 189.0,529.0 189.0,530.0 183.0,536.0 182.0,536.0 181.0,537.0 179.0,537.0 178.0,538.0 175.0,539.0 172.0,542.0 171.0,545.0"/><polyline points="716.0,520.0 681.0,520.0 680.0,521.0"/><polyline points="182.0,529.0 180.0,532.0 180.0,536.0"/><polyline points="166.0,538.0 167.0,539.0 169.0,539.0 170.0,540.0 173.0,540.0"/><polyline points="557.0,17.0 562.0,17.0 563.0,18.0 566.0,18.0 567.0,19.0 569.0,19.0 570.0,20.0 572.0,20.0 573.0,21.0 575.0,21.0 576.0,22.0 578.0,22.0 579.0,23.0 580.0,23.0 583.0,26.0 589.0,26.0 592.0,28.0 594.0,28.0 599.0,31.0 601.0,31.0 602.0,32.0 605.0,33.0 608.0,36.0 612.0,36.0 613.0,37.0 616.0,37.0 617.0,38.0 619.0,38.0 622.0,40.0 624.0,40.0 625.0,41.0 627.0,41.0 628.0,42.0 633.0,42.0"/><polyline points="630.0,43.0 631.0,43.0 630.0,44.0"/><polyline points="602.0,119.0 602.0,123.0 600.0,126.0 600.0,128.0 599.0,129.0 599.0,130.0 598.0,131.0 598.0,132.0 597.0,133.0 597.0,134.0 596.0,135.0 596.0,136.0 595.0,137.0 594.0,140.0 593.0,141.0 592.0,141.0 590.0,143.0 591.0,143.0 592.0,144.0"/><polyline points="490.0,124.0 490.0,126.0"/><polyline points="624.0,199.0 624.0,201.0 625.0,202.0 625.0,205.0 624.0,206.0 624.0,209.0 623.0,210.0 623.0,212.0 619.0,216.0 620.0,217.0 620.0,221.0 619.0,222.0 619.0,224.0 618.0,225.0 618.0,227.0 617.0,228.0 617.0,230.0 614.0,233.0 613.0,233.0 612.0,234.0 612.0,235.0 613.0,236.0 613.0,242.0 612.0,243.0 612.0,245.0 611.0,246.0 611.0,248.0 610.0,249.0 610.0,250.0 608.0,252.0 607.0,252.0 606.0,253.0"/><polyline points="555.0,228.0 555.0,229.0 557.0,232.0 557.0,235.0 556.0,236.0 556.0,239.0 555.0,240.0 555.0,242.0 554.0,243.0 554.0,245.0 553.0,246.0 553.0,249.0 552.0,250.0 552.0,252.0 551.0,253.0 551.0,256.0 550.0,257.0 550.0,259.0 549.0,260.0 549.0,262.0 548.0,263.0 548.0,265.0 545.0,268.0 544.0,268.0"/><polyline points="525.0,256.0 528.0,256.0 530.0,258.0 530.0,261.0 528.0,263.0"/><polyline points="531.0,382.0 531.0,387.0 535.0,391.0 536.0,391.0 544.0,399.0 549.0,399.0 550.0,398.0 551.0,399.0 551.0,404.0 553.0,406.0 554.0,406.0 559.0,410.0 561.0,410.0 563.0,408.0 564.0,408.0"/><polyline points="571.0,402.0 570.0,403.0 570.0,404.0 568.0,406.0 566.0,406.0 567.0,405.0 566.0,404.0"/></g><g data-id="green" stroke="#2ecc71" fill="none" stroke-width="1.4" stroke-linecap="round" stroke-linejoin="round"><polyline points="96.0,120.0 97.0,120.0 99.0,118.0 100.0,118.0 103.0,116.0 105.0,116.0 106.0,117.0 106.0,118.0 107.0,119.0 107.0,120.0 108.0,121.0 108.0,122.0 111.0,127.0 111.0,129.0 113.0,132.0 113.0,134.0 115.0,137.0 115.0,139.0 117.0,142.0 117.0,144.0 120.0,149.0 120.0,151.0 122.0,153.0 123.0,152.0 125.0,152.0 128.0,150.0 133.0,150.0 138.0,145.0"/><polyline points="673.0,172.0 673.0,173.0 672.0,174.0 672.0,176.0 670.0,178.0 672.0,180.0 680.0,180.0 683.0,182.0 685.0,182.0 686.0,183.0 688.0,183.0 689.0,184.0 690.0,184.0 691.0,185.0 693.0,185.0 694.0,186.0 695.0,186.0 698.0,184.0 704.0,184.0 705.0,185.0"/><polyline points="671.0,196.0 672.0,196.0 675.0,193.0 675.0,192.0 676.0,191.0 676.0,186.0 677.0,185.0 677.0,183.0 676.0,182.0 676.0,181.0"/><polyline points="233.0,210.0 231.0,212.0 231.0,213.0 230.0,214.0 230.0,216.0 229.0,217.0 229.0,220.0 232.0,223.0 232.0,225.0 231.0,226.0 229.0,226.0 228.0,225.0 225.0,225.0 223.0,227.0 222.0,227.0 221.0,228.0 220.0,228.0 219.0,227.0 216.0,227.0 213.0,230.0 213.0,231.0 212.0,232.0 212.0,234.0 204.0,242.0 204.0,243.0 202.0,245.0 201.0,244.0 200.0,244.0 197.0,241.0 197.0,240.0 193.0,236.0 193.0,235.0 190.0,232.0 190.0,231.0 187.0,228.0 187.0,227.0 183.0,223.0 183.0,222.0 180.0,219.0 180.0,218.0 176.0,214.0 176.0,213.0 173.0,210.0 173.0,209.0 169.0,205.0 169.0,204.0 166.0,201.0 166.0,200.0 162.0,196.0 162.0,195.0 159.0,192.0 159.0,191.0 155.0,187.0 155.0,186.0 152.0,183.0 152.0,182.0 148.0,177.0 148.0,176.0 147.0,175.0 146.0,172.0 145.0,171.0 144.0,171.0 142.0,169.0 142.0,168.0 140.0,166.0 139.0,163.0 137.0,161.0 136.0,158.0 134.0,156.0 134.0,154.0 133.0,153.0 133.0,151.0"/><polyline points="94.0,218.0 90.0,214.0 90.0,211.0 92.0,209.0 93.0,209.0 96.0,206.0 97.0,206.0 100.0,203.0 101.0,203.0 105.0,199.0 106.0,199.0 109.0,196.0 110.0,196.0 113.0,193.0 114.0,193.0 118.0,189.0 119.0,189.0 122.0,186.0 123.0,186.0 126.0,183.0 127.0,183.0 130.0,180.0 131.0,180.0 133.0,178.0 134.0,178.0 136.0,176.0 137.0,176.0 141.0,172.0 141.0,170.0 142.0,170.0"/><polyline points="235.0,228.0 233.0,226.0 232.0,226.0"/><polyline points="655.0,232.0 656.0,231.0 657.0,231.0 658.0,232.0 661.0,232.0 665.0,228.0 665.0,225.0 666.0,224.0 666.0,221.0 667.0,220.0 667.0,218.0 668.0,217.0 665.0,214.0 668.0,211.0 669.0,211.0 671.0,208.0 671.0,206.0 672.0,205.0 672.0,203.0 673.0,202.0 673.0,200.0 674.0,199.0 673.0,198.0 673.0,197.0"/><polyline points="279.0,264.0 282.0,267.0 282.0,270.0 280.0,273.0 280.0,275.0 279.0,276.0 279.0,277.0 278.0,278.0 278.0,279.0 277.0,280.0 276.0,283.0 272.0,287.0 272.0,288.0 267.0,293.0 267.0,294.0 259.0,302.0 258.0,302.0 257.0,303.0 244.0,290.0 241.0,291.0 238.0,294.0 238.0,295.0 235.0,298.0 234.0,298.0"/><polyline points="647.0,268.0 651.0,268.0 654.0,265.0 654.0,264.0 655.0,263.0 655.0,261.0 656.0,260.0 656.0,257.0 657.0,256.0 657.0,254.0 658.0,253.0 656.0,250.0 660.0,246.0 660.0,244.0 661.0,243.0 661.0,240.0 662.0,239.0 662.0,234.0 661.0,233.0"/><polyline points="191.0,271.0 190.0,270.0 190.0,267.0 192.0,265.0 192.0,264.0 193.0,263.0 196.0,262.0 198.0,260.0 198.0,258.0 202.0,254.0 203.0,254.0 205.0,251.0 205.0,249.0 204.0,248.0 203.0,245.0"/><polyline points="166.0,273.0 170.0,278.0 173.0,278.0 174.0,277.0 175.0,277.0 177.0,275.0 178.0,275.0 182.0,271.0 184.0,271.0 185.0,270.0 189.0,270.0"/><polyline points="45.0,291.0 44.0,292.0 44.0,294.0 47.0,297.0 48.0,297.0 53.0,302.0 57.0,302.0 60.0,299.0"/><polyline points="166.0,300.0 161.0,295.0 156.0,295.0 150.0,301.0 149.0,301.0 147.0,303.0 147.0,305.0 146.0,306.0 143.0,306.0 137.0,312.0 137.0,314.0 135.0,316.0 132.0,316.0 129.0,319.0 128.0,319.0 124.0,323.0 123.0,323.0 119.0,327.0 119.0,328.0 117.0,330.0 116.0,330.0 115.0,331.0 112.0,331.0 110.0,333.0 107.0,334.0 101.0,340.0 100.0,340.0 95.0,345.0 88.0,345.0 85.0,342.0 85.0,339.0 84.0,338.0 84.0,336.0 83.0,335.0 83.0,334.0 81.0,332.0 81.0,331.0 79.0,329.0 79.0,328.0 77.0,326.0 77.0,325.0 75.0,323.0 75.0,321.0 74.0,320.0 74.0,319.0 66.0,311.0 65.0,311.0 64.0,310.0 63.0,310.0 61.0,308.0 58.0,307.0 57.0,306.0 57.0,303.0"/><polyline points="637.0,305.0 638.0,304.0 640.0,304.0 644.0,300.0 644.0,298.0 645.0,297.0 645.0,295.0 646.0,294.0 646.0,292.0 647.0,291.0 647.0,285.0 649.0,283.0 649.0,282.0 650.0,281.0 650.0,278.0 651.0,277.0 651.0,275.0 652.0,274.0 652.0,270.0 651.0,269.0"/><polyline points="148.0,308.0 147.0,307.0 147.0,306.0"/><polyline points="78.0,316.0 77.0,317.0 74.0,318.0"/><polyline points="629.0,332.0 630.0,331.0 632.0,331.0 635.0,328.0 635.0,327.0 636.0,326.0 636.0,324.0 637.0,323.0 637.0,321.0 638.0,320.0 638.0,318.0 639.0,317.0 639.0,315.0 640.0,314.0 640.0,311.0 641.0,310.0 641.0,306.0 640.0,305.0"/><polyline points="120.0,334.0 120.0,333.0 118.0,331.0 118.0,330.0"/><polyline points="41.0,345.0 41.0,349.0 38.0,352.0 37.0,352.0 35.0,354.0 34.0,354.0 31.0,356.0 29.0,356.0 28.0,357.0 27.0,357.0 24.0,360.0 24.0,361.0"/><polyline points="312.0,349.0 307.0,349.0 306.0,350.0 305.0,350.0 303.0,348.0 302.0,348.0 301.0,347.0 296.0,347.0 285.0,337.0 285.0,335.0 284.0,334.0 284.0,333.0 282.0,331.0 281.0,331.0 276.0,326.0 274.0,326.0 273.0,325.0 269.0,325.0 260.0,316.0 255.0,316.0 254.0,317.0 253.0,316.0 253.0,313.0 254.0,312.0 254.0,310.0 252.0,308.0 252.0,307.0 241.0,296.0 240.0,296.0 239.0,295.0"/><polyline points="96.0,352.0 96.0,349.0 95.0,348.0 95.0,346.0"/><polyline points="57.0,353.0 57.0,350.0 55.0,348.0 47.0,348.0 46.0,349.0 45.0,348.0 42.0,347.0"/><polyline points="77.0,363.0 80.0,360.0 80.0,359.0 83.0,354.0 83.0,350.0 82.0,349.0 77.0,349.0 76.0,350.0 72.0,350.0 71.0,349.0 57.0,349.0"/><polyline points="621.0,367.0 623.0,367.0 626.0,364.0 626.0,363.0 627.0,362.0 627.0,359.0 628.0,358.0 628.0,355.0 629.0,354.0 629.0,351.0 630.0,350.0 630.0,347.0 631.0,346.0 631.0,342.0 632.0,341.0 632.0,338.0 633.0,337.0 633.0,333.0 632.0,332.0"/><polyline points="138.0,380.0 137.0,381.0 135.0,381.0 134.0,382.0 132.0,382.0 131.0,381.0 131.0,380.0 129.0,378.0 129.0,377.0 127.0,375.0 127.0,374.0 122.0,369.0 122.0,368.0 118.0,364.0 118.0,363.0 116.0,361.0 115.0,358.0 113.0,356.0 112.0,353.0 110.0,351.0 109.0,348.0 107.0,346.0 106.0,343.0 105.0,342.0 102.0,342.0 101.0,341.0 100.0,342.0 99.0,342.0"/><polyline points="312.0,391.0 313.0,388.0 315.0,386.0 315.0,382.0 302.0,369.0 298.0,369.0 297.0,368.0 297.0,364.0 295.0,361.0 295.0,355.0 298.0,352.0 302.0,352.0 304.0,350.0 303.0,350.0"/><polyline points="627.0,394.0 624.0,394.0 623.0,393.0 623.0,392.0 620.0,390.0 620.0,387.0 621.0,386.0 621.0,383.0 622.0,382.0 622.0,379.0 623.0,378.0 623.0,375.0 624.0,374.0 624.0,371.0 625.0,370.0 623.0,368.0"/><polyline points="611.0,413.0 614.0,410.0 615.0,410.0 616.0,409.0 616.0,407.0 617.0,406.0 617.0,402.0 618.0,401.0 618.0,398.0 621.0,395.0 622.0,395.0 623.0,394.0"/><polyline points="123.0,423.0 126.0,425.0 126.0,428.0 128.0,430.0 130.0,430.0"/><polyline points="323.0,426.0 326.0,429.0 326.0,431.0 325.0,432.0 325.0,433.0 324.0,434.0 323.0,437.0 319.0,441.0 317.0,438.0 315.0,438.0 313.0,436.0 312.0,436.0 310.0,434.0 309.0,434.0 308.0,433.0 305.0,433.0 303.0,435.0"/><polyline points="224.0,430.0 222.0,432.0 222.0,469.0 223.0,470.0 223.0,471.0 224.0,472.0 228.0,472.0 230.0,474.0 231.0,474.0 232.0,473.0 238.0,473.0 242.0,469.0 242.0,458.0 239.0,455.0 239.0,454.0"/><polyline points="621.0,435.0 620.0,438.0 615.0,442.0 614.0,441.0 612.0,441.0 610.0,439.0 610.0,435.0 611.0,434.0 611.0,429.0 612.0,428.0 612.0,424.0 613.0,423.0 613.0,419.0 614.0,418.0 614.0,415.0 613.0,414.0 613.0,413.0"/><polyline points="163.0,448.0 161.0,448.0 159.0,450.0 159.0,459.0 158.0,460.0 158.0,467.0 156.0,469.0 155.0,469.0 154.0,470.0 149.0,470.0 148.0,469.0 146.0,469.0 143.0,466.0 143.0,465.0 144.0,464.0"/><polyline points="114.0,449.0 115.0,448.0 116.0,448.0 117.0,449.0 120.0,449.0 121.0,448.0 122.0,445.0 125.0,442.0 125.0,434.0 128.0,431.0"/><polyline points="305.0,461.0 306.0,462.0 306.0,464.0 307.0,465.0 307.0,466.0 306.0,467.0 305.0,470.0 303.0,472.0 303.0,473.0 302.0,474.0 300.0,474.0 299.0,475.0 287.0,475.0 286.0,474.0 267.0,474.0 266.0,475.0 263.0,475.0 262.0,474.0 249.0,474.0 246.0,477.0 247.0,478.0 247.0,480.0 248.0,481.0 248.0,486.0"/><polyline points="187.0,464.0 187.0,468.0 185.0,470.0 184.0,470.0 183.0,471.0 172.0,471.0 169.0,474.0 169.0,478.0"/><polyline points="97.0,467.0 109.0,467.0 110.0,466.0 119.0,466.0 122.0,463.0 122.0,451.0 121.0,450.0"/><polyline points="87.0,469.0 83.0,469.0 82.0,470.0 82.0,483.0 83.0,484.0 85.0,484.0"/><polyline points="632.0,476.0 632.0,471.0 633.0,470.0 633.0,466.0 634.0,465.0 634.0,461.0 635.0,460.0 635.0,456.0 636.0,455.0 636.0,449.0 635.0,448.0 627.0,448.0 626.0,447.0 623.0,446.0 621.0,444.0 621.0,440.0 620.0,439.0"/><polyline points="230.0,479.0 230.0,475.0"/><polyline points="679.0,506.0 716.0,506.0"/><polyline points="134.0,512.0 85.0,512.0 83.0,510.0 83.0,500.0 82.0,499.0 82.0,486.0 83.0,485.0"/><polyline points="141.0,513.0 173.0,513.0 174.0,514.0 186.0,514.0 187.0,515.0 187.0,525.0 185.0,528.0"/><polyline points="672.0,177.0 672.0,178.0 673.0,179.0"/><polyline points="198.0,262.0 199.0,262.0 202.0,264.0 202.0,265.0 205.0,268.0 205.0,269.0 212.0,276.0 212.0,277.0 217.0,282.0 219.0,282.0 223.0,278.0 226.0,278.0 230.0,282.0 230.0,283.0 236.0,289.0 236.0,290.0 238.0,293.0"/><polyline points="170.0,279.0 169.0,280.0 168.0,283.0 161.0,290.0 161.0,292.0 162.0,293.0 162.0,295.0"/><polyline points="172.0,279.0 171.0,280.0 170.0,280.0"/><polyline points="87.0,345.0 87.0,346.0 84.0,349.0"/><polyline points="316.0,384.0 318.0,386.0 319.0,386.0 321.0,388.0 322.0,388.0 330.0,396.0 331.0,396.0 335.0,400.0 335.0,401.0 336.0,402.0 336.0,404.0 337.0,405.0 336.0,406.0 336.0,408.0 334.0,411.0 334.0,413.0 331.0,415.0 331.0,420.0 329.0,423.0 329.0,425.0 328.0,426.0 325.0,427.0"/><polyline points="321.0,440.0 321.0,441.0 319.0,444.0 319.0,446.0 318.0,447.0 318.0,448.0 315.0,453.0 315.0,455.0 312.0,458.0 312.0,459.0 311.0,460.0 310.0,460.0 309.0,461.0 307.0,461.0"/><polyline points="122.0,464.0 123.0,464.0 125.0,467.0 130.0,467.0 133.0,469.0 137.0,469.0 140.0,467.0 142.0,467.0"/><polyline points="158.0,468.0 160.0,470.0 161.0,470.0 162.0,471.0 168.0,471.0 169.0,472.0 170.0,472.0"/><polyline points="187.0,469.0 189.0,472.0 195.0,472.0 196.0,473.0 218.0,473.0 219.0,474.0 222.0,474.0 223.0,473.0"/><polyline points="242.0,470.0 243.0,470.0 244.0,471.0 244.0,474.0 246.0,476.0"/></g><g data-id="blue" stroke="#40c4ff" fill="none" stroke-width="1.4" stroke-linecap="round" stroke-linejoin="round"><polyline points="306.0,91.0 305.0,91.0 304.0,92.0 304.0,94.0 303.0,95.0 303.0,97.0 306.0,100.0 306.0,101.0 308.0,103.0 308.0,104.0 310.0,106.0 310.0,107.0 312.0,109.0 312.0,110.0 314.0,112.0 314.0,113.0 316.0,115.0 316.0,116.0 317.0,117.0 317.0,119.0 316.0,120.0 316.0,122.0 315.0,123.0 315.0,124.0 313.0,126.0 312.0,126.0 311.0,127.0 306.0,127.0 304.0,129.0 304.0,132.0 302.0,134.0 301.0,134.0 300.0,135.0 298.0,135.0 297.0,136.0 292.0,136.0 290.0,134.0 290.0,133.0 288.0,131.0 288.0,130.0 286.0,128.0 286.0,127.0"/><polyline points="366.0,91.0 365.0,92.0 365.0,93.0 363.0,95.0 362.0,98.0 360.0,100.0 358.0,100.0 357.0,101.0 349.0,101.0 348.0,100.0 348.0,99.0"/><polyline points="423.0,102.0 422.0,101.0 421.0,101.0 419.0,99.0 416.0,98.0 411.0,94.0 410.0,94.0 407.0,92.0 405.0,92.0 404.0,91.0 402.0,91.0 401.0,90.0 398.0,90.0 397.0,89.0 389.0,89.0 388.0,90.0 384.0,90.0 383.0,91.0 381.0,91.0 380.0,92.0 378.0,92.0 375.0,94.0 373.0,94.0 370.0,96.0 365.0,96.0 364.0,95.0"/><polyline points="348.0,110.0 348.0,109.0 347.0,108.0 347.0,107.0 348.0,106.0 348.0,102.0"/><polyline points="341.0,118.0 337.0,114.0 333.0,114.0 332.0,115.0 330.0,115.0 329.0,116.0 328.0,116.0 323.0,119.0 318.0,119.0 317.0,120.0 318.0,120.0 319.0,121.0 320.0,120.0"/><polyline points="268.0,138.0 269.0,139.0 269.0,141.0 271.0,144.0 271.0,145.0 270.0,146.0 270.0,148.0 268.0,150.0 266.0,150.0 265.0,151.0 262.0,152.0 260.0,154.0 260.0,156.0 259.0,157.0 257.0,157.0 256.0,156.0 251.0,156.0 247.0,151.0 245.0,151.0"/><polyline points="287.0,148.0 285.0,146.0 285.0,145.0 284.0,144.0 281.0,144.0 280.0,145.0 274.0,145.0 273.0,146.0 271.0,146.0"/><polyline points="261.0,161.0 261.0,160.0 260.0,159.0 260.0,157.0"/><polyline points="199.0,174.0 199.0,175.0 200.0,176.0 200.0,178.0 199.0,179.0 199.0,181.0 196.0,184.0"/><polyline points="244.0,175.0 243.0,174.0 242.0,174.0 239.0,171.0 236.0,170.0 235.0,169.0 235.0,167.0 237.0,164.0 238.0,164.0 239.0,163.0 240.0,163.0 241.0,162.0 242.0,162.0 243.0,161.0 246.0,160.0 248.0,158.0 249.0,155.0"/><polyline points="216.0,186.0 214.0,184.0 214.0,183.0 213.0,182.0 213.0,180.0 211.0,178.0 208.0,178.0 207.0,179.0 203.0,179.0 202.0,178.0 201.0,178.0"/><polyline points="453.0,270.0 451.0,276.0 447.0,281.0 441.0,281.0 440.0,280.0 439.0,280.0 437.0,278.0 437.0,277.0 435.0,274.0"/><polyline points="407.0,272.0 409.0,275.0 409.0,277.0 410.0,278.0 410.0,280.0 408.0,282.0 408.0,283.0 405.0,286.0 402.0,286.0 401.0,287.0 397.0,287.0 396.0,288.0 391.0,288.0 389.0,286.0 388.0,286.0 387.0,285.0 387.0,283.0 384.0,280.0"/><polyline points="460.0,279.0 453.0,279.0 451.0,277.0"/><polyline points="419.0,288.0 419.0,287.0 418.0,286.0 417.0,286.0 416.0,285.0 413.0,285.0 412.0,284.0 412.0,282.0 411.0,281.0 410.0,281.0"/><polyline points="436.0,289.0 436.0,288.0 433.0,285.0 432.0,285.0 431.0,284.0 421.0,284.0 419.0,286.0"/><polyline points="375.0,298.0 375.0,296.0 374.0,295.0 373.0,295.0 372.0,294.0 368.0,294.0 367.0,295.0 366.0,295.0 365.0,296.0 364.0,296.0 363.0,297.0 362.0,297.0 361.0,298.0 360.0,298.0 355.0,301.0 351.0,301.0 350.0,302.0 348.0,302.0 348.0,304.0 345.0,307.0 344.0,307.0 343.0,308.0 340.0,308.0 339.0,309.0 339.0,312.0 337.0,314.0 336.0,314.0 335.0,315.0 333.0,315.0 332.0,316.0 329.0,317.0 327.0,319.0 324.0,320.0 322.0,322.0 322.0,324.0 321.0,325.0 319.0,325.0 318.0,326.0 313.0,326.0 312.0,325.0"/><polyline points="347.0,299.0 349.0,301.0"/><polyline points="339.0,316.0 338.0,315.0 338.0,314.0"/><polyline points="323.0,327.0 322.0,326.0 322.0,325.0"/><polyline points="364.0,400.0 363.0,401.0 363.0,406.0 367.0,410.0 367.0,414.0 366.0,415.0"/><polyline points="393.0,406.0 393.0,407.0 391.0,409.0 391.0,411.0 389.0,413.0 389.0,414.0 388.0,415.0 388.0,417.0 386.0,419.0 386.0,420.0 385.0,421.0 381.0,421.0 374.0,415.0 373.0,415.0 370.0,413.0 368.0,413.0"/><polyline points="427.0,418.0 426.0,419.0 425.0,422.0 423.0,424.0 423.0,425.0 420.0,428.0 416.0,428.0 415.0,427.0 411.0,427.0 410.0,426.0 410.0,429.0 409.0,430.0 409.0,431.0 404.0,436.0 397.0,436.0 395.0,434.0 394.0,434.0 391.0,431.0 391.0,429.0 386.0,425.0 385.0,422.0"/><polyline points="461.0,430.0 453.0,430.0 451.0,432.0 451.0,434.0 448.0,439.0 448.0,441.0 447.0,442.0 447.0,443.0 446.0,444.0 445.0,447.0 443.0,449.0 442.0,452.0 440.0,454.0 440.0,455.0 439.0,456.0 439.0,457.0 437.0,459.0 437.0,460.0 433.0,464.0 432.0,464.0 430.0,462.0 430.0,460.0 426.0,456.0 425.0,456.0 422.0,454.0 422.0,450.0 421.0,449.0 417.0,449.0 414.0,447.0 412.0,447.0 411.0,446.0 411.0,444.0 408.0,441.0 407.0,441.0 405.0,439.0 405.0,438.0 404.0,437.0"/><polyline points="342.0,437.0 340.0,439.0 334.0,439.0 331.0,437.0 331.0,432.0 333.0,429.0 333.0,427.0 336.0,422.0 336.0,420.0 337.0,419.0 337.0,418.0 340.0,413.0 340.0,411.0 342.0,408.0 342.0,405.0 343.0,404.0 343.0,403.0 342.0,402.0 342.0,399.0 323.0,380.0 322.0,380.0 301.0,359.0 301.0,358.0 300.0,357.0 300.0,352.0 301.0,351.0 301.0,350.0 303.0,348.0 303.0,345.0 301.0,343.0 301.0,340.0 307.0,334.0 308.0,334.0 312.0,330.0 313.0,327.0"/><polyline points="427.0,442.0 426.0,443.0 426.0,444.0 424.0,446.0 424.0,447.0 422.0,449.0"/><polyline points="478.0,448.0 474.0,448.0 471.0,451.0 471.0,453.0 470.0,454.0 470.0,456.0 469.0,457.0 468.0,460.0 465.0,463.0 464.0,463.0 461.0,460.0"/><polyline points="346.0,452.0 346.0,451.0 347.0,450.0 347.0,448.0 349.0,446.0 349.0,445.0 350.0,444.0 352.0,446.0 357.0,446.0 358.0,445.0 359.0,446.0 359.0,448.0 361.0,450.0 362.0,450.0 363.0,451.0 364.0,451.0 365.0,452.0 366.0,452.0 367.0,453.0 368.0,453.0 369.0,454.0 370.0,454.0 371.0,455.0 372.0,455.0 373.0,456.0 376.0,457.0 378.0,459.0 379.0,459.0 380.0,460.0 382.0,460.0 387.0,455.0 387.0,454.0 389.0,452.0 389.0,451.0 392.0,448.0 392.0,447.0 394.0,445.0 394.0,444.0 397.0,441.0 397.0,440.0 398.0,439.0 398.0,437.0"/><polyline points="407.0,454.0 408.0,451.0 411.0,448.0 411.0,447.0"/><polyline points="417.0,461.0 418.0,460.0 418.0,459.0 422.0,455.0 421.0,455.0"/><polyline points="323.0,463.0 322.0,463.0 320.0,461.0 320.0,456.0 321.0,455.0 321.0,454.0 322.0,453.0 322.0,452.0 325.0,447.0 325.0,445.0 326.0,444.0 327.0,441.0 329.0,439.0 330.0,439.0 331.0,438.0"/><polyline points="427.0,470.0 427.0,469.0 431.0,464.0"/><polyline points="557.0,470.0 558.0,471.0 558.0,478.0 557.0,479.0 557.0,484.0 555.0,486.0 555.0,487.0 554.0,488.0 554.0,489.0 552.0,491.0 552.0,492.0 549.0,495.0 549.0,498.0 548.0,499.0 548.0,500.0 545.0,505.0 545.0,507.0 544.0,508.0 544.0,513.0 543.0,514.0 543.0,519.0 545.0,521.0 549.0,521.0 553.0,516.0 554.0,516.0 557.0,513.0 558.0,513.0 560.0,511.0 561.0,511.0 564.0,508.0 565.0,508.0 567.0,506.0 571.0,506.0 575.0,510.0 575.0,515.0 576.0,516.0 581.0,516.0 584.0,514.0"/><polyline points="533.0,473.0 532.0,474.0 532.0,476.0 530.0,479.0 530.0,481.0 529.0,482.0 529.0,484.0 528.0,485.0 530.0,487.0 531.0,487.0 534.0,489.0 536.0,489.0 537.0,490.0 538.0,490.0 539.0,491.0 541.0,491.0 544.0,493.0 546.0,493.0 547.0,494.0 549.0,494.0"/><polyline points="509.0,482.0 509.0,487.0 506.0,492.0 506.0,494.0 505.0,495.0 505.0,498.0 504.0,499.0 504.0,501.0 503.0,502.0 503.0,504.0 501.0,507.0 501.0,509.0 497.0,513.0 496.0,513.0 495.0,512.0 494.0,512.0 493.0,511.0 492.0,511.0 491.0,510.0 488.0,509.0 485.0,504.0 484.0,504.0 483.0,503.0 480.0,503.0 478.0,501.0 477.0,501.0 474.0,498.0 473.0,498.0 471.0,496.0 471.0,495.0 470.0,494.0 470.0,492.0 469.0,491.0 471.0,489.0"/><polyline points="444.0,487.0 445.0,486.0 445.0,485.0 449.0,481.0 449.0,480.0 447.0,478.0 447.0,477.0 443.0,473.0 442.0,473.0 434.0,465.0"/><polyline points="279.0,498.0 280.0,499.0 284.0,499.0 293.0,490.0 293.0,489.0 301.0,481.0 302.0,481.0 309.0,474.0 309.0,473.0 311.0,471.0 311.0,470.0 318.0,463.0 319.0,463.0 320.0,462.0"/><polyline points="488.0,499.0 487.0,500.0 487.0,502.0 486.0,503.0 486.0,504.0"/><polyline points="204.0,510.0 204.0,513.0 202.0,515.0 199.0,515.0 198.0,516.0 195.0,516.0 194.0,517.0 194.0,527.0 193.0,528.0 193.0,531.0 192.0,532.0 192.0,533.0 191.0,534.0 190.0,534.0 188.0,536.0"/><polyline points="231.0,511.0 231.0,513.0 230.0,514.0 229.0,514.0 228.0,515.0 226.0,515.0 225.0,516.0 208.0,516.0 207.0,515.0 205.0,515.0 204.0,514.0"/><polyline points="516.0,515.0 513.0,520.0 507.0,520.0 506.0,519.0 505.0,519.0 504.0,518.0 503.0,518.0 502.0,517.0 499.0,516.0 498.0,515.0 498.0,513.0"/><polyline points="550.0,525.0 550.0,523.0 549.0,522.0"/><polyline points="716.0,534.0 681.0,534.0 680.0,535.0"/><polyline points="341.0,108.0 346.0,108.0"/><polyline points="340.0,109.0 338.0,111.0 338.0,113.0"/><polyline points="291.0,136.0 290.0,137.0 290.0,138.0 285.0,143.0 285.0,144.0"/><polyline points="227.0,169.0 234.0,169.0"/><polyline points="222.0,171.0 224.0,171.0"/><polyline points="215.0,174.0 217.0,174.0"/><polyline points="214.0,175.0 212.0,178.0"/><polyline points="437.0,280.0 438.0,280.0 437.0,281.0 437.0,282.0 436.0,283.0 435.0,286.0"/><polyline points="387.0,286.0 386.0,287.0 386.0,288.0 384.0,290.0 382.0,290.0 381.0,291.0 378.0,291.0 375.0,294.0 375.0,295.0"/><polyline points="342.0,439.0 347.0,443.0 348.0,446.0"/><polyline points="465.0,464.0 464.0,465.0 464.0,469.0 463.0,470.0 463.0,471.0 462.0,472.0 462.0,473.0 461.0,474.0 461.0,475.0 460.0,476.0 459.0,479.0 457.0,481.0 456.0,481.0 455.0,482.0 451.0,482.0 450.0,481.0"/><polyline points="455.0,483.0 455.0,485.0 458.0,488.0 459.0,488.0 464.0,492.0 468.0,492.0"/><polyline points="282.0,500.0 281.0,501.0 281.0,503.0 274.0,510.0 274.0,511.0 270.0,515.0 269.0,515.0 268.0,516.0 235.0,516.0 234.0,515.0 232.0,515.0 231.0,514.0"/><polyline points="514.0,520.0 514.0,523.0 516.0,525.0 517.0,525.0 520.0,527.0 522.0,527.0 523.0,528.0 524.0,528.0 529.0,531.0 531.0,531.0 532.0,532.0 535.0,532.0 537.0,530.0 537.0,529.0 541.0,525.0 541.0,524.0 544.0,521.0 543.0,521.0"/></g><g data-id="orange" stroke="#ffffff" fill="none" stroke-width="1.4" stroke-linecap="round" stroke-linejoin="round"></g></svg>