<?xml version="1.0" encoding="utf-8" ?>
<svg baseProfile="full" width="800" height="570" xmlns="http://www.w3.org/2000/svg"><g data-id="red" stroke="#e74c3c" fill="none" stroke-width="1.4" stroke-linecap="round" stroke-linejoin="round"><polyline points="763.0,211.0 763.0,212.0 761.0,215.0 761.0,218.0 760.0,219.0 757.0,220.0 755.0,222.0 754.0,222.0 753.0,221.0 750.0,221.0 749.0,220.0"/><polyline points="766.0,220.0 765.0,220.0 764.0,219.0 761.0,219.0"/><polyline points="752.0,229.0 753.0,228.0 753.0,223.0"/></g><g data-id="green" stroke="#ffffff" fill="none" stroke-width="1.4" stroke-linecap="round" stroke-linejoin="round"></g><g data-id="blue" stroke="#40c4ff" fill="none" stroke-width="1.4" stroke-linecap="round" stroke-linejoin="round"><polyline points="521.0,16.0 522.0,15.0 524.0,15.0 525.0,14.0 528.0,14.0 530.0,16.0 530.0,20.0 529.0,21.0 529.0,28.0 531.0,30.0 532.0,30.0 534.0,32.0 535.0,32.0 541.0,38.0 542.0,38.0 549.0,45.0 550.0,45.0 556.0,51.0"/><polyline points="515.0,52.0 516.0,53.0 519.0,53.0 520.0,52.0 521.0,52.0 523.0,50.0 523.0,48.0 524.0,47.0 524.0,44.0 525.0,43.0 525.0,41.0 526.0,40.0 526.0,38.0 527.0,37.0 527.0,33.0 530.0,30.0"/><polyline points="522.0,88.0 519.0,91.0 513.0,91.0 512.0,90.0 512.0,85.0 513.0,84.0 513.0,79.0 512.0,78.0 512.0,77.0 516.0,73.0 516.0,72.0 517.0,71.0 517.0,68.0 518.0,67.0 518.0,65.0 519.0,64.0 519.0,61.0 520.0,60.0 520.0,56.0 519.0,55.0 519.0,54.0"/><polyline points="510.0,109.0 509.0,109.0 507.0,107.0 507.0,98.0 506.0,97.0 506.0,96.0 507.0,95.0 508.0,95.0 512.0,91.0"/><polyline points="425.0,128.0 425.0,129.0 422.0,132.0 419.0,132.0 418.0,131.0 417.0,131.0 414.0,129.0 412.0,129.0 411.0,128.0 408.0,128.0 406.0,130.0 406.0,133.0 405.0,134.0 405.0,135.0 402.0,138.0 402.0,140.0 405.0,143.0 405.0,149.0 404.0,150.0 403.0,153.0 401.0,155.0 400.0,155.0"/><polyline points="504.0,135.0 501.0,134.0 499.0,132.0 499.0,129.0 500.0,128.0 500.0,125.0 501.0,124.0 501.0,122.0 502.0,121.0 502.0,118.0 501.0,117.0 501.0,116.0 504.0,113.0 505.0,110.0 506.0,109.0 508.0,109.0"/><polyline points="570.0,140.0 547.0,118.0 546.0,118.0 545.0,117.0 543.0,117.0 541.0,115.0 538.0,114.0 521.0,97.0 521.0,96.0 520.0,95.0 520.0,91.0"/><polyline points="423.0,142.0 424.0,141.0 424.0,131.0"/><polyline points="449.0,144.0 448.0,145.0 442.0,145.0 441.0,144.0 440.0,144.0 438.0,142.0 435.0,141.0 433.0,139.0 431.0,139.0 430.0,138.0 429.0,139.0 425.0,139.0"/><polyline points="479.0,160.0 479.0,161.0 477.0,164.0 474.0,164.0 473.0,163.0 470.0,163.0 465.0,160.0 462.0,160.0 461.0,159.0 461.0,158.0 457.0,154.0 457.0,153.0 456.0,152.0 456.0,150.0 455.0,149.0 454.0,150.0 450.0,150.0 449.0,149.0 448.0,146.0"/><polyline points="460.0,163.0 461.0,162.0 461.0,160.0"/><polyline points="399.0,166.0 401.0,166.0 403.0,164.0 403.0,163.0 404.0,162.0 404.0,157.0 402.0,155.0"/><polyline points="492.0,167.0 491.0,167.0 489.0,165.0 489.0,162.0 490.0,161.0 490.0,158.0 491.0,157.0 491.0,155.0 492.0,154.0 492.0,152.0 493.0,151.0 493.0,149.0 494.0,148.0 494.0,146.0 495.0,145.0 495.0,141.0 494.0,140.0 493.0,137.0 496.0,135.0 498.0,135.0 499.0,134.0 500.0,134.0"/><polyline points="480.0,175.0 480.0,174.0 482.0,172.0 482.0,170.0 478.0,166.0 478.0,164.0"/><polyline points="382.0,176.0 386.0,176.0 387.0,177.0 390.0,177.0 391.0,178.0 397.0,178.0 398.0,179.0 399.0,179.0 402.0,176.0 404.0,176.0 406.0,174.0 405.0,173.0 405.0,171.0 404.0,170.0 404.0,169.0 402.0,167.0 402.0,166.0"/><polyline points="512.0,183.0 509.0,185.0 505.0,185.0 504.0,184.0 501.0,183.0 499.0,181.0 498.0,181.0 493.0,177.0 492.0,177.0 491.0,176.0 490.0,176.0 488.0,174.0 485.0,173.0 483.0,170.0 485.0,168.0 487.0,168.0 488.0,167.0 490.0,167.0"/><polyline points="396.0,191.0 398.0,191.0 400.0,189.0 400.0,188.0 402.0,185.0 402.0,182.0 400.0,180.0"/><polyline points="512.0,198.0 514.0,196.0 521.0,196.0 525.0,201.0 526.0,201.0 527.0,200.0 526.0,199.0 524.0,201.0 523.0,204.0"/><polyline points="393.0,202.0 398.0,202.0 401.0,199.0 401.0,194.0 399.0,192.0 399.0,191.0"/><polyline points="544.0,203.0 544.0,204.0 541.0,207.0 534.0,207.0 533.0,206.0 533.0,205.0 530.0,202.0 527.0,201.0"/><polyline points="406.0,209.0 405.0,210.0 403.0,210.0 402.0,209.0 401.0,209.0 400.0,208.0 400.0,204.0 399.0,203.0 399.0,202.0"/><polyline points="767.0,209.0 767.0,207.0 765.0,204.0 751.0,204.0 750.0,205.0 746.0,205.0 745.0,206.0 741.0,206.0 740.0,207.0 737.0,207.0 736.0,208.0 732.0,208.0 731.0,209.0 727.0,209.0 725.0,211.0 725.0,213.0 726.0,214.0 726.0,221.0 725.0,222.0 724.0,222.0"/><polyline points="532.0,210.0 533.0,209.0 533.0,207.0"/><polyline points="561.0,215.0 557.0,220.0 555.0,220.0 550.0,224.0 550.0,225.0 547.0,228.0 547.0,229.0 545.0,231.0 545.0,232.0 541.0,236.0 535.0,236.0 534.0,237.0 533.0,240.0 525.0,249.0"/><polyline points="574.0,222.0 573.0,223.0 573.0,224.0 570.0,226.0 562.0,226.0 558.0,221.0 559.0,220.0 559.0,219.0"/><polyline points="707.0,226.0 707.0,229.0 709.0,232.0 709.0,235.0 708.0,236.0 708.0,238.0 705.0,241.0 694.0,241.0 691.0,236.0 690.0,236.0 689.0,237.0 678.0,237.0"/><polyline points="559.0,229.0 561.0,226.0"/><polyline points="692.0,234.0 692.0,236.0"/><polyline points="566.0,244.0 567.0,243.0 568.0,243.0 570.0,241.0 570.0,240.0 574.0,236.0 574.0,231.0 572.0,228.0 572.0,226.0"/><polyline points="403.0,245.0 402.0,245.0 397.0,242.0 395.0,242.0 393.0,240.0 393.0,234.0 392.0,233.0 392.0,231.0 395.0,228.0 395.0,226.0 396.0,225.0 396.0,222.0 395.0,221.0 395.0,219.0 398.0,216.0 400.0,210.0"/><polyline points="582.0,246.0 584.0,243.0 584.0,239.0 580.0,235.0 576.0,235.0 575.0,234.0"/><polyline points="732.0,246.0 733.0,246.0 736.0,243.0 736.0,241.0 737.0,240.0 737.0,239.0 734.0,234.0 734.0,232.0 731.0,230.0 731.0,228.0 730.0,227.0 729.0,224.0 727.0,222.0 726.0,222.0"/><polyline points="617.0,250.0 613.0,254.0 611.0,254.0 610.0,253.0 607.0,253.0 606.0,252.0 603.0,252.0 601.0,250.0 600.0,250.0 599.0,249.0 599.0,248.0 597.0,246.0 596.0,246.0 591.0,242.0 589.0,242.0 588.0,241.0 585.0,241.0"/><polyline points="384.0,259.0 385.0,259.0 389.0,255.0 389.0,254.0 390.0,253.0 390.0,249.0 391.0,248.0 391.0,245.0 394.0,242.0"/><polyline points="639.0,260.0 637.0,263.0 636.0,263.0 631.0,266.0 629.0,266.0 628.0,265.0 627.0,265.0 625.0,263.0 624.0,263.0 622.0,261.0 620.0,261.0 619.0,260.0 617.0,260.0 615.0,258.0 615.0,257.0 614.0,256.0 614.0,254.0"/><polyline points="593.0,261.0 595.0,259.0 595.0,258.0 598.0,255.0 598.0,254.0 599.0,253.0 599.0,250.0 601.0,252.0 602.0,252.0"/><polyline points="753.0,262.0 751.0,262.0 749.0,264.0 749.0,266.0 748.0,267.0 748.0,268.0 747.0,269.0 745.0,269.0"/><polyline points="655.0,269.0 654.0,270.0 653.0,273.0 651.0,275.0 645.0,277.0 643.0,275.0 642.0,275.0 640.0,273.0 639.0,273.0 636.0,270.0 637.0,269.0 637.0,264.0"/><polyline points="678.0,275.0 677.0,276.0 677.0,277.0 674.0,280.0 674.0,282.0 672.0,284.0 672.0,285.0 669.0,290.0 665.0,290.0 664.0,289.0 664.0,283.0 663.0,282.0 662.0,282.0 661.0,283.0 659.0,283.0 658.0,284.0 656.0,284.0 654.0,282.0 653.0,282.0 651.0,279.0 651.0,276.0"/><polyline points="630.0,276.0 628.0,276.0 625.0,273.0 624.0,273.0 622.0,271.0 621.0,271.0 618.0,269.0 618.0,268.0 617.0,267.0 618.0,266.0 616.0,263.0 616.0,260.0"/><polyline points="727.0,278.0 727.0,279.0 730.0,284.0 730.0,286.0 729.0,287.0 729.0,289.0 727.0,291.0 726.0,291.0 721.0,296.0 721.0,300.0 722.0,301.0 722.0,302.0 721.0,303.0 718.0,303.0 715.0,306.0 714.0,309.0 710.0,313.0 705.0,313.0 702.0,311.0 700.0,311.0 698.0,309.0 698.0,308.0 699.0,307.0 699.0,304.0 700.0,303.0 700.0,301.0"/><polyline points="381.0,282.0 383.0,282.0 387.0,278.0 387.0,274.0 388.0,273.0 388.0,262.0 386.0,260.0 386.0,259.0"/><polyline points="686.0,295.0 683.0,298.0 678.0,298.0 677.0,297.0 676.0,297.0 674.0,295.0 673.0,295.0 670.0,290.0"/><polyline points="597.0,298.0 598.0,297.0 598.0,296.0 600.0,294.0 601.0,291.0 603.0,289.0 603.0,288.0 604.0,287.0 604.0,286.0 605.0,285.0 605.0,284.0 608.0,279.0 608.0,277.0 609.0,276.0 609.0,275.0 610.0,274.0 611.0,271.0 613.0,269.0 615.0,269.0 616.0,268.0 617.0,269.0 616.0,269.0"/><polyline points="380.0,300.0 382.0,300.0 386.0,295.0 386.0,285.0 384.0,283.0 384.0,282.0"/><polyline points="731.0,307.0 730.0,306.0 729.0,306.0 728.0,305.0 727.0,305.0 726.0,304.0 723.0,303.0"/><polyline points="381.0,313.0 383.0,313.0 385.0,311.0 385.0,310.0 386.0,309.0 386.0,304.0 383.0,301.0 383.0,300.0"/><polyline points="692.0,314.0 694.0,311.0 694.0,308.0 693.0,307.0 692.0,307.0 690.0,305.0 689.0,305.0 685.0,301.0 685.0,297.0"/><polyline points="392.0,341.0 391.0,342.0 389.0,342.0 387.0,340.0 387.0,339.0 386.0,338.0 386.0,323.0 389.0,320.0 387.0,318.0 387.0,317.0 384.0,314.0 384.0,313.0"/><polyline points="416.0,342.0 416.0,341.0 409.0,334.0 408.0,334.0 403.0,329.0 402.0,329.0 398.0,325.0 397.0,325.0 394.0,322.0 393.0,322.0 392.0,321.0 389.0,321.0"/><polyline points="375.0,365.0 381.0,371.0 385.0,371.0 388.0,368.0 390.0,368.0 391.0,369.0 393.0,369.0 394.0,368.0"/><polyline points="364.0,389.0 372.0,397.0 372.0,400.0 371.0,401.0 371.0,402.0 369.0,404.0 368.0,404.0"/><polyline points="407.0,408.0 407.0,407.0 394.0,394.0 393.0,394.0 392.0,393.0 389.0,393.0 387.0,391.0 387.0,390.0 386.0,389.0 386.0,375.0 384.0,372.0"/><polyline points="399.0,427.0 400.0,426.0 400.0,425.0 401.0,424.0 402.0,424.0 403.0,425.0 406.0,426.0 411.0,431.0 416.0,431.0 419.0,428.0"/><polyline points="378.0,450.0 381.0,450.0 382.0,449.0 382.0,448.0 385.0,445.0 385.0,426.0 386.0,425.0 386.0,416.0 387.0,415.0 388.0,412.0 386.0,410.0 386.0,409.0 382.0,405.0 380.0,405.0 376.0,401.0 373.0,400.0"/><polyline points="437.0,470.0 441.0,466.0 442.0,463.0 418.0,439.0 418.0,438.0 416.0,436.0 416.0,435.0 415.0,434.0 415.0,432.0"/><polyline points="311.0,485.0 313.0,483.0 316.0,483.0 318.0,485.0 319.0,485.0 323.0,489.0 324.0,489.0 327.0,492.0 328.0,492.0 331.0,495.0 332.0,495.0 336.0,499.0 337.0,499.0 340.0,502.0 344.0,502.0 345.0,503.0 347.0,503.0 349.0,505.0 349.0,508.0 348.0,509.0 346.0,509.0 344.0,506.0 344.0,505.0 345.0,504.0"/><polyline points="373.0,496.0 374.0,496.0 378.0,500.0 381.0,500.0 384.0,497.0 385.0,497.0 387.0,495.0 386.0,494.0 386.0,489.0 383.0,486.0 383.0,475.0 384.0,474.0 384.0,452.0 382.0,450.0"/><polyline points="391.0,497.0 389.0,497.0 388.0,496.0 387.0,496.0"/><polyline points="434.0,522.0 432.0,520.0 431.0,520.0 430.0,519.0 427.0,518.0 423.0,514.0 420.0,513.0 418.0,511.0 417.0,511.0 416.0,510.0 413.0,510.0 412.0,509.0 412.0,506.0 410.0,504.0 410.0,503.0 409.0,502.0 409.0,499.0 404.0,494.0 403.0,494.0 394.0,486.0 392.0,486.0 391.0,485.0 389.0,485.0 386.0,488.0"/><polyline points="698.0,523.0 663.0,523.0 662.0,524.0"/><polyline points="368.0,531.0 369.0,530.0 369.0,525.0 360.0,517.0 359.0,517.0 358.0,516.0 356.0,516.0 349.0,509.0"/><polyline points="402.0,535.0 391.0,524.0 388.0,524.0 387.0,523.0 387.0,522.0 384.0,519.0 384.0,518.0 381.0,515.0 381.0,513.0 384.0,510.0 384.0,506.0 381.0,503.0 381.0,502.0 380.0,501.0"/><polyline points="357.0,551.0 341.0,535.0 341.0,534.0 340.0,533.0 341.0,532.0 341.0,531.0 349.0,523.0 351.0,523.0 355.0,519.0 355.0,517.0"/><polyline points="388.0,552.0 387.0,551.0 387.0,549.0 386.0,548.0 386.0,539.0 385.0,538.0 385.0,537.0 384.0,536.0 381.0,536.0 377.0,532.0 376.0,532.0 373.0,530.0 370.0,530.0"/><polyline points="511.0,185.0 511.0,187.0 512.0,188.0 512.0,190.0 513.0,191.0 513.0,196.0"/><polyline points="542.0,207.0 542.0,208.0 544.0,211.0 545.0,211.0 546.0,212.0 549.0,213.0 551.0,215.0 552.0,215.0 556.0,219.0 557.0,219.0"/><polyline points="729.0,232.0 727.0,234.0 725.0,234.0 724.0,235.0 722.0,235.0 721.0,236.0 719.0,236.0 718.0,237.0 712.0,237.0 711.0,236.0 709.0,236.0"/><polyline points="573.0,238.0 573.0,239.0 571.0,241.0"/><polyline points="735.0,245.0 738.0,245.0 741.0,248.0 741.0,249.0 742.0,250.0 742.0,251.0 745.0,256.0 745.0,258.0 746.0,259.0 746.0,260.0 749.0,263.0"/><polyline points="748.0,269.0 749.0,269.0 751.0,271.0 751.0,272.0 754.0,277.0 754.0,279.0 752.0,281.0 751.0,281.0 750.0,282.0 748.0,282.0 747.0,283.0 745.0,283.0 744.0,284.0 742.0,284.0 739.0,286.0 731.0,286.0"/><polyline points="695.0,309.0 697.0,309.0"/><polyline points="388.0,342.0 386.0,345.0 386.0,366.0 387.0,367.0 387.0,368.0"/><polyline points="388.0,393.0 386.0,396.0 386.0,403.0 384.0,405.0 384.0,406.0"/><polyline points="389.0,413.0 390.0,413.0 391.0,414.0 393.0,414.0 400.0,421.0 400.0,423.0"/><polyline points="387.0,524.0 385.0,526.0 385.0,536.0"/></g><g data-id="orange" stroke="#ffffff" fill="none" stroke-width="1.4" stroke-linecap="round" stroke-linejoin="round"></g></svg>