<?xml version="1.0" encoding="utf-8" ?>
<svg baseProfile="full" width="800" height="570" xmlns="http://www.w3.org/2000/svg"><g data-id="red" stroke="#e74c3c" fill="none" stroke-width="1.4" stroke-linecap="round" stroke-linejoin="round"><polyline points="232.0,101.0 235.0,101.0 236.0,102.0 237.0,102.0 238.0,101.0 239.0,101.0 240.0,100.0 243.0,99.0 245.0,97.0 245.0,96.0 246.0,95.0 247.0,92.0 250.0,89.0 250.0,80.0 248.0,78.0 222.0,78.0 221.0,79.0 218.0,79.0 217.0,80.0 213.0,80.0 212.0,81.0 209.0,81.0 208.0,82.0 204.0,82.0 203.0,83.0 199.0,83.0 198.0,84.0 195.0,84.0 192.0,87.0 192.0,90.0 193.0,91.0 193.0,93.0 194.0,94.0 194.0,95.0 196.0,98.0 196.0,100.0 197.0,101.0 197.0,102.0 200.0,107.0 200.0,109.0 203.0,114.0 203.0,116.0 206.0,121.0 206.0,123.0 207.0,124.0 207.0,125.0 210.0,130.0 210.0,132.0 213.0,137.0 213.0,139.0 216.0,144.0 216.0,146.0 217.0,147.0 217.0,148.0 220.0,153.0 220.0,155.0 223.0,160.0 223.0,162.0 224.0,163.0 224.0,164.0 226.0,166.0 226.0,169.0 227.0,170.0 227.0,171.0 230.0,176.0 230.0,178.0 233.0,183.0 233.0,186.0 231.0,188.0 229.0,188.0 226.0,190.0 224.0,190.0 223.0,191.0 221.0,191.0 220.0,192.0 218.0,192.0 217.0,193.0 215.0,193.0 214.0,194.0 212.0,194.0 211.0,195.0 209.0,195.0 206.0,197.0 204.0,197.0 203.0,198.0 201.0,198.0 200.0,199.0 199.0,199.0 198.0,200.0 197.0,200.0 196.0,201.0 195.0,201.0 194.0,202.0 191.0,203.0 186.0,208.0 185.0,208.0 182.0,211.0 182.0,212.0 179.0,215.0 178.0,218.0 176.0,220.0 175.0,223.0 173.0,225.0 172.0,228.0 170.0,230.0 170.0,231.0 169.0,232.0 169.0,236.0 171.0,238.0 171.0,239.0 174.0,242.0 176.0,242.0 178.0,244.0 179.0,244.0"/><polyline points="252.0,101.0 251.0,101.0 250.0,100.0 246.0,100.0 245.0,99.0"/><polyline points="235.0,108.0 235.0,105.0 236.0,104.0 236.0,103.0"/><polyline points="756.0,234.0 755.0,235.0 753.0,235.0 752.0,236.0 750.0,236.0 749.0,237.0 747.0,237.0 746.0,238.0 744.0,238.0 741.0,240.0 739.0,240.0 738.0,241.0 736.0,241.0 735.0,242.0 733.0,242.0 732.0,243.0 730.0,243.0 729.0,244.0 727.0,244.0 726.0,245.0 724.0,245.0 723.0,246.0 721.0,246.0 718.0,249.0 718.0,250.0 719.0,251.0 719.0,253.0 720.0,254.0 720.0,256.0 721.0,257.0 721.0,259.0 722.0,260.0 722.0,262.0 723.0,263.0 723.0,266.0 722.0,267.0 722.0,269.0 719.0,271.0"/><polyline points="146.0,270.0 147.0,269.0 148.0,269.0 149.0,270.0 153.0,270.0 156.0,267.0 156.0,266.0 157.0,265.0 157.0,263.0 158.0,262.0 158.0,260.0 159.0,259.0 159.0,258.0 160.0,257.0 160.0,256.0 161.0,255.0 161.0,254.0 162.0,253.0 162.0,252.0 163.0,251.0 163.0,250.0 164.0,249.0 164.0,248.0 165.0,247.0 166.0,244.0 169.0,241.0 172.0,241.0"/><polyline points="674.0,279.0 673.0,279.0 672.0,280.0 670.0,280.0 669.0,281.0 667.0,281.0 666.0,282.0 664.0,282.0 663.0,283.0 661.0,283.0 658.0,285.0 656.0,285.0 655.0,286.0 653.0,286.0 652.0,287.0 652.0,290.0 653.0,291.0 653.0,292.0 658.0,297.0 658.0,298.0 659.0,299.0 659.0,301.0 661.0,304.0 661.0,306.0 662.0,307.0 662.0,309.0"/><polyline points="181.0,280.0 180.0,280.0 179.0,281.0 175.0,281.0 174.0,282.0 172.0,282.0 171.0,283.0 168.0,283.0 165.0,285.0 159.0,285.0 156.0,282.0 156.0,281.0 155.0,280.0 155.0,274.0 153.0,271.0"/><polyline points="591.0,286.0 591.0,281.0 590.0,280.0 590.0,276.0 589.0,275.0 589.0,272.0 588.0,271.0 586.0,271.0 585.0,270.0 583.0,270.0 582.0,269.0 581.0,270.0 578.0,270.0 575.0,272.0 573.0,272.0 572.0,273.0 570.0,273.0 569.0,274.0 567.0,274.0 564.0,276.0 561.0,276.0 559.0,278.0 559.0,279.0 558.0,280.0 556.0,280.0 553.0,278.0 551.0,278.0 550.0,279.0 546.0,279.0 545.0,280.0 542.0,280.0 541.0,281.0 539.0,281.0 538.0,282.0 535.0,282.0 534.0,283.0 531.0,283.0 530.0,284.0 528.0,284.0 527.0,285.0 524.0,285.0 523.0,286.0 521.0,286.0 520.0,287.0 517.0,287.0 516.0,288.0 514.0,288.0 513.0,289.0 511.0,289.0 510.0,290.0 508.0,290.0 507.0,291.0 505.0,291.0 502.0,293.0 500.0,293.0 497.0,295.0 495.0,295.0 494.0,296.0 493.0,296.0 492.0,297.0 490.0,297.0 487.0,299.0 485.0,299.0 484.0,300.0 482.0,300.0 479.0,302.0 477.0,302.0 474.0,304.0 472.0,304.0 469.0,306.0 467.0,306.0 466.0,307.0 465.0,307.0 461.0,311.0 460.0,311.0 459.0,310.0 457.0,310.0 456.0,311.0 453.0,311.0 452.0,312.0 450.0,312.0 447.0,314.0 445.0,314.0 444.0,315.0 442.0,315.0 441.0,316.0 439.0,316.0 436.0,318.0 434.0,318.0 433.0,319.0 433.0,327.0 432.0,328.0 432.0,330.0 430.0,332.0 429.0,332.0"/><polyline points="206.0,287.0 207.0,288.0 207.0,290.0 209.0,293.0 209.0,295.0 210.0,296.0 210.0,298.0 212.0,301.0 212.0,303.0 213.0,304.0 213.0,305.0 214.0,306.0 214.0,308.0 215.0,309.0 215.0,311.0 214.0,312.0 213.0,315.0 211.0,317.0 210.0,317.0"/><polyline points="141.0,301.0 142.0,301.0 145.0,299.0 148.0,299.0 149.0,298.0 151.0,298.0 152.0,297.0 154.0,297.0 155.0,296.0 156.0,296.0 158.0,294.0 158.0,293.0 159.0,292.0 159.0,286.0"/><polyline points="568.0,314.0 567.0,313.0 567.0,312.0 566.0,311.0 566.0,309.0 565.0,308.0 565.0,305.0 564.0,304.0 564.0,302.0 563.0,301.0 563.0,298.0 562.0,297.0 562.0,294.0 561.0,293.0 561.0,291.0 560.0,290.0 560.0,288.0 559.0,287.0 559.0,285.0 558.0,284.0 558.0,281.0"/><polyline points="177.0,321.0 171.0,323.0 168.0,326.0 167.0,325.0 167.0,324.0 166.0,323.0 166.0,321.0 167.0,320.0 167.0,316.0 166.0,315.0 166.0,313.0 165.0,312.0 165.0,309.0 164.0,308.0 164.0,306.0 163.0,305.0 163.0,303.0 162.0,302.0 162.0,299.0 160.0,297.0 158.0,297.0 157.0,296.0"/><polyline points="464.0,321.0 463.0,320.0 463.0,318.0 462.0,317.0 462.0,314.0 461.0,313.0 461.0,312.0"/><polyline points="151.0,326.0 152.0,325.0 160.0,325.0 163.0,323.0 165.0,323.0"/><polyline points="166.0,370.0 168.0,368.0 170.0,368.0 171.0,367.0 173.0,367.0 176.0,365.0 178.0,365.0 179.0,364.0 179.0,361.0 181.0,359.0 181.0,358.0 178.0,355.0 178.0,354.0 177.0,353.0 177.0,351.0 176.0,350.0 176.0,348.0 175.0,347.0 175.0,345.0 174.0,344.0 174.0,342.0 173.0,341.0 173.0,339.0 172.0,338.0 172.0,336.0 171.0,335.0 171.0,333.0 170.0,332.0 170.0,329.0 169.0,328.0 169.0,326.0"/><polyline points="391.0,377.0 386.0,377.0 385.0,376.0 381.0,376.0 380.0,377.0 378.0,377.0 377.0,378.0 375.0,378.0 374.0,379.0 371.0,379.0 368.0,376.0 368.0,374.0 367.0,373.0 367.0,371.0 366.0,370.0 366.0,369.0 365.0,368.0 361.0,368.0 358.0,370.0 356.0,370.0 353.0,372.0 351.0,372.0 348.0,374.0 346.0,374.0 343.0,376.0 341.0,376.0 338.0,378.0 336.0,378.0 335.0,379.0 334.0,379.0 333.0,380.0 331.0,380.0 330.0,381.0 324.0,381.0 323.0,382.0 316.0,382.0 315.0,383.0 313.0,383.0 312.0,384.0 310.0,384.0 307.0,386.0 305.0,386.0 304.0,387.0 302.0,387.0 299.0,389.0 297.0,389.0 293.0,393.0 293.0,395.0 291.0,398.0 289.0,398.0 288.0,399.0 285.0,399.0 280.0,402.0 278.0,402.0 277.0,403.0 274.0,404.0 271.0,409.0 270.0,408.0 264.0,408.0 263.0,409.0 262.0,409.0 261.0,410.0 259.0,410.0 254.0,413.0 252.0,413.0 249.0,415.0 247.0,415.0 246.0,416.0 243.0,417.0 240.0,420.0 240.0,422.0 239.0,423.0 236.0,421.0 232.0,421.0 229.0,423.0 227.0,423.0 226.0,424.0 224.0,424.0 223.0,425.0 222.0,425.0 221.0,426.0 219.0,426.0 216.0,428.0 210.0,428.0 208.0,426.0 206.0,426.0 203.0,424.0 203.0,417.0 202.0,416.0 202.0,415.0 201.0,414.0 201.0,413.0 200.0,412.0 200.0,411.0 199.0,410.0 199.0,409.0 198.0,408.0 198.0,407.0 197.0,406.0 197.0,405.0 196.0,404.0 196.0,403.0 195.0,402.0 195.0,401.0 192.0,396.0 192.0,394.0 191.0,393.0 191.0,392.0 190.0,391.0 190.0,390.0 189.0,389.0 189.0,388.0 186.0,383.0 186.0,381.0 185.0,380.0 185.0,378.0 184.0,377.0 184.0,374.0 183.0,373.0 183.0,371.0 182.0,370.0 182.0,368.0 179.0,365.0"/><polyline points="393.0,404.0 392.0,404.0 391.0,405.0 389.0,405.0 388.0,406.0 386.0,406.0 383.0,408.0 380.0,408.0 379.0,407.0 379.0,406.0 376.0,401.0 376.0,399.0 375.0,398.0 375.0,396.0 374.0,395.0 374.0,393.0 373.0,392.0 373.0,391.0 372.0,390.0 372.0,388.0 371.0,387.0 371.0,384.0 370.0,383.0 370.0,381.0 371.0,380.0"/><polyline points="482.0,411.0 481.0,412.0 476.0,412.0 473.0,409.0 473.0,408.0 471.0,406.0 471.0,405.0 469.0,403.0 469.0,402.0 467.0,400.0 467.0,399.0 464.0,396.0 464.0,395.0 462.0,393.0 462.0,392.0 460.0,390.0 460.0,389.0 458.0,387.0 458.0,386.0 456.0,384.0 456.0,383.0 454.0,381.0 454.0,380.0 451.0,378.0 448.0,378.0 447.0,377.0 448.0,376.0 448.0,374.0 449.0,373.0 449.0,372.0 448.0,371.0 448.0,370.0 446.0,368.0 446.0,366.0 445.0,365.0 445.0,363.0 444.0,362.0 444.0,360.0 443.0,359.0 443.0,357.0 442.0,356.0 442.0,354.0 441.0,353.0 441.0,351.0 440.0,350.0 440.0,347.0 439.0,346.0 439.0,344.0 438.0,343.0 438.0,341.0 437.0,340.0 437.0,338.0 436.0,337.0 436.0,335.0 433.0,332.0 431.0,332.0"/><polyline points="277.0,422.0 275.0,419.0 275.0,417.0 274.0,416.0 274.0,414.0 273.0,413.0 273.0,411.0 272.0,410.0 272.0,409.0"/><polyline points="306.0,425.0 304.0,422.0 304.0,420.0 302.0,417.0 302.0,415.0 300.0,412.0 300.0,410.0 297.0,405.0 297.0,403.0 296.0,402.0 296.0,401.0 293.0,398.0 292.0,398.0"/><polyline points="400.0,428.0 399.0,429.0 397.0,429.0 396.0,430.0 394.0,430.0 393.0,431.0 392.0,431.0 390.0,433.0 390.0,435.0 391.0,436.0 391.0,439.0 392.0,440.0 392.0,441.0 393.0,442.0 393.0,444.0 394.0,445.0 394.0,449.0 395.0,450.0 395.0,452.0 394.0,453.0 391.0,453.0 388.0,455.0 386.0,455.0 385.0,456.0 383.0,456.0 380.0,458.0 378.0,458.0 377.0,459.0 375.0,459.0 372.0,461.0 370.0,461.0 369.0,462.0 367.0,462.0 366.0,463.0 364.0,463.0 361.0,465.0 359.0,465.0 358.0,466.0 356.0,466.0 353.0,468.0 351.0,468.0 350.0,469.0 349.0,469.0 348.0,470.0 345.0,471.0 344.0,472.0 344.0,474.0 341.0,477.0"/><polyline points="174.0,429.0 175.0,430.0 175.0,431.0 177.0,433.0 181.0,433.0 186.0,430.0 189.0,430.0 190.0,429.0 191.0,429.0 193.0,431.0 194.0,431.0 195.0,430.0 196.0,430.0 199.0,427.0 200.0,427.0 203.0,425.0"/><polyline points="191.0,435.0 192.0,434.0 192.0,432.0"/><polyline points="245.0,438.0 243.0,435.0 243.0,433.0 242.0,432.0 242.0,430.0 241.0,429.0 241.0,426.0 240.0,425.0 240.0,423.0"/><polyline points="489.0,443.0 491.0,440.0 491.0,438.0 492.0,437.0 492.0,436.0 491.0,435.0 491.0,434.0 489.0,432.0 489.0,431.0 487.0,429.0 487.0,428.0 484.0,425.0 484.0,424.0 480.0,419.0 480.0,417.0 479.0,416.0 479.0,413.0"/><polyline points="426.0,447.0 423.0,448.0 421.0,450.0 420.0,450.0 419.0,451.0 417.0,451.0 416.0,452.0 414.0,452.0 411.0,454.0 409.0,454.0 407.0,456.0 407.0,459.0 410.0,464.0 410.0,467.0 411.0,468.0 411.0,470.0 412.0,471.0 412.0,474.0 413.0,475.0 413.0,476.0 416.0,478.0 417.0,478.0 418.0,477.0 421.0,476.0"/><polyline points="161.0,452.0 160.0,452.0 159.0,453.0 157.0,453.0 155.0,455.0 155.0,461.0 156.0,462.0 156.0,464.0 158.0,467.0 158.0,469.0 159.0,470.0 159.0,471.0"/><polyline points="208.0,452.0 209.0,451.0 211.0,451.0 212.0,450.0 213.0,450.0 215.0,448.0 215.0,446.0 216.0,445.0 216.0,444.0 215.0,443.0 215.0,441.0 214.0,440.0 214.0,438.0 213.0,437.0 213.0,435.0 211.0,433.0 211.0,431.0 210.0,430.0 210.0,429.0"/><polyline points="459.0,470.0 459.0,471.0 462.0,474.0 464.0,474.0 465.0,473.0 467.0,473.0 468.0,472.0 470.0,472.0 473.0,470.0 475.0,470.0 476.0,469.0 478.0,469.0 481.0,467.0 483.0,467.0 484.0,466.0 486.0,466.0 489.0,464.0 491.0,464.0 494.0,462.0 496.0,462.0 497.0,461.0 498.0,461.0 500.0,459.0 500.0,458.0 501.0,457.0 501.0,455.0 502.0,454.0 502.0,451.0 500.0,449.0 500.0,448.0 496.0,443.0 495.0,443.0 494.0,442.0 491.0,442.0"/><polyline points="351.0,482.0 350.0,481.0 350.0,480.0 349.0,479.0 349.0,477.0 347.0,474.0 348.0,473.0 348.0,471.0"/><polyline points="226.0,487.0 227.0,486.0 229.0,486.0 230.0,485.0 230.0,484.0 231.0,483.0 231.0,480.0 230.0,479.0 230.0,477.0 227.0,472.0 227.0,470.0 224.0,465.0 224.0,463.0 222.0,460.0 222.0,458.0 221.0,457.0 221.0,456.0 220.0,455.0 219.0,452.0 217.0,450.0 214.0,450.0"/><polyline points="263.0,498.0 262.0,498.0 261.0,499.0 259.0,499.0 258.0,500.0 256.0,500.0 255.0,501.0 254.0,501.0 253.0,502.0 251.0,502.0 248.0,504.0 246.0,504.0 245.0,505.0 243.0,505.0 242.0,504.0 241.0,504.0 239.0,502.0 239.0,501.0 238.0,500.0 238.0,498.0 237.0,497.0 237.0,495.0 235.0,492.0 235.0,490.0 234.0,489.0 234.0,488.0 232.0,486.0 230.0,486.0"/><polyline points="661.0,539.0 698.0,539.0"/><polyline points="203.0,546.0 203.0,543.0 202.0,542.0 202.0,539.0 201.0,538.0 201.0,535.0 203.0,533.0 204.0,533.0 209.0,530.0 211.0,530.0 214.0,528.0 216.0,528.0 219.0,526.0 221.0,526.0 226.0,523.0 228.0,523.0 231.0,521.0 233.0,521.0 238.0,518.0 240.0,518.0 243.0,515.0 243.0,511.0 242.0,510.0 242.0,507.0 243.0,506.0"/><polyline points="703.0,225.0 707.0,225.0 709.0,227.0 709.0,229.0 710.0,230.0 710.0,232.0 712.0,235.0 712.0,237.0 713.0,238.0 713.0,240.0 714.0,241.0 714.0,243.0 715.0,244.0 716.0,247.0 717.0,248.0 718.0,248.0"/><polyline points="700.0,226.0 702.0,226.0"/><polyline points="697.0,227.0 699.0,227.0"/><polyline points="692.0,229.0 694.0,229.0"/><polyline points="689.0,230.0 691.0,230.0"/><polyline points="686.0,231.0 688.0,231.0"/><polyline points="681.0,233.0 683.0,233.0"/><polyline points="678.0,234.0 680.0,234.0"/><polyline points="675.0,235.0 677.0,235.0"/><polyline points="670.0,237.0 672.0,237.0"/><polyline points="667.0,238.0 669.0,238.0"/><polyline points="664.0,239.0 666.0,239.0"/><polyline points="659.0,241.0 661.0,241.0"/><polyline points="656.0,242.0 658.0,242.0"/><polyline points="653.0,243.0 655.0,243.0"/><polyline points="648.0,245.0 650.0,245.0"/><polyline points="645.0,246.0 647.0,246.0"/><polyline points="642.0,247.0 644.0,247.0"/><polyline points="637.0,249.0 639.0,249.0"/><polyline points="634.0,250.0 636.0,250.0"/><polyline points="631.0,251.0 633.0,251.0"/><polyline points="626.0,253.0 628.0,253.0"/><polyline points="623.0,254.0 625.0,254.0"/><polyline points="620.0,256.0 618.0,258.0 617.0,258.0 616.0,259.0 613.0,259.0 612.0,260.0 610.0,260.0 607.0,262.0 605.0,262.0 604.0,263.0 602.0,263.0 601.0,264.0 599.0,264.0 596.0,266.0 594.0,266.0 593.0,267.0 592.0,267.0 590.0,269.0 590.0,270.0 589.0,271.0"/><polyline points="619.0,258.0 619.0,259.0 621.0,261.0 621.0,263.0 622.0,264.0 622.0,266.0 623.0,267.0 623.0,269.0 624.0,270.0 624.0,272.0 625.0,273.0 625.0,275.0 626.0,276.0 626.0,277.0 628.0,279.0 630.0,279.0 633.0,282.0 633.0,284.0 634.0,285.0 634.0,287.0 636.0,290.0 639.0,290.0 640.0,289.0 642.0,289.0 645.0,287.0 648.0,287.0 649.0,286.0 651.0,286.0"/><polyline points="723.0,267.0 724.0,268.0 723.0,269.0"/><polyline points="212.0,317.0 216.0,317.0 218.0,319.0 218.0,320.0 220.0,323.0 220.0,325.0 222.0,328.0 222.0,330.0 223.0,331.0 223.0,333.0 225.0,336.0 225.0,338.0 223.0,340.0 221.0,340.0 218.0,342.0 216.0,342.0 213.0,344.0 211.0,344.0 208.0,346.0 206.0,346.0 203.0,348.0 201.0,348.0 198.0,350.0 196.0,350.0 193.0,352.0 191.0,352.0 188.0,354.0 186.0,354.0 185.0,355.0 184.0,355.0 182.0,357.0 181.0,357.0"/><polyline points="167.0,323.0 168.0,324.0 169.0,324.0"/><polyline points="181.0,360.0 181.0,361.0 180.0,362.0"/><polyline points="379.0,408.0 379.0,409.0 381.0,411.0 381.0,413.0 382.0,414.0 382.0,416.0 383.0,417.0 383.0,419.0 384.0,420.0 384.0,422.0 386.0,425.0 386.0,427.0 387.0,428.0 387.0,429.0 389.0,431.0 390.0,431.0"/><polyline points="176.0,433.0 175.0,434.0 175.0,436.0 173.0,438.0 171.0,438.0 170.0,439.0 168.0,439.0 167.0,440.0 165.0,440.0 164.0,441.0 160.0,441.0 159.0,442.0 157.0,442.0 156.0,443.0 153.0,444.0 151.0,446.0 151.0,447.0 150.0,448.0 151.0,449.0 151.0,451.0 153.0,453.0 155.0,453.0"/><polyline points="395.0,453.0 396.0,453.0 399.0,456.0 403.0,456.0 404.0,455.0 407.0,455.0"/><polyline points="459.0,473.0 460.0,473.0 456.0,477.0 454.0,477.0 453.0,478.0 451.0,478.0 450.0,479.0 448.0,479.0 445.0,481.0 443.0,481.0 442.0,482.0 440.0,482.0 439.0,483.0 437.0,483.0 434.0,485.0 432.0,485.0 431.0,486.0 429.0,486.0 428.0,487.0 427.0,487.0 426.0,488.0 424.0,488.0 423.0,489.0 419.0,489.0 417.0,487.0 417.0,486.0 416.0,485.0 416.0,479.0"/><polyline points="346.0,475.0 345.0,476.0 343.0,476.0"/></g><g data-id="green" stroke="#2ecc71" fill="none" stroke-width="1.4" stroke-linecap="round" stroke-linejoin="round"><polyline points="510.0,17.0 507.0,20.0 507.0,22.0 506.0,23.0 506.0,25.0 504.0,28.0 504.0,30.0 502.0,32.0 502.0,35.0 499.0,40.0"/><polyline points="515.0,51.0 515.0,50.0 516.0,49.0 517.0,46.0 520.0,43.0 519.0,42.0 517.0,42.0 514.0,40.0 512.0,40.0 509.0,38.0 507.0,38.0 506.0,37.0 502.0,37.0"/><polyline points="617.0,61.0 617.0,62.0 616.0,63.0 616.0,68.0 615.0,69.0 615.0,71.0 614.0,72.0 614.0,75.0 613.0,76.0 613.0,80.0 612.0,81.0 612.0,84.0 610.0,87.0 610.0,90.0 609.0,91.0 609.0,94.0 608.0,95.0 608.0,98.0 604.0,102.0 597.0,102.0 596.0,101.0 570.0,101.0 567.0,99.0 567.0,97.0 566.0,96.0 566.0,95.0 563.0,90.0 563.0,88.0 562.0,87.0 562.0,86.0 561.0,85.0 561.0,84.0 560.0,83.0 560.0,82.0 557.0,77.0 557.0,75.0 556.0,74.0 556.0,73.0 555.0,72.0 555.0,71.0 554.0,70.0 554.0,69.0 553.0,68.0 552.0,65.0 549.0,62.0 547.0,62.0 546.0,61.0 546.0,60.0 547.0,59.0 547.0,56.0 545.0,54.0 544.0,54.0 541.0,52.0 539.0,52.0 538.0,51.0 538.0,46.0 537.0,45.0 536.0,46.0 535.0,46.0 534.0,47.0 531.0,48.0 526.0,45.0 524.0,45.0 523.0,44.0 520.0,44.0"/><polyline points="544.0,63.0 545.0,63.0 546.0,62.0"/><polyline points="251.0,94.0 253.0,92.0 253.0,84.0 252.0,83.0 252.0,77.0 251.0,76.0 235.0,76.0 234.0,75.0 223.0,75.0 222.0,76.0 219.0,76.0 218.0,77.0 214.0,77.0 213.0,78.0 210.0,78.0 209.0,79.0 205.0,79.0 204.0,80.0 201.0,80.0 200.0,81.0 196.0,81.0 195.0,82.0 192.0,82.0 190.0,84.0 190.0,93.0 191.0,94.0 191.0,95.0 194.0,100.0 194.0,102.0 195.0,103.0 195.0,104.0 198.0,109.0 198.0,111.0 199.0,112.0 199.0,113.0 202.0,118.0 202.0,120.0 203.0,121.0 203.0,122.0 206.0,127.0 206.0,129.0 207.0,130.0 207.0,131.0 208.0,132.0 208.0,133.0 211.0,138.0 211.0,140.0 212.0,141.0 212.0,142.0 215.0,147.0 215.0,149.0 216.0,150.0 216.0,151.0 219.0,156.0 219.0,158.0 221.0,161.0 221.0,170.0 219.0,172.0 218.0,172.0 217.0,171.0"/><polyline points="464.0,99.0 464.0,101.0 461.0,104.0 460.0,104.0 458.0,106.0 457.0,106.0 456.0,107.0 455.0,107.0 454.0,108.0 451.0,109.0 449.0,111.0 446.0,112.0 444.0,114.0 443.0,114.0 441.0,116.0 440.0,116.0 437.0,119.0 436.0,119.0 433.0,122.0 432.0,122.0 425.0,128.0 424.0,128.0 422.0,130.0 421.0,130.0 418.0,133.0 417.0,133.0 415.0,135.0 414.0,135.0 411.0,138.0 410.0,138.0 407.0,141.0 406.0,141.0 404.0,143.0 403.0,143.0 402.0,144.0 399.0,144.0 396.0,141.0 395.0,141.0 394.0,140.0 393.0,137.0 384.0,128.0 383.0,128.0 378.0,123.0 377.0,123.0 372.0,118.0 371.0,118.0 366.0,113.0 366.0,112.0 364.0,109.0 363.0,110.0 361.0,110.0 358.0,112.0 356.0,112.0 355.0,111.0 353.0,111.0 350.0,109.0 341.0,109.0 340.0,108.0 339.0,108.0 338.0,109.0"/><polyline points="377.0,102.0 372.0,102.0 371.0,101.0 370.0,102.0 370.0,103.0 368.0,105.0 367.0,105.0 366.0,106.0 366.0,108.0 365.0,109.0"/><polyline points="651.0,138.0 648.0,138.0 646.0,136.0 646.0,134.0 645.0,133.0 645.0,131.0 644.0,130.0 644.0,128.0 643.0,127.0 643.0,125.0 642.0,124.0 642.0,122.0 641.0,121.0 641.0,119.0 640.0,118.0 640.0,116.0 639.0,115.0 639.0,113.0 635.0,109.0 634.0,109.0 633.0,108.0 629.0,108.0 628.0,107.0 625.0,107.0 624.0,106.0 620.0,106.0 619.0,105.0 616.0,105.0 615.0,104.0 612.0,104.0 610.0,102.0 610.0,100.0 609.0,99.0 608.0,99.0"/><polyline points="579.0,147.0 580.0,147.0 581.0,146.0 581.0,141.0 580.0,140.0 577.0,140.0 575.0,138.0 572.0,138.0 569.0,136.0 569.0,130.0 570.0,129.0 570.0,127.0 569.0,126.0 569.0,125.0 568.0,124.0 568.0,122.0 567.0,121.0 567.0,120.0 566.0,119.0 566.0,118.0 565.0,117.0 565.0,116.0 564.0,115.0 564.0,114.0 561.0,109.0 561.0,105.0 563.0,103.0 565.0,103.0 566.0,102.0 566.0,100.0 567.0,100.0"/><polyline points="680.0,147.0 680.0,144.0 679.0,143.0 679.0,141.0 678.0,140.0 678.0,138.0 677.0,137.0 677.0,135.0 676.0,134.0 676.0,131.0 675.0,130.0 675.0,128.0 674.0,127.0 674.0,124.0 673.0,123.0 673.0,122.0 669.0,118.0 669.0,117.0 668.0,116.0 666.0,116.0 665.0,115.0 662.0,115.0 661.0,114.0 657.0,114.0 656.0,113.0 653.0,113.0 652.0,112.0 649.0,112.0 648.0,111.0 645.0,111.0 644.0,110.0 641.0,110.0 639.0,112.0"/><polyline points="391.0,148.0 392.0,147.0 393.0,147.0 395.0,145.0 395.0,142.0 396.0,143.0 397.0,143.0"/><polyline points="717.0,150.0 716.0,150.0 713.0,147.0 713.0,145.0 711.0,142.0 711.0,140.0 710.0,139.0 710.0,137.0 708.0,134.0 708.0,132.0 707.0,131.0 707.0,129.0 706.0,128.0 706.0,127.0 704.0,125.0 702.0,125.0 701.0,124.0 698.0,124.0 697.0,123.0 694.0,123.0 693.0,122.0 691.0,122.0 690.0,121.0 687.0,121.0 686.0,120.0 683.0,120.0 682.0,119.0 676.0,119.0 674.0,121.0 673.0,121.0"/><polyline points="334.0,156.0 333.0,155.0 333.0,149.0 335.0,147.0 335.0,146.0 339.0,142.0 339.0,141.0 343.0,137.0 343.0,136.0 346.0,133.0 346.0,132.0 350.0,128.0 350.0,127.0 353.0,124.0 353.0,123.0 355.0,121.0 355.0,119.0 357.0,117.0 357.0,115.0 354.0,112.0"/><polyline points="250.0,165.0 250.0,168.0 251.0,169.0 251.0,171.0 252.0,172.0 252.0,177.0 249.0,179.0 246.0,179.0 245.0,180.0 242.0,180.0 241.0,181.0 239.0,181.0 238.0,182.0 236.0,182.0 235.0,181.0 235.0,180.0 233.0,177.0 233.0,175.0 231.0,172.0 231.0,170.0 230.0,169.0 230.0,168.0 228.0,166.0 227.0,167.0 224.0,167.0 223.0,168.0 222.0,168.0"/><polyline points="256.0,187.0 256.0,184.0 253.0,182.0 253.0,181.0 252.0,180.0 252.0,178.0"/><polyline points="597.0,187.0 600.0,182.0 598.0,179.0 598.0,177.0 597.0,176.0 597.0,174.0 596.0,173.0 596.0,171.0 594.0,168.0 594.0,166.0 593.0,165.0 593.0,163.0 592.0,162.0 592.0,161.0 589.0,156.0 589.0,154.0 588.0,153.0 587.0,150.0 585.0,148.0 583.0,148.0 582.0,147.0"/><polyline points="282.0,190.0 285.0,187.0 286.0,187.0 289.0,184.0 289.0,183.0 294.0,178.0 296.0,180.0 297.0,180.0 298.0,181.0 300.0,181.0 301.0,182.0 302.0,182.0 304.0,184.0 306.0,184.0 307.0,183.0 308.0,183.0 313.0,178.0 313.0,176.0 314.0,175.0 314.0,174.0 315.0,173.0 316.0,170.0 319.0,167.0 319.0,166.0 323.0,162.0 323.0,161.0 329.0,155.0 332.0,155.0"/><polyline points="351.0,199.0 350.0,199.0 347.0,202.0 346.0,202.0 344.0,204.0 343.0,204.0 334.0,213.0 333.0,213.0 331.0,211.0 329.0,211.0 328.0,210.0 328.0,209.0 311.0,192.0 310.0,192.0 307.0,190.0 307.0,187.0 306.0,186.0 306.0,185.0"/><polyline points="304.0,201.0 302.0,198.0 301.0,198.0 300.0,199.0 297.0,199.0 295.0,201.0 292.0,202.0 290.0,204.0 289.0,204.0 287.0,206.0 286.0,206.0 283.0,209.0 283.0,213.0 284.0,214.0 284.0,215.0 285.0,216.0 285.0,217.0 286.0,218.0 286.0,219.0 287.0,220.0 287.0,221.0 288.0,222.0 289.0,225.0 292.0,228.0 297.0,228.0 300.0,226.0 302.0,226.0 303.0,225.0 304.0,225.0 305.0,224.0 307.0,224.0 309.0,222.0 310.0,222.0"/><polyline points="399.0,213.0 401.0,211.0 402.0,211.0 403.0,210.0 403.0,209.0 405.0,207.0 405.0,204.0 406.0,203.0 406.0,199.0 408.0,197.0 411.0,197.0 412.0,196.0 412.0,192.0 413.0,191.0 413.0,190.0 412.0,189.0 411.0,186.0 409.0,184.0 409.0,183.0 408.0,182.0 408.0,180.0 403.0,176.0 402.0,173.0 400.0,171.0 400.0,167.0 406.0,161.0 406.0,160.0 405.0,159.0 405.0,158.0 403.0,156.0 403.0,155.0 402.0,154.0 402.0,153.0 400.0,151.0 400.0,150.0 395.0,146.0"/><polyline points="486.0,213.0 482.0,213.0 480.0,211.0 480.0,209.0 479.0,208.0 479.0,206.0 477.0,203.0 477.0,201.0 476.0,200.0 476.0,198.0 475.0,197.0 475.0,195.0 474.0,194.0 474.0,192.0 473.0,191.0 473.0,189.0 471.0,186.0 471.0,184.0 469.0,182.0 466.0,182.0 465.0,181.0 465.0,180.0 467.0,178.0 470.0,178.0 471.0,179.0 471.0,183.0"/><polyline points="527.0,215.0 527.0,213.0 526.0,212.0 526.0,210.0 524.0,207.0 524.0,204.0 523.0,203.0 523.0,201.0 522.0,200.0 522.0,199.0 519.0,197.0 517.0,197.0 514.0,195.0 512.0,195.0 508.0,191.0 508.0,189.0 507.0,188.0 507.0,185.0 506.0,184.0 506.0,182.0 505.0,181.0 505.0,179.0 504.0,178.0 504.0,176.0 503.0,175.0 503.0,172.0 502.0,171.0 502.0,170.0 504.0,168.0 504.0,167.0 505.0,166.0 505.0,163.0 506.0,162.0 506.0,160.0 505.0,159.0 505.0,157.0 504.0,156.0 504.0,153.0 503.0,152.0 503.0,151.0 500.0,148.0 495.0,148.0 494.0,149.0 491.0,149.0 490.0,150.0 488.0,150.0 487.0,151.0 484.0,151.0 483.0,152.0 480.0,152.0 479.0,153.0 476.0,153.0 475.0,154.0 473.0,154.0 472.0,155.0 469.0,155.0 468.0,156.0 465.0,156.0 464.0,157.0 461.0,157.0 460.0,158.0 458.0,158.0 457.0,159.0 454.0,159.0 453.0,160.0 450.0,160.0 449.0,161.0 447.0,161.0 446.0,162.0 444.0,162.0 443.0,163.0 441.0,163.0 440.0,164.0 440.0,165.0 437.0,167.0 430.0,167.0 429.0,168.0 427.0,168.0 426.0,169.0 424.0,169.0 423.0,170.0 421.0,170.0 418.0,172.0 416.0,172.0 415.0,173.0 413.0,173.0 412.0,174.0 411.0,174.0 408.0,177.0 408.0,179.0"/><polyline points="63.0,221.0 64.0,222.0 65.0,222.0 68.0,225.0 69.0,225.0 71.0,227.0 72.0,227.0 74.0,229.0 75.0,229.0 77.0,231.0 78.0,231.0 80.0,233.0 81.0,233.0 82.0,234.0 83.0,234.0 84.0,235.0 87.0,236.0 90.0,239.0 90.0,241.0 89.0,242.0 89.0,247.0 88.0,248.0 88.0,253.0 87.0,254.0 87.0,262.0 86.0,263.0 86.0,275.0 88.0,277.0 89.0,277.0 90.0,278.0 95.0,278.0 96.0,277.0 100.0,277.0"/><polyline points="351.0,225.0 350.0,226.0 348.0,226.0 345.0,228.0 343.0,228.0 341.0,230.0 341.0,232.0 342.0,233.0 342.0,236.0 340.0,238.0 339.0,238.0 336.0,241.0 335.0,241.0 334.0,242.0 330.0,242.0 329.0,243.0 326.0,243.0"/><polyline points="99.0,238.0 98.0,237.0 96.0,237.0 95.0,236.0 95.0,234.0 94.0,233.0 94.0,228.0 96.0,225.0 96.0,223.0 97.0,222.0 97.0,220.0 98.0,219.0 99.0,216.0 101.0,214.0 101.0,212.0 104.0,209.0 108.0,209.0 110.0,211.0 113.0,212.0 115.0,214.0 118.0,215.0 120.0,217.0 121.0,217.0 122.0,218.0 125.0,219.0 127.0,221.0 130.0,222.0 132.0,224.0 135.0,225.0 137.0,227.0 140.0,228.0 142.0,230.0 143.0,230.0 144.0,231.0 145.0,231.0 150.0,234.0 152.0,234.0 153.0,235.0 155.0,235.0 156.0,236.0 158.0,236.0 159.0,235.0 163.0,235.0 164.0,234.0 165.0,234.0 167.0,232.0 167.0,230.0 170.0,227.0 170.0,225.0 173.0,222.0 173.0,221.0 175.0,219.0 175.0,217.0 178.0,214.0 178.0,213.0 190.0,201.0 191.0,201.0 192.0,200.0 195.0,199.0 197.0,197.0 198.0,197.0 201.0,195.0 203.0,195.0 204.0,194.0 206.0,194.0 207.0,193.0 209.0,193.0 212.0,191.0 214.0,191.0 215.0,190.0 217.0,190.0 218.0,189.0 220.0,189.0 221.0,188.0 223.0,188.0 226.0,186.0 226.0,184.0 227.0,183.0 227.0,181.0 226.0,180.0 226.0,179.0 225.0,178.0 225.0,176.0 223.0,174.0 223.0,173.0 222.0,172.0 220.0,172.0 222.0,174.0"/><polyline points="252.0,248.0 251.0,248.0 250.0,249.0 248.0,249.0 247.0,250.0 244.0,250.0 242.0,248.0 242.0,247.0 240.0,244.0 240.0,242.0 239.0,241.0 239.0,239.0 237.0,236.0 237.0,234.0 235.0,231.0 235.0,229.0 234.0,228.0 234.0,226.0 232.0,223.0 232.0,221.0 231.0,220.0 231.0,218.0 229.0,215.0 229.0,213.0 227.0,210.0 227.0,208.0 226.0,207.0 226.0,205.0 225.0,204.0 225.0,203.0 224.0,202.0 224.0,200.0 223.0,199.0 223.0,195.0 225.0,193.0 227.0,193.0 232.0,190.0 232.0,188.0 231.0,187.0 231.0,186.0 229.0,184.0 227.0,184.0"/><polyline points="341.0,251.0 342.0,251.0 343.0,250.0 345.0,250.0 347.0,247.0 347.0,245.0 346.0,244.0 346.0,243.0 344.0,241.0 342.0,241.0 341.0,240.0 341.0,238.0"/><polyline points="361.0,251.0 356.0,254.0 354.0,254.0 352.0,256.0 352.0,257.0 353.0,258.0 353.0,260.0 354.0,261.0 354.0,263.0 355.0,264.0 355.0,265.0 357.0,268.0 357.0,270.0 359.0,273.0 359.0,274.0 357.0,276.0 357.0,277.0 356.0,278.0 352.0,278.0 351.0,279.0 349.0,279.0 346.0,281.0 344.0,281.0 343.0,282.0 341.0,282.0 338.0,284.0 336.0,284.0 333.0,286.0 331.0,286.0 330.0,287.0 328.0,287.0 327.0,288.0 326.0,288.0 325.0,289.0 323.0,289.0 322.0,290.0 317.0,290.0 316.0,289.0 316.0,288.0 315.0,287.0 315.0,285.0 313.0,282.0 313.0,279.0"/><polyline points="34.0,253.0 36.0,253.0 37.0,254.0 39.0,254.0 40.0,255.0 42.0,255.0 49.0,260.0 49.0,275.0 48.0,276.0 48.0,280.0 46.0,283.0 46.0,295.0 48.0,297.0 52.0,297.0 54.0,299.0 54.0,304.0 56.0,306.0 62.0,306.0"/><polyline points="452.0,254.0 452.0,251.0 457.0,248.0 457.0,242.0 456.0,241.0 456.0,239.0 454.0,236.0 454.0,234.0 452.0,231.0 452.0,229.0 450.0,226.0 450.0,224.0 448.0,221.0 448.0,219.0 447.0,218.0 447.0,216.0 446.0,215.0 446.0,214.0 445.0,213.0 445.0,211.0 443.0,208.0 443.0,206.0 442.0,205.0 442.0,203.0 440.0,200.0 440.0,198.0 438.0,195.0 438.0,193.0 439.0,192.0 439.0,189.0 440.0,188.0 442.0,188.0 443.0,187.0 443.0,185.0 444.0,184.0 444.0,182.0 443.0,181.0 443.0,179.0 442.0,178.0 442.0,176.0 441.0,175.0 441.0,174.0 440.0,173.0 440.0,171.0 438.0,168.0 439.0,167.0 439.0,168.0"/><polyline points="401.0,277.0 397.0,277.0 396.0,278.0 394.0,278.0 391.0,280.0 389.0,280.0 386.0,282.0 384.0,282.0 381.0,284.0 379.0,284.0 378.0,285.0 375.0,285.0 373.0,287.0 372.0,287.0 371.0,288.0 368.0,288.0 367.0,289.0 365.0,289.0 363.0,287.0 363.0,286.0 362.0,285.0 362.0,284.0 361.0,283.0 361.0,282.0 358.0,277.0 359.0,276.0 359.0,275.0"/><polyline points="283.0,284.0 281.0,284.0 278.0,286.0 276.0,286.0 273.0,288.0 271.0,288.0 268.0,290.0 266.0,290.0 265.0,291.0 264.0,291.0 263.0,292.0 261.0,292.0 260.0,293.0 257.0,288.0 257.0,286.0 256.0,285.0 256.0,283.0 254.0,280.0 254.0,278.0 252.0,275.0 252.0,273.0 251.0,272.0 251.0,270.0 249.0,267.0 249.0,265.0 248.0,264.0 248.0,262.0 246.0,259.0 246.0,257.0 245.0,256.0 245.0,251.0"/><polyline points="95.0,288.0 92.0,288.0 90.0,290.0 90.0,293.0 89.0,294.0 88.0,293.0 87.0,293.0 86.0,294.0 81.0,294.0 80.0,295.0 72.0,295.0 71.0,296.0 57.0,296.0 55.0,298.0"/><polyline points="311.0,303.0 311.0,301.0 310.0,300.0 310.0,295.0 311.0,294.0 312.0,294.0 316.0,290.0 315.0,290.0"/><polyline points="107.0,312.0 107.0,313.0 104.0,316.0 99.0,316.0 95.0,312.0 95.0,311.0 94.0,310.0 94.0,308.0 92.0,305.0 92.0,302.0 91.0,301.0 91.0,299.0 90.0,298.0 90.0,294.0"/><polyline points="123.0,364.0 119.0,364.0 117.0,362.0 117.0,360.0 115.0,357.0 115.0,355.0 113.0,353.0 113.0,352.0 112.0,351.0 112.0,350.0 111.0,349.0 111.0,348.0 110.0,347.0 110.0,346.0 109.0,345.0 109.0,344.0 108.0,343.0 108.0,342.0 107.0,341.0 107.0,340.0 106.0,339.0 105.0,336.0 103.0,334.0 102.0,334.0 101.0,333.0 101.0,329.0 100.0,328.0 100.0,325.0 99.0,324.0 99.0,317.0"/><polyline points="81.0,372.0 78.0,372.0 77.0,373.0 76.0,372.0 76.0,371.0 75.0,370.0 75.0,369.0 74.0,368.0 73.0,365.0 70.0,362.0 67.0,362.0 66.0,361.0 60.0,361.0 59.0,360.0 59.0,353.0 58.0,352.0 58.0,344.0 61.0,342.0 67.0,342.0 68.0,341.0 75.0,341.0 78.0,338.0 78.0,337.0 82.0,341.0 87.0,341.0 88.0,340.0 89.0,340.0 90.0,339.0 92.0,339.0 97.0,336.0 99.0,336.0 101.0,334.0 100.0,334.0"/><polyline points="41.0,392.0 41.0,395.0 38.0,398.0 37.0,398.0 36.0,399.0 34.0,399.0 33.0,400.0 33.0,402.0 32.0,403.0 32.0,404.0 31.0,405.0 31.0,406.0 30.0,407.0 29.0,410.0 27.0,412.0 27.0,413.0 26.0,414.0 26.0,416.0 25.0,417.0 24.0,417.0 22.0,419.0 21.0,419.0"/><polyline points="125.0,398.0 126.0,397.0 127.0,397.0 130.0,394.0 130.0,393.0 128.0,390.0 128.0,388.0 127.0,387.0 127.0,386.0 126.0,385.0 126.0,383.0 124.0,380.0 124.0,378.0 123.0,377.0 123.0,375.0 121.0,372.0 121.0,369.0 120.0,368.0 120.0,365.0"/><polyline points="661.0,524.0 698.0,524.0"/><polyline points="550.0,62.0 551.0,62.0 552.0,63.0 552.0,64.0"/><polyline points="611.0,87.0 612.0,88.0 611.0,89.0"/><polyline points="610.0,91.0 611.0,92.0 610.0,93.0"/><polyline points="609.0,95.0 610.0,96.0 609.0,97.0"/><polyline points="356.0,113.0 357.0,114.0 358.0,113.0"/><polyline points="677.0,120.0 676.0,121.0 675.0,121.0"/><polyline points="536.0,135.0 544.0,135.0 545.0,136.0 551.0,136.0 552.0,137.0 558.0,137.0 559.0,138.0 564.0,138.0 565.0,139.0 568.0,139.0 569.0,138.0"/><polyline points="533.0,136.0 535.0,136.0"/><polyline points="578.0,136.0 580.0,136.0 581.0,137.0 581.0,140.0"/><polyline points="530.0,137.0 532.0,137.0"/><polyline points="527.0,138.0 529.0,138.0"/><polyline points="524.0,139.0 526.0,139.0"/><polyline points="521.0,140.0 523.0,140.0"/><polyline points="518.0,141.0 520.0,141.0"/><polyline points="515.0,142.0 517.0,142.0"/><polyline points="512.0,143.0 514.0,143.0"/><polyline points="509.0,144.0 511.0,144.0"/><polyline points="400.0,145.0 399.0,148.0"/><polyline points="506.0,145.0 508.0,145.0"/><polyline points="505.0,146.0 505.0,147.0 503.0,150.0"/><polyline points="506.0,163.0 508.0,163.0 509.0,164.0 510.0,167.0 508.0,169.0 504.0,169.0"/><polyline points="270.0,175.0 283.0,175.0 284.0,176.0 287.0,176.0 288.0,177.0 288.0,179.0 290.0,181.0"/><polyline points="266.0,176.0 269.0,176.0"/><polyline points="263.0,177.0 265.0,177.0"/><polyline points="260.0,178.0 262.0,178.0"/><polyline points="259.0,179.0 257.0,181.0 257.0,182.0 256.0,183.0"/><polyline points="293.0,180.0 295.0,180.0"/><polyline points="461.0,181.0 464.0,181.0"/><polyline points="458.0,182.0 460.0,182.0"/><polyline points="455.0,183.0 457.0,183.0"/><polyline points="452.0,184.0 454.0,184.0"/><polyline points="444.0,185.0 451.0,185.0"/><polyline points="307.0,191.0 307.0,192.0 303.0,196.0 303.0,197.0"/><polyline points="413.0,192.0 415.0,192.0 417.0,194.0 417.0,195.0 414.0,198.0 411.0,198.0 409.0,200.0 408.0,200.0 407.0,199.0"/><polyline points="334.0,209.0 336.0,209.0 335.0,210.0"/><polyline points="333.0,210.0 332.0,211.0 333.0,211.0 334.0,212.0"/><polyline points="334.0,214.0 334.0,218.0 335.0,219.0 335.0,220.0 336.0,221.0 336.0,222.0 337.0,223.0 338.0,226.0 340.0,228.0 341.0,228.0"/><polyline points="89.0,237.0 95.0,237.0"/><polyline points="338.0,240.0 338.0,241.0 337.0,242.0 336.0,242.0 333.0,244.0 332.0,243.0"/><polyline points="346.0,250.0 349.0,251.0 350.0,252.0 350.0,253.0 351.0,254.0 352.0,254.0"/><polyline points="89.0,279.0 89.0,280.0 88.0,281.0 88.0,285.0 90.0,288.0"/><polyline points="376.0,286.0 375.0,287.0 374.0,287.0"/><polyline points="66.0,363.0 64.0,365.0 60.0,365.0 59.0,366.0 59.0,369.0 60.0,370.0 60.0,373.0 61.0,374.0 61.0,376.0 62.0,377.0 62.0,380.0 65.0,385.0 65.0,391.0 66.0,392.0 67.0,392.0 69.0,394.0 69.0,396.0 67.0,398.0 66.0,398.0 65.0,399.0 63.0,399.0 62.0,400.0 60.0,400.0 59.0,401.0 57.0,401.0 56.0,402.0 54.0,402.0 53.0,403.0 52.0,403.0 50.0,401.0 49.0,398.0 47.0,396.0 45.0,396.0 43.0,394.0 42.0,394.0"/></g><g data-id="blue" stroke="#ffffff" fill="none" stroke-width="1.4" stroke-linecap="round" stroke-linejoin="round"></g><g data-id="orange" stroke="#ffffff" fill="none" stroke-width="1.4" stroke-linecap="round" stroke-linejoin="round"></g></svg>