<?xml version="1.0" encoding="utf-8" ?>
<svg baseProfile="full" height="768" version="1.1" width="1024" xmlns="http://www.w3.org/2000/svg" xmlns:ev="http://www.w3.org/2001/xml-events" xmlns:xlink="http://www.w3.org/1999/xlink"><defs /><rect fill="none" height="768" width="1024" x="0" y="0" /><polyline fill="none" points="177.0,265.0 176.0,264.0 177.0,262.0 185.0,263.0 204.0,271.0 207.0,275.0 209.0,274.0 217.0,275.0 221.0,279.0 227.0,279.0 231.0,283.0 234.0,281.0 252.0,284.0 254.0,286.0 254.0,291.0 252.0,293.0" stroke="#000" stroke-linecap="round" stroke-linejoin="round" stroke-width="1.2" /><polyline fill="none" points="165.0,271.0 165.0,262.0 167.0,260.0 176.0,261.0" stroke="#000" stroke-linecap="round" stroke-linejoin="round" stroke-width="1.2" /><polyline fill="none" points="208.0,287.0 207.0,286.0 208.0,278.0 207.0,276.0" stroke="#000" stroke-linecap="round" stroke-linejoin="round" stroke-width="1.2" /><polyline fill="none" points="230.0,295.0 229.0,293.0 230.0,284.0" stroke="#000" stroke-linecap="round" stroke-linejoin="round" stroke-width="1.2" /><polyline fill="none" points="259.0,314.0 262.0,309.0 262.0,297.0 256.0,296.0 254.0,293.0" stroke="#000" stroke-linecap="round" stroke-linejoin="round" stroke-width="1.2" /><polyline fill="none" points="490.0,314.0 493.0,318.0 508.0,318.0 510.0,320.0 510.0,331.0 511.0,332.0 531.0,332.0 532.0,333.0 546.0,332.0 548.0,337.0 549.0,347.0 553.0,349.0" stroke="#000" stroke-linecap="round" stroke-linejoin="round" stroke-width="1.2" /><polyline fill="none" points="558.0,317.0 558.0,321.0 550.0,325.0 548.0,332.0" stroke="#000" stroke-linecap="round" stroke-linejoin="round" stroke-width="1.2" /><polyline fill="none" points="272.0,321.0 279.0,317.0 278.0,306.0 271.0,299.0 263.0,297.0" stroke="#000" stroke-linecap="round" stroke-linejoin="round" stroke-width="1.2" /><polyline fill="none" points="299.0,324.0 298.0,317.0 294.0,317.0 291.0,316.0 287.0,312.0 280.0,311.0" stroke="#000" stroke-linecap="round" stroke-linejoin="round" stroke-width="1.2" /><polyline fill="none" points="324.0,326.0 321.0,320.0 300.0,317.0" stroke="#000" stroke-linecap="round" stroke-linejoin="round" stroke-width="1.2" /><polyline fill="none" points="875.0,326.0 871.0,326.0 859.0,318.0 850.0,319.0 849.0,325.0 841.0,331.0 838.0,331.0 834.0,335.0 835.0,345.0 833.0,349.0" stroke="#000" stroke-linecap="round" stroke-linejoin="round" stroke-width="1.2" /><polyline fill="none" points="152.0,331.0 149.0,334.0 149.0,356.0 148.0,357.0 139.0,356.0 129.0,352.0 130.0,337.0" stroke="#000" stroke-linecap="round" stroke-linejoin="round" stroke-width="1.2" /><polyline fill="none" points="345.0,332.0 346.0,325.0 345.0,323.0 326.0,323.0 324.0,322.0" stroke="#000" stroke-linecap="round" stroke-linejoin="round" stroke-width="1.2" /><polyline fill="none" points="311.0,333.0 311.0,320.0" stroke="#000" stroke-linecap="round" stroke-linejoin="round" stroke-width="1.2" /><polyline fill="none" points="73.0,337.0 70.0,338.0 70.0,355.0 68.0,358.0 68.0,363.0 66.0,365.0 61.0,366.0 61.0,371.0" stroke="#000" stroke-linecap="round" stroke-linejoin="round" stroke-width="1.2" /><polyline fill="none" points="581.0,337.0 578.0,333.0 578.0,327.0 576.0,322.0 574.0,323.0 559.0,323.0 558.0,322.0" stroke="#000" stroke-linecap="round" stroke-linejoin="round" stroke-width="1.2" /><polyline fill="none" points="599.0,337.0 597.0,321.0 583.0,321.0 578.0,323.0" stroke="#000" stroke-linecap="round" stroke-linejoin="round" stroke-width="1.2" /><polyline fill="none" points="441.0,338.0 442.0,337.0 441.0,328.0 420.0,329.0 418.0,331.0 418.0,338.0 419.0,342.0 422.0,344.0" stroke="#000" stroke-linecap="round" stroke-linejoin="round" stroke-width="1.2" /><polyline fill="none" points="109.0,339.0 108.0,353.0 105.0,356.0 85.0,356.0 83.0,353.0 84.0,343.0" stroke="#000" stroke-linecap="round" stroke-linejoin="round" stroke-width="1.2" /><polyline fill="none" points="783.0,339.0 780.0,336.0 779.0,327.0 775.0,328.0 764.0,327.0 761.0,330.0 761.0,335.0 759.0,340.0" stroke="#000" stroke-linecap="round" stroke-linejoin="round" stroke-width="1.2" /><polyline fill="none" points="636.0,340.0 635.0,335.0 636.0,324.0 631.0,321.0 630.0,322.0 619.0,322.0 617.0,324.0 617.0,343.0" stroke="#000" stroke-linecap="round" stroke-linejoin="round" stroke-width="1.2" /><polyline fill="none" points="735.0,341.0 736.0,340.0 736.0,330.0 734.0,328.0 716.0,326.0 714.0,328.0 714.0,342.0 710.0,345.0" stroke="#000" stroke-linecap="round" stroke-linejoin="round" stroke-width="1.2" /><polyline fill="none" points="367.0,342.0 366.0,338.0 367.0,332.0 363.0,331.0 361.0,328.0 361.0,312.0 360.0,311.0 349.0,311.0 348.0,312.0 348.0,322.0 346.0,323.0" stroke="#000" stroke-linecap="round" stroke-linejoin="round" stroke-width="1.2" /><polyline fill="none" points="184.0,343.0 186.0,355.0 190.0,360.0 195.0,356.0 196.0,346.0" stroke="#000" stroke-linecap="round" stroke-linejoin="round" stroke-width="1.2" /><polyline fill="none" points="338.0,343.0 336.0,338.0 336.0,324.0" stroke="#000" stroke-linecap="round" stroke-linejoin="round" stroke-width="1.2" /><polyline fill="none" points="479.0,343.0 478.0,332.0 475.0,328.0 459.0,328.0 457.0,330.0 458.0,340.0 457.0,345.0" stroke="#000" stroke-linecap="round" stroke-linejoin="round" stroke-width="1.2" /><polyline fill="none" points="797.0,343.0 797.0,324.0 796.0,323.0 783.0,323.0 780.0,327.0" stroke="#000" stroke-linecap="round" stroke-linejoin="round" stroke-width="1.2" /><polyline fill="none" points="171.0,345.0 169.0,349.0 170.0,359.0 168.0,361.0 151.0,359.0 149.0,357.0" stroke="#000" stroke-linecap="round" stroke-linejoin="round" stroke-width="1.2" /><polyline fill="none" points="399.0,346.0 400.0,345.0 400.0,331.0 399.0,330.0 387.0,330.0 385.0,332.0 387.0,343.0 384.0,347.0" stroke="#000" stroke-linecap="round" stroke-linejoin="round" stroke-width="1.2" /><polyline fill="none" points="506.0,346.0 510.0,344.0 511.0,333.0" stroke="#000" stroke-linecap="round" stroke-linejoin="round" stroke-width="1.2" /><polyline fill="none" points="672.0,346.0 671.0,323.0 670.0,322.0 651.0,322.0 649.0,324.0 649.0,346.0 652.0,350.0 654.0,350.0" stroke="#000" stroke-linecap="round" stroke-linejoin="round" stroke-width="1.2" /><polyline fill="none" points="28.0,347.0 27.0,337.0 17.0,337.0 16.0,338.0 16.0,369.0" stroke="#000" stroke-linecap="round" stroke-linejoin="round" stroke-width="1.2" /><polyline fill="none" points="50.0,347.0 49.0,337.0 28.0,337.0" stroke="#000" stroke-linecap="round" stroke-linejoin="round" stroke-width="1.2" /><polyline fill="none" points="208.0,347.0 211.0,350.0 211.0,361.0 212.0,362.0 210.0,366.0 210.0,376.0 209.0,377.0 196.0,374.0 192.0,368.0 192.0,360.0" stroke="#000" stroke-linecap="round" stroke-linejoin="round" stroke-width="1.2" /><polyline fill="none" points="531.0,347.0 532.0,334.0" stroke="#000" stroke-linecap="round" stroke-linejoin="round" stroke-width="1.2" /><polyline fill="none" points="515.0,348.0 513.0,348.0 510.0,345.0" stroke="#000" stroke-linecap="round" stroke-linejoin="round" stroke-width="1.2" /><polyline fill="none" points="816.0,348.0 819.0,344.0 818.0,328.0 810.0,326.0 805.0,323.0 800.0,322.0 797.0,323.0" stroke="#000" stroke-linecap="round" stroke-linejoin="round" stroke-width="1.2" /><polyline fill="none" points="689.0,351.0 684.0,347.0 684.0,324.0 682.0,322.0 672.0,323.0" stroke="#000" stroke-linecap="round" stroke-linejoin="round" stroke-width="1.2" /><polyline fill="none" points="872.0,360.0 872.0,365.0 866.0,366.0 862.0,371.0 851.0,365.0 851.0,329.0 849.0,327.0" stroke="#000" stroke-linecap="round" stroke-linejoin="round" stroke-width="1.2" /><polyline fill="none" points="887.0,361.0 884.0,367.0 873.0,367.0 872.0,366.0" stroke="#000" stroke-linecap="round" stroke-linejoin="round" stroke-width="1.2" /><polyline fill="none" points="846.0,369.0 849.0,366.0 851.0,366.0" stroke="#000" stroke-linecap="round" stroke-linejoin="round" stroke-width="1.2" /><polyline fill="none" points="235.0,373.0 233.0,387.0 226.0,386.0 215.0,382.0 210.0,377.0" stroke="#000" stroke-linecap="round" stroke-linejoin="round" stroke-width="1.2" /><polyline fill="none" points="866.0,375.0 863.0,371.0" stroke="#000" stroke-linecap="round" stroke-linejoin="round" stroke-width="1.2" /><polyline fill="none" points="253.0,378.0 256.0,385.0 254.0,394.0 241.0,393.0 237.0,391.0 234.0,387.0" stroke="#000" stroke-linecap="round" stroke-linejoin="round" stroke-width="1.2" /><polyline fill="none" points="887.0,379.0 890.0,371.0 897.0,372.0 899.0,370.0 987.0,379.0 991.0,384.0 991.0,393.0 983.0,399.0" stroke="#000" stroke-linecap="round" stroke-linejoin="round" stroke-width="1.2" /><polyline fill="none" points="279.0,381.0 276.0,396.0 264.0,396.0 255.0,394.0" stroke="#000" stroke-linecap="round" stroke-linejoin="round" stroke-width="1.2" /><polyline fill="none" points="967.0,386.0 967.0,378.0" stroke="#000" stroke-linecap="round" stroke-linejoin="round" stroke-width="1.2" /><polyline fill="none" points="295.0,394.0 295.0,412.0 294.0,413.0 288.0,413.0 279.0,406.0 278.0,396.0" stroke="#000" stroke-linecap="round" stroke-linejoin="round" stroke-width="1.2" /><polyline fill="none" points="329.0,395.0 326.0,400.0 325.0,420.0 324.0,421.0 318.0,420.0 314.0,417.0 312.0,400.0" stroke="#000" stroke-linecap="round" stroke-linejoin="round" stroke-width="1.2" /><polyline fill="none" points="303.0,399.0 303.0,414.0 297.0,415.0 295.0,413.0" stroke="#000" stroke-linecap="round" stroke-linejoin="round" stroke-width="1.2" /><polyline fill="none" points="495.0,404.0 494.0,416.0 491.0,420.0 491.0,438.0 489.0,440.0 482.0,441.0 480.0,440.0 480.0,409.0" stroke="#000" stroke-linecap="round" stroke-linejoin="round" stroke-width="1.2" /><polyline fill="none" points="595.0,404.0 597.0,421.0 597.0,428.0 595.0,430.0 590.0,431.0 586.0,430.0 585.0,412.0 582.0,409.0" stroke="#000" stroke-linecap="round" stroke-linejoin="round" stroke-width="1.2" /><polyline fill="none" points="362.0,405.0 360.0,406.0 358.0,410.0 358.0,425.0 356.0,427.0 345.0,426.0 339.0,423.0 340.0,408.0" stroke="#000" stroke-linecap="round" stroke-linejoin="round" stroke-width="1.2" /><polyline fill="none" points="797.0,405.0 797.0,425.0 794.0,431.0 781.0,431.0 771.0,422.0 770.0,410.0" stroke="#000" stroke-linecap="round" stroke-linejoin="round" stroke-width="1.2" /><polyline fill="none" points="714.0,406.0 712.0,407.0 711.0,411.0 712.0,428.0 710.0,430.0 694.0,430.0 693.0,429.0 692.0,410.0 694.0,407.0" stroke="#000" stroke-linecap="round" stroke-linejoin="round" stroke-width="1.2" /><polyline fill="none" points="898.0,407.0 900.0,390.0 900.0,375.0 898.0,373.0" stroke="#000" stroke-linecap="round" stroke-linejoin="round" stroke-width="1.2" /><polyline fill="none" points="999.0,407.0 996.0,405.0 995.0,396.0 991.0,394.0" stroke="#000" stroke-linecap="round" stroke-linejoin="round" stroke-width="1.2" /><polyline fill="none" points="393.0,408.0 389.0,412.0 388.0,419.0 381.0,419.0 379.0,417.0 379.0,409.0" stroke="#000" stroke-linecap="round" stroke-linejoin="round" stroke-width="1.2" /><polyline fill="none" points="534.0,408.0 535.0,435.0 533.0,437.0 521.0,438.0 517.0,434.0 513.0,434.0 506.0,426.0" stroke="#000" stroke-linecap="round" stroke-linejoin="round" stroke-width="1.2" /><polyline fill="none" points="757.0,409.0 756.0,429.0 754.0,431.0 748.0,431.0 745.0,429.0 745.0,417.0 742.0,410.0" stroke="#000" stroke-linecap="round" stroke-linejoin="round" stroke-width="1.2" /><polyline fill="none" points="566.0,410.0 568.0,413.0 569.0,431.0 566.0,434.0 562.0,435.0 556.0,434.0 556.0,416.0 552.0,411.0" stroke="#000" stroke-linecap="round" stroke-linejoin="round" stroke-width="1.2" /><polyline fill="none" points="620.0,412.0 624.0,421.0 624.0,425.0 634.0,430.0 650.0,430.0 652.0,421.0 651.0,417.0" stroke="#000" stroke-linecap="round" stroke-linejoin="round" stroke-width="1.2" /><polyline fill="none" points="433.0,413.0 430.0,419.0 431.0,440.0 429.0,442.0 419.0,442.0 418.0,443.0 414.0,442.0 414.0,417.0" stroke="#000" stroke-linecap="round" stroke-linejoin="round" stroke-width="1.2" /><polyline fill="none" points="520.0,413.0 520.0,431.0 518.0,434.0" stroke="#000" stroke-linecap="round" stroke-linejoin="round" stroke-width="1.2" /><polyline fill="none" points="781.0,413.0 781.0,422.0 772.0,431.0 757.0,431.0 756.0,430.0" stroke="#000" stroke-linecap="round" stroke-linejoin="round" stroke-width="1.2" /><polyline fill="none" points="811.0,413.0 811.0,421.0 809.0,429.0 807.0,431.0 796.0,430.0" stroke="#000" stroke-linecap="round" stroke-linejoin="round" stroke-width="1.2" /><polyline fill="none" points="457.0,414.0 458.0,440.0 456.0,442.0 445.0,442.0 444.0,441.0 444.0,427.0" stroke="#000" stroke-linecap="round" stroke-linejoin="round" stroke-width="1.2" /><polyline fill="none" points="667.0,414.0 670.0,415.0 672.0,418.0 672.0,428.0 670.0,430.0 651.0,430.0" stroke="#000" stroke-linecap="round" stroke-linejoin="round" stroke-width="1.2" /><polyline fill="none" points="608.0,416.0 610.0,426.0 612.0,429.0 623.0,430.0 625.0,428.0" stroke="#000" stroke-linecap="round" stroke-linejoin="round" stroke-width="1.2" /><polyline fill="none" points="728.0,416.0 728.0,429.0 727.0,430.0 713.0,430.0 712.0,429.0" stroke="#000" stroke-linecap="round" stroke-linejoin="round" stroke-width="1.2" /><polyline fill="none" points="945.0,424.0 941.0,387.0 941.0,376.0" stroke="#000" stroke-linecap="round" stroke-linejoin="round" stroke-width="1.2" /><polyline fill="none" points="836.0,427.0 839.0,423.0 839.0,419.0 834.0,414.0 836.0,403.0 839.0,400.0 845.0,399.0 848.0,397.0 856.0,388.0 857.0,377.0 860.0,371.0" stroke="#000" stroke-linecap="round" stroke-linejoin="round" stroke-width="1.2" /><polyline fill="none" points="819.0,429.0 818.0,426.0 810.0,426.0" stroke="#000" stroke-linecap="round" stroke-linejoin="round" stroke-width="1.2" /><polyline fill="none" points="867.0,433.0 860.0,436.0 846.0,425.0 840.0,423.0" stroke="#000" stroke-linecap="round" stroke-linejoin="round" stroke-width="1.2" /><polyline fill="none" points="749.0,436.0 750.0,434.0 749.0,432.0" stroke="#000" stroke-linecap="round" stroke-linejoin="round" stroke-width="1.2" /><polyline fill="none" points="497.0,465.0 500.0,465.0 502.0,461.0 501.0,441.0 491.0,439.0" stroke="#000" stroke-linecap="round" stroke-linejoin="round" stroke-width="1.2" /><polyline fill="none" points="929.0,486.0 881.0,486.0 880.0,487.0" stroke="#000" stroke-linecap="round" stroke-linejoin="round" stroke-width="1.2" /><polyline fill="none" points="880.0,503.0 928.0,503.0" stroke="#000" stroke-linecap="round" stroke-linejoin="round" stroke-width="1.2" /><polyline fill="none" points="490.0,317.0 485.0,323.0 477.0,329.0" stroke="#000" stroke-linecap="round" stroke-linejoin="round" stroke-width="1.2" /><polyline fill="none" points="600.0,321.0 613.0,321.0 617.0,323.0" stroke="#000" stroke-linecap="round" stroke-linejoin="round" stroke-width="1.2" /><polyline fill="none" points="637.0,322.0 648.0,322.0 649.0,323.0" stroke="#000" stroke-linecap="round" stroke-linejoin="round" stroke-width="1.2" /><polyline fill="none" points="684.0,323.0 706.0,324.0 712.0,325.0 714.0,327.0" stroke="#000" stroke-linecap="round" stroke-linejoin="round" stroke-width="1.2" /><polyline fill="none" points="444.0,326.0 455.0,326.0 457.0,329.0" stroke="#000" stroke-linecap="round" stroke-linejoin="round" stroke-width="1.2" /><polyline fill="none" points="740.0,328.0 760.0,328.0 761.0,329.0" stroke="#000" stroke-linecap="round" stroke-linejoin="round" stroke-width="1.2" /><polyline fill="none" points="414.0,329.0 418.0,330.0" stroke="#000" stroke-linecap="round" stroke-linejoin="round" stroke-width="1.2" /><polyline fill="none" points="400.0,330.0 413.0,330.0" stroke="#000" stroke-linecap="round" stroke-linejoin="round" stroke-width="1.2" /><polyline fill="none" points="367.0,331.0 385.0,331.0" stroke="#000" stroke-linecap="round" stroke-linejoin="round" stroke-width="1.2" /><polyline fill="none" points="820.0,334.0 833.0,334.0" stroke="#000" stroke-linecap="round" stroke-linejoin="round" stroke-width="1.2" /><polyline fill="none" points="50.0,337.0 69.0,337.0" stroke="#000" stroke-linecap="round" stroke-linejoin="round" stroke-width="1.2" /><polyline fill="none" points="128.0,352.0 121.0,353.0 118.0,355.0 108.0,354.0" stroke="#000" stroke-linecap="round" stroke-linejoin="round" stroke-width="1.2" /><polyline fill="none" points="71.0,355.0 72.0,356.0 82.0,356.0 83.0,355.0" stroke="#000" stroke-linecap="round" stroke-linejoin="round" stroke-width="1.2" /><polyline fill="none" points="170.0,360.0 178.0,363.0 186.0,363.0 189.0,360.0" stroke="#000" stroke-linecap="round" stroke-linejoin="round" stroke-width="1.2" /><polyline fill="none" points="885.0,367.0 889.0,370.0" stroke="#000" stroke-linecap="round" stroke-linejoin="round" stroke-width="1.2" /><polyline fill="none" points="303.0,415.0 308.0,417.0 313.0,417.0" stroke="#000" stroke-linecap="round" stroke-linejoin="round" stroke-width="1.2" /><polyline fill="none" points="826.0,416.0 819.0,422.0 819.0,425.0" stroke="#000" stroke-linecap="round" stroke-linejoin="round" stroke-width="1.2" /><polyline fill="none" points="381.0,420.0 382.0,445.0 380.0,447.0 360.0,446.0 358.0,426.0" stroke="#000" stroke-linecap="round" stroke-linejoin="round" stroke-width="1.2" /><polyline fill="none" points="389.0,420.0 392.0,424.0 392.0,443.0 390.0,446.0 382.0,446.0" stroke="#000" stroke-linecap="round" stroke-linejoin="round" stroke-width="1.2" /><polyline fill="none" points="326.0,421.0 329.0,423.0 338.0,424.0" stroke="#000" stroke-linecap="round" stroke-linejoin="round" stroke-width="1.2" /><polyline fill="none" points="610.0,428.0 602.0,430.0 597.0,429.0" stroke="#000" stroke-linecap="round" stroke-linejoin="round" stroke-width="1.2" /><polyline fill="none" points="672.0,429.0 673.0,430.0 691.0,430.0 692.0,429.0" stroke="#000" stroke-linecap="round" stroke-linejoin="round" stroke-width="1.2" /><polyline fill="none" points="729.0,429.0 730.0,430.0 745.0,430.0" stroke="#000" stroke-linecap="round" stroke-linejoin="round" stroke-width="1.2" /><polyline fill="none" points="585.0,430.0 583.0,432.0 577.0,433.0 569.0,432.0" stroke="#000" stroke-linecap="round" stroke-linejoin="round" stroke-width="1.2" /><polyline fill="none" points="555.0,434.0 553.0,436.0 541.0,436.0 540.0,437.0 535.0,436.0" stroke="#000" stroke-linecap="round" stroke-linejoin="round" stroke-width="1.2" /><polyline fill="none" points="512.0,435.0 509.0,439.0 504.0,439.0 502.0,441.0" stroke="#000" stroke-linecap="round" stroke-linejoin="round" stroke-width="1.2" /><polyline fill="none" points="431.0,441.0 432.0,442.0 444.0,442.0" stroke="#000" stroke-linecap="round" stroke-linejoin="round" stroke-width="1.2" /><polyline fill="none" points="458.0,441.0 459.0,442.0 480.0,441.0" stroke="#000" stroke-linecap="round" stroke-linejoin="round" stroke-width="1.2" /><polyline fill="none" points="409.0,443.0 414.0,443.0" stroke="#000" stroke-linecap="round" stroke-linejoin="round" stroke-width="1.2" /><polyline fill="none" points="392.0,444.0 393.0,445.0 408.0,444.0" stroke="#000" stroke-linecap="round" stroke-linejoin="round" stroke-width="1.2" /></svg>