<?xml version="1.0" encoding="utf-8" ?>
<svg baseProfile="full" width="1024" height="768" xmlns="http://www.w3.org/2000/svg"><g data-id="red" stroke="#e74c3c" fill="none" stroke-width="1.4" stroke-linecap="round" stroke-linejoin="round"><polyline points="66.0,116.0 67.0,117.0 67.0,119.0 68.0,120.0 68.0,124.0 67.0,125.0 67.0,127.0 66.0,128.0 66.0,129.0 63.0,134.0 63.0,136.0 62.0,137.0 62.0,138.0 61.0,139.0 61.0,140.0 58.0,145.0 58.0,147.0 56.0,150.0 56.0,154.0 54.0,156.0 53.0,156.0 50.0,158.0 48.0,158.0 48.0,160.0 47.0,161.0 47.0,163.0 48.0,164.0 48.0,167.0 49.0,168.0 49.0,170.0 50.0,171.0 50.0,173.0 51.0,174.0 51.0,177.0 52.0,178.0 52.0,180.0 51.0,181.0 51.0,183.0 50.0,184.0 50.0,185.0 51.0,186.0 53.0,186.0 56.0,189.0 56.0,190.0 57.0,191.0 60.0,191.0 61.0,190.0 65.0,190.0 66.0,189.0 73.0,189.0 75.0,187.0 77.0,187.0 78.0,186.0 82.0,186.0 83.0,185.0 88.0,185.0 89.0,184.0 94.0,184.0 95.0,185.0 95.0,187.0 96.0,188.0 96.0,191.0 97.0,192.0 97.0,194.0 98.0,195.0 98.0,198.0 99.0,199.0 99.0,201.0 100.0,202.0 100.0,210.0 101.0,211.0 101.0,213.0"/><polyline points="46.0,131.0 44.0,134.0 44.0,140.0 45.0,141.0 45.0,143.0 46.0,144.0 46.0,146.0 47.0,147.0 47.0,149.0 48.0,150.0 48.0,153.0 49.0,154.0 49.0,157.0"/><polyline points="67.0,156.0 58.0,156.0 57.0,155.0 56.0,155.0"/><polyline points="88.0,189.0 87.0,188.0 87.0,186.0"/><polyline points="73.0,193.0 73.0,190.0"/><polyline points="34.0,202.0 35.0,202.0 36.0,201.0 39.0,201.0 40.0,200.0 43.0,200.0 44.0,199.0 50.0,199.0 51.0,198.0 55.0,198.0 56.0,197.0 56.0,192.0"/><polyline points="82.0,222.0 81.0,222.0 80.0,223.0 75.0,223.0 74.0,224.0 68.0,224.0 67.0,223.0 65.0,223.0 63.0,221.0 62.0,221.0 61.0,220.0 61.0,218.0 62.0,217.0 62.0,211.0 61.0,210.0 61.0,208.0 60.0,207.0 60.0,204.0 59.0,203.0 59.0,201.0 56.0,198.0"/><polyline points="46.0,223.0 47.0,222.0 51.0,222.0 52.0,221.0 57.0,221.0 58.0,220.0 60.0,220.0"/><polyline points="771.0,228.0 771.0,226.0 770.0,225.0 770.0,223.0 769.0,222.0 769.0,220.0 768.0,219.0 768.0,218.0 767.0,217.0 761.0,217.0 760.0,218.0 756.0,218.0 753.0,221.0 753.0,222.0 754.0,223.0 754.0,227.0 756.0,230.0"/><polyline points="721.0,233.0 722.0,232.0 722.0,227.0 721.0,226.0 718.0,226.0 717.0,227.0 713.0,227.0 712.0,228.0 708.0,228.0 707.0,229.0 704.0,229.0 703.0,230.0 699.0,230.0 698.0,231.0 695.0,231.0 694.0,232.0 690.0,232.0 689.0,233.0 686.0,233.0 685.0,234.0 682.0,234.0 680.0,236.0 673.0,236.0 672.0,237.0 668.0,237.0 667.0,238.0 663.0,238.0 662.0,239.0 659.0,239.0 656.0,242.0 655.0,241.0 651.0,241.0 650.0,242.0 648.0,242.0 647.0,243.0 645.0,243.0 641.0,239.0 641.0,236.0"/><polyline points="731.0,240.0 727.0,240.0 725.0,238.0 725.0,236.0 723.0,233.0"/><polyline points="77.0,245.0 73.0,245.0 72.0,244.0 72.0,243.0 70.0,241.0 70.0,239.0 69.0,238.0 69.0,236.0 68.0,235.0 68.0,232.0 67.0,231.0 67.0,226.0 68.0,225.0"/><polyline points="688.0,247.0 687.0,247.0 686.0,246.0 684.0,246.0 682.0,244.0 682.0,243.0 681.0,242.0 681.0,240.0 680.0,239.0 680.0,237.0"/><polyline points="661.0,248.0 660.0,248.0 657.0,245.0 657.0,242.0"/><polyline points="626.0,256.0 625.0,255.0 625.0,253.0 624.0,252.0 624.0,250.0 622.0,248.0 617.0,248.0 616.0,249.0 614.0,249.0 613.0,250.0 610.0,250.0 609.0,251.0 606.0,251.0 605.0,252.0 604.0,252.0 602.0,254.0 596.0,254.0 595.0,255.0 594.0,255.0 593.0,256.0 593.0,257.0 590.0,260.0 584.0,260.0 581.0,257.0 581.0,255.0 580.0,254.0 580.0,252.0 579.0,251.0 579.0,249.0 576.0,246.0 575.0,246.0 574.0,247.0 568.0,247.0 567.0,248.0 561.0,248.0 560.0,249.0 554.0,249.0 553.0,250.0 548.0,250.0 547.0,251.0 544.0,251.0 543.0,252.0 539.0,252.0 538.0,253.0 534.0,253.0 533.0,254.0 529.0,254.0 528.0,255.0 524.0,255.0 523.0,256.0 519.0,256.0 518.0,257.0 514.0,257.0 513.0,258.0 509.0,258.0 508.0,259.0 504.0,259.0 503.0,260.0 499.0,260.0 498.0,261.0 494.0,261.0 493.0,262.0 489.0,262.0 488.0,263.0 484.0,263.0 483.0,264.0 479.0,264.0 478.0,265.0 474.0,265.0 473.0,266.0 469.0,266.0 468.0,267.0 464.0,267.0 463.0,268.0 459.0,268.0 458.0,269.0 454.0,269.0 453.0,270.0 449.0,270.0 448.0,271.0 444.0,271.0 443.0,272.0 439.0,272.0 438.0,273.0 434.0,273.0 433.0,274.0 429.0,274.0 428.0,275.0 424.0,275.0 423.0,276.0 419.0,276.0 418.0,277.0 415.0,277.0 414.0,278.0 407.0,278.0 406.0,277.0 406.0,275.0 405.0,274.0 405.0,272.0 404.0,271.0 404.0,268.0 403.0,267.0 403.0,265.0 402.0,264.0 398.0,264.0 397.0,265.0"/><polyline points="603.0,258.0 602.0,257.0 602.0,255.0"/><polyline points="592.0,261.0 592.0,259.0"/><polyline points="368.0,267.0 367.0,268.0 367.0,269.0 366.0,270.0 366.0,272.0 365.0,273.0 365.0,274.0 366.0,275.0 366.0,277.0 367.0,278.0 367.0,280.0 368.0,281.0 368.0,284.0 367.0,285.0 367.0,286.0 365.0,288.0 363.0,288.0 362.0,289.0 354.0,289.0 353.0,288.0 353.0,285.0 352.0,284.0 352.0,281.0"/><polyline points="328.0,280.0 329.0,281.0 329.0,284.0 330.0,285.0 330.0,287.0 331.0,288.0 331.0,290.0 332.0,291.0 332.0,292.0 328.0,296.0 326.0,296.0 324.0,298.0 324.0,301.0"/><polyline points="405.0,287.0 404.0,286.0 404.0,285.0 402.0,283.0 401.0,283.0 398.0,281.0 397.0,281.0 396.0,282.0 391.0,282.0 390.0,283.0 387.0,283.0 384.0,286.0 383.0,285.0 378.0,285.0 377.0,286.0 371.0,286.0 370.0,285.0 368.0,285.0"/><polyline points="65.0,289.0 66.0,288.0 68.0,288.0 69.0,287.0 72.0,287.0 73.0,286.0 78.0,286.0 81.0,284.0 81.0,277.0 80.0,276.0 80.0,274.0 79.0,273.0 79.0,270.0 78.0,269.0 78.0,266.0 77.0,265.0 77.0,263.0 76.0,262.0 76.0,259.0 75.0,258.0 75.0,256.0 74.0,255.0 74.0,252.0 73.0,251.0 73.0,248.0 72.0,247.0 72.0,246.0"/><polyline points="303.0,291.0 304.0,292.0 304.0,294.0 305.0,295.0 305.0,301.0 304.0,302.0 295.0,302.0 293.0,300.0 293.0,299.0"/><polyline points="278.0,292.0 279.0,291.0 282.0,291.0 284.0,293.0 284.0,294.0 285.0,295.0 285.0,297.0 286.0,298.0 286.0,300.0 287.0,301.0 287.0,304.0 286.0,305.0 283.0,305.0 282.0,306.0 280.0,306.0 278.0,308.0 278.0,311.0 279.0,312.0 279.0,314.0 280.0,315.0 280.0,317.0 281.0,318.0"/><polyline points="356.0,298.0 355.0,297.0 355.0,296.0 352.0,291.0 349.0,291.0 348.0,292.0 343.0,292.0 342.0,293.0 338.0,293.0 337.0,294.0 334.0,294.0 333.0,293.0 332.0,293.0"/><polyline points="391.0,299.0 390.0,298.0 390.0,297.0 387.0,292.0 387.0,290.0 385.0,288.0 385.0,286.0"/><polyline points="218.0,303.0 216.0,305.0 216.0,306.0 215.0,307.0 215.0,311.0 216.0,312.0 216.0,316.0 215.0,317.0 215.0,318.0 213.0,320.0 211.0,320.0 210.0,321.0 209.0,321.0 207.0,323.0 207.0,326.0 208.0,327.0 208.0,329.0 209.0,330.0 209.0,333.0 210.0,334.0 210.0,336.0"/><polyline points="233.0,303.0 233.0,306.0 235.0,309.0 235.0,312.0 234.0,313.0 234.0,314.0 232.0,316.0 231.0,316.0 230.0,317.0 226.0,317.0 223.0,320.0 223.0,322.0 225.0,325.0"/><polyline points="197.0,314.0 197.0,316.0 198.0,317.0 198.0,320.0 194.0,324.0 190.0,324.0 189.0,325.0 184.0,325.0 183.0,326.0 179.0,326.0 177.0,324.0 176.0,321.0"/><polyline points="308.0,315.0 308.0,313.0 306.0,310.0 306.0,308.0 304.0,305.0 304.0,303.0"/><polyline points="292.0,317.0 289.0,312.0 289.0,310.0 287.0,308.0 287.0,305.0"/><polyline points="141.0,318.0 139.0,321.0 139.0,325.0 140.0,326.0 140.0,328.0 141.0,329.0 141.0,332.0 140.0,333.0 140.0,334.0 136.0,338.0 137.0,341.0 139.0,343.0"/><polyline points="160.0,321.0 160.0,323.0 161.0,324.0 161.0,326.0 162.0,327.0 162.0,330.0 161.0,331.0 159.0,331.0 158.0,332.0 156.0,332.0 154.0,334.0 154.0,336.0 156.0,339.0"/><polyline points="265.0,322.0 265.0,321.0 264.0,320.0 264.0,318.0 263.0,317.0 263.0,315.0 262.0,314.0 262.0,312.0 261.0,311.0 254.0,311.0 253.0,312.0 250.0,312.0 249.0,313.0 247.0,313.0 245.0,315.0 242.0,315.0 241.0,314.0 238.0,314.0 237.0,313.0 235.0,313.0"/><polyline points="249.0,327.0 247.0,324.0 247.0,321.0 245.0,318.0 245.0,316.0"/><polyline points="88.0,335.0 89.0,334.0 94.0,334.0 95.0,333.0 95.0,327.0 94.0,326.0 94.0,323.0 93.0,322.0 93.0,319.0 92.0,318.0 92.0,315.0 91.0,314.0 91.0,312.0 90.0,311.0 90.0,308.0 89.0,307.0 89.0,304.0 88.0,303.0 88.0,300.0 87.0,299.0 87.0,297.0 86.0,296.0 86.0,293.0 85.0,292.0 85.0,289.0 84.0,288.0 84.0,287.0 81.0,285.0"/><polyline points="164.0,337.0 164.0,336.0 162.0,333.0 162.0,331.0"/><polyline points="125.0,343.0 123.0,340.0 118.0,340.0 117.0,341.0 114.0,341.0 113.0,342.0 112.0,342.0 110.0,344.0 110.0,346.0 111.0,347.0"/><polyline points="539.0,361.0 544.0,361.0 546.0,363.0 546.0,367.0 547.0,368.0 547.0,375.0 546.0,376.0 535.0,376.0 530.0,379.0 529.0,378.0"/><polyline points="898.0,656.0 935.0,656.0"/><polyline points="746.0,220.0 752.0,220.0"/><polyline points="741.0,221.0 745.0,221.0"/><polyline points="737.0,222.0 740.0,222.0"/><polyline points="732.0,223.0 736.0,223.0"/><polyline points="727.0,224.0 731.0,224.0"/><polyline points="724.0,225.0 726.0,225.0"/><polyline points="640.0,242.0 638.0,244.0 634.0,244.0 633.0,245.0 630.0,245.0 629.0,246.0 626.0,246.0 624.0,248.0 624.0,249.0"/><polyline points="584.0,261.0 584.0,262.0 581.0,265.0 581.0,266.0 573.0,274.0 573.0,275.0 565.0,283.0 565.0,284.0 559.0,290.0 559.0,291.0 558.0,292.0 558.0,293.0 557.0,294.0 557.0,295.0 556.0,296.0 556.0,297.0 555.0,298.0 555.0,299.0 554.0,300.0 554.0,301.0 553.0,302.0 553.0,303.0 550.0,308.0 550.0,316.0 551.0,317.0 551.0,322.0 552.0,323.0 552.0,328.0 553.0,329.0 553.0,334.0 554.0,335.0 554.0,340.0 555.0,341.0 555.0,346.0 556.0,347.0 556.0,352.0 557.0,353.0 557.0,356.0 558.0,357.0 558.0,359.0 559.0,360.0 559.0,365.0 560.0,366.0 560.0,374.0 558.0,376.0 556.0,376.0 555.0,375.0 551.0,375.0 550.0,376.0 547.0,376.0"/><polyline points="405.0,278.0 406.0,278.0 404.0,280.0 404.0,282.0 403.0,283.0"/><polyline points="320.0,297.0 324.0,297.0"/><polyline points="314.0,298.0 319.0,298.0"/><polyline points="306.0,299.0 313.0,299.0"/><polyline points="293.0,301.0 291.0,303.0 288.0,303.0"/><polyline points="275.0,307.0 278.0,307.0"/><polyline points="269.0,308.0 274.0,308.0"/><polyline points="265.0,309.0 268.0,309.0"/><polyline points="264.0,310.0 263.0,311.0 262.0,311.0"/><polyline points="216.0,317.0 218.0,317.0 220.0,319.0 223.0,319.0"/><polyline points="198.0,321.0 199.0,321.0 200.0,322.0 207.0,322.0"/><polyline points="175.0,326.0 174.0,327.0 172.0,327.0 171.0,328.0 168.0,328.0 167.0,329.0 163.0,329.0"/><polyline points="141.0,333.0 143.0,333.0 144.0,334.0 147.0,334.0 148.0,333.0 154.0,333.0"/><polyline points="95.0,334.0 97.0,336.0 97.0,337.0 98.0,338.0 98.0,341.0 100.0,344.0 106.0,344.0 107.0,343.0 110.0,343.0"/><polyline points="132.0,337.0 136.0,337.0"/><polyline points="127.0,338.0 131.0,338.0"/><polyline points="126.0,339.0 125.0,340.0 124.0,340.0"/></g><g data-id="green" stroke="#2ecc71" fill="none" stroke-width="1.4" stroke-linecap="round" stroke-linejoin="round"><polyline points="808.0,297.0 808.0,298.0 809.0,299.0 809.0,301.0 810.0,302.0 810.0,305.0 811.0,306.0 811.0,309.0 810.0,310.0 806.0,310.0 805.0,311.0 802.0,311.0 801.0,312.0 798.0,312.0 795.0,314.0 790.0,314.0 789.0,315.0 786.0,315.0 785.0,316.0 782.0,316.0 781.0,317.0 778.0,317.0 776.0,319.0 773.0,319.0 770.0,321.0 768.0,321.0 767.0,322.0 766.0,322.0 765.0,323.0 764.0,323.0 763.0,324.0 762.0,324.0 761.0,325.0 760.0,325.0 759.0,326.0 758.0,326.0 753.0,329.0 751.0,329.0 750.0,330.0 749.0,330.0 748.0,331.0 747.0,331.0 746.0,332.0 745.0,332.0 744.0,333.0 743.0,333.0 742.0,334.0 741.0,334.0 740.0,335.0 737.0,336.0 735.0,338.0 732.0,339.0 729.0,342.0 728.0,342.0 727.0,343.0 724.0,343.0 723.0,344.0 720.0,345.0 718.0,347.0 717.0,347.0 714.0,350.0 711.0,350.0 710.0,351.0 709.0,351.0 708.0,352.0 707.0,352.0 702.0,355.0 699.0,355.0 698.0,354.0 698.0,353.0 697.0,352.0 697.0,351.0 696.0,350.0 696.0,349.0 695.0,348.0 694.0,345.0 691.0,342.0 687.0,342.0 686.0,343.0 685.0,343.0"/><polyline points="836.0,313.0 834.0,313.0 833.0,314.0 831.0,314.0 829.0,316.0 829.0,317.0 830.0,318.0 830.0,321.0 833.0,326.0 833.0,328.0 835.0,330.0 838.0,330.0 839.0,329.0 841.0,329.0"/><polyline points="797.0,321.0 797.0,320.0 796.0,319.0 796.0,316.0 795.0,315.0"/><polyline points="782.0,331.0 782.0,330.0 781.0,329.0 781.0,328.0 780.0,327.0 780.0,326.0 777.0,321.0 777.0,319.0"/><polyline points="732.0,348.0 732.0,347.0 730.0,345.0 730.0,343.0"/><polyline points="718.0,355.0 718.0,354.0 715.0,351.0 715.0,350.0"/><polyline points="878.0,373.0 878.0,375.0 879.0,376.0 879.0,379.0 880.0,380.0 880.0,382.0 881.0,383.0 881.0,385.0 882.0,386.0 882.0,389.0 883.0,390.0 883.0,392.0 884.0,393.0 884.0,395.0 885.0,396.0 885.0,399.0 886.0,400.0 886.0,401.0 884.0,403.0 881.0,403.0 880.0,404.0 876.0,404.0 875.0,405.0 871.0,405.0 870.0,406.0 867.0,406.0 866.0,407.0 864.0,407.0 863.0,406.0 863.0,404.0 862.0,403.0 862.0,401.0 861.0,400.0 861.0,398.0 860.0,397.0 860.0,395.0 859.0,394.0 859.0,392.0 858.0,391.0 858.0,389.0 856.0,386.0 856.0,384.0 855.0,383.0 855.0,381.0 854.0,380.0 854.0,378.0 853.0,377.0 853.0,375.0 852.0,374.0 852.0,372.0 851.0,371.0 851.0,369.0 850.0,368.0 850.0,366.0 848.0,363.0 848.0,361.0 845.0,356.0 845.0,354.0 842.0,349.0 842.0,347.0 839.0,342.0 839.0,340.0 836.0,335.0 836.0,332.0 835.0,331.0"/><polyline points="542.0,380.0 543.0,379.0 547.0,379.0 550.0,382.0 550.0,383.0 549.0,384.0 549.0,391.0 555.0,397.0 555.0,401.0 554.0,402.0 554.0,403.0 552.0,405.0 551.0,405.0 549.0,407.0 548.0,407.0 546.0,409.0 545.0,409.0 540.0,413.0 538.0,413.0 537.0,414.0 535.0,414.0 534.0,415.0 532.0,415.0 531.0,416.0 529.0,416.0 528.0,417.0 525.0,417.0 524.0,418.0 522.0,418.0 521.0,419.0 519.0,419.0 518.0,420.0 516.0,420.0 515.0,421.0 512.0,421.0 511.0,422.0 509.0,422.0 508.0,423.0 506.0,423.0 505.0,424.0 502.0,424.0 501.0,425.0 499.0,425.0 498.0,426.0 496.0,426.0 495.0,427.0 493.0,427.0 492.0,428.0 489.0,428.0 488.0,429.0 486.0,429.0 485.0,430.0 483.0,430.0 482.0,431.0 480.0,431.0 479.0,432.0 476.0,432.0 475.0,433.0 473.0,433.0 472.0,434.0 470.0,434.0 469.0,435.0 466.0,435.0 465.0,436.0 463.0,436.0 462.0,437.0 460.0,437.0 459.0,438.0 457.0,438.0 456.0,439.0 454.0,439.0 453.0,440.0 450.0,440.0 449.0,441.0 447.0,441.0 446.0,442.0 444.0,442.0 443.0,443.0 441.0,443.0 440.0,444.0 437.0,444.0 436.0,445.0 434.0,445.0 433.0,446.0 431.0,446.0 430.0,447.0 426.0,447.0 425.0,448.0 422.0,448.0 421.0,449.0 417.0,449.0 416.0,450.0 412.0,450.0 411.0,451.0 408.0,451.0 407.0,452.0 403.0,452.0 402.0,453.0 398.0,453.0 397.0,454.0 394.0,454.0 393.0,455.0 389.0,455.0 388.0,456.0 381.0,456.0 380.0,457.0 373.0,457.0 372.0,458.0 365.0,458.0 364.0,459.0 355.0,459.0 354.0,460.0 342.0,460.0 341.0,461.0 330.0,461.0 329.0,462.0 318.0,462.0 317.0,463.0 306.0,463.0 305.0,464.0 293.0,464.0 292.0,465.0 285.0,465.0 284.0,466.0 278.0,466.0 277.0,467.0 271.0,467.0 270.0,468.0 264.0,468.0 263.0,469.0 257.0,469.0 256.0,470.0 250.0,470.0 249.0,471.0 243.0,471.0 242.0,472.0 236.0,472.0 235.0,473.0 229.0,473.0 228.0,474.0 226.0,474.0 223.0,471.0 216.0,471.0 215.0,472.0 210.0,472.0 209.0,473.0 203.0,473.0 202.0,474.0 197.0,474.0 196.0,475.0 190.0,475.0 189.0,476.0 184.0,476.0 183.0,477.0 177.0,477.0 176.0,478.0 169.0,478.0 166.0,476.0 158.0,476.0 157.0,477.0 152.0,477.0 151.0,478.0 146.0,478.0 145.0,479.0 139.0,479.0 138.0,480.0 133.0,480.0 132.0,481.0 128.0,481.0 126.0,483.0 126.0,486.0 127.0,487.0"/><polyline points="920.0,390.0 920.0,393.0 918.0,395.0 916.0,395.0 913.0,397.0 908.0,397.0 907.0,398.0 903.0,398.0 902.0,399.0 899.0,399.0 898.0,400.0 894.0,400.0 893.0,401.0 890.0,401.0 889.0,402.0 886.0,402.0"/><polyline points="721.0,397.0 720.0,398.0 719.0,398.0 717.0,400.0 717.0,403.0 718.0,404.0 718.0,405.0 719.0,406.0 720.0,409.0 722.0,411.0 722.0,412.0 723.0,413.0 723.0,415.0 724.0,416.0 724.0,418.0 725.0,419.0 725.0,420.0 726.0,421.0 726.0,422.0 727.0,423.0 727.0,424.0 728.0,425.0 728.0,426.0 729.0,427.0 729.0,428.0 730.0,429.0 730.0,430.0 731.0,431.0 731.0,432.0 732.0,433.0 732.0,434.0 735.0,439.0 735.0,441.0 736.0,442.0 736.0,443.0 737.0,444.0 737.0,445.0 740.0,450.0 740.0,454.0 738.0,456.0 736.0,456.0 734.0,458.0 733.0,458.0 730.0,461.0 729.0,461.0 724.0,466.0 721.0,466.0 719.0,464.0"/><polyline points="842.0,400.0 842.0,401.0 844.0,404.0 844.0,406.0 845.0,407.0 845.0,410.0 843.0,412.0 841.0,412.0 839.0,414.0 835.0,414.0 834.0,413.0 834.0,411.0 833.0,410.0 832.0,407.0"/><polyline points="786.0,404.0 786.0,405.0 787.0,406.0 787.0,407.0 788.0,408.0 788.0,409.0 789.0,410.0 789.0,411.0 790.0,412.0 790.0,413.0 791.0,414.0 791.0,415.0 792.0,416.0 792.0,417.0 793.0,418.0 793.0,419.0 796.0,424.0 796.0,426.0 795.0,427.0 793.0,427.0 791.0,429.0 786.0,429.0 785.0,428.0 785.0,426.0 784.0,425.0 784.0,424.0 783.0,423.0 783.0,422.0 782.0,421.0 781.0,418.0"/><polyline points="725.0,408.0 723.0,410.0 722.0,410.0"/><polyline points="801.0,410.0 801.0,411.0 803.0,414.0 803.0,416.0 805.0,419.0 805.0,423.0 804.0,424.0 801.0,424.0 800.0,425.0 798.0,425.0 797.0,426.0"/><polyline points="842.0,423.0 842.0,422.0 839.0,417.0 839.0,415.0"/><polyline points="769.0,425.0 769.0,426.0 770.0,427.0 770.0,428.0 771.0,429.0 771.0,430.0 774.0,435.0 774.0,438.0 773.0,439.0 771.0,439.0 770.0,440.0 769.0,440.0 768.0,441.0 767.0,441.0 766.0,442.0 763.0,443.0 762.0,442.0 762.0,440.0 761.0,439.0 760.0,436.0"/><polyline points="916.0,426.0 917.0,426.0 918.0,425.0 920.0,425.0 921.0,424.0 921.0,418.0 920.0,417.0 920.0,415.0 918.0,412.0 918.0,410.0 915.0,405.0 915.0,403.0 913.0,400.0 913.0,398.0"/><polyline points="816.0,429.0 814.0,429.0 813.0,430.0 809.0,430.0 807.0,427.0 807.0,424.0 806.0,423.0 806.0,422.0 809.0,422.0 810.0,421.0 813.0,421.0 814.0,420.0 816.0,420.0 817.0,419.0 819.0,419.0 820.0,418.0 823.0,418.0 824.0,417.0 826.0,417.0 827.0,416.0 830.0,416.0 831.0,415.0 834.0,414.0"/><polyline points="880.0,431.0 877.0,431.0 876.0,432.0 874.0,432.0 872.0,430.0 872.0,428.0 871.0,427.0 871.0,426.0 869.0,423.0 869.0,421.0 868.0,420.0 868.0,419.0 865.0,414.0 865.0,412.0 864.0,411.0 864.0,408.0 863.0,407.0 862.0,408.0 858.0,408.0 857.0,409.0 853.0,409.0 852.0,410.0 849.0,410.0 848.0,411.0 845.0,411.0"/><polyline points="946.0,431.0 945.0,432.0 943.0,432.0 940.0,434.0 938.0,434.0 937.0,435.0 935.0,435.0 934.0,436.0 932.0,436.0 931.0,437.0 928.0,437.0 926.0,435.0 926.0,433.0 925.0,432.0 925.0,431.0 924.0,430.0 923.0,427.0 921.0,425.0"/><polyline points="793.0,437.0 793.0,436.0 791.0,433.0 791.0,430.0"/><polyline points="747.0,441.0 747.0,442.0 748.0,443.0 749.0,446.0 751.0,448.0 752.0,448.0 755.0,446.0 757.0,446.0 762.0,443.0"/><polyline points="961.0,442.0 959.0,442.0 958.0,443.0 956.0,443.0 953.0,445.0 951.0,445.0 950.0,446.0 948.0,446.0 947.0,447.0 945.0,447.0 944.0,448.0 942.0,448.0 941.0,449.0 939.0,449.0 938.0,450.0 937.0,450.0 935.0,452.0 936.0,453.0 936.0,455.0 937.0,456.0 937.0,457.0 938.0,458.0 938.0,459.0 939.0,460.0 939.0,461.0 940.0,462.0 940.0,463.0 941.0,464.0 941.0,465.0 942.0,466.0 942.0,467.0 943.0,468.0 943.0,469.0 944.0,470.0 945.0,473.0 947.0,475.0 947.0,477.0 948.0,478.0 948.0,479.0 951.0,484.0 951.0,486.0 952.0,487.0 953.0,490.0 954.0,491.0 956.0,491.0 957.0,490.0 959.0,490.0 960.0,489.0 962.0,489.0 963.0,488.0 965.0,488.0 968.0,486.0 970.0,486.0 971.0,485.0 973.0,485.0 974.0,484.0 976.0,484.0 979.0,482.0 981.0,482.0 982.0,481.0 984.0,481.0"/><polyline points="807.0,450.0 808.0,450.0 811.0,448.0 814.0,448.0 815.0,447.0 815.0,444.0 814.0,443.0 814.0,442.0 812.0,439.0 812.0,437.0 810.0,434.0 810.0,431.0"/><polyline points="744.0,459.0 743.0,458.0 742.0,458.0 740.0,456.0"/><polyline points="893.0,462.0 892.0,463.0 889.0,463.0 888.0,464.0 885.0,464.0 884.0,463.0 884.0,462.0 883.0,461.0 883.0,459.0 882.0,458.0 882.0,456.0 881.0,455.0 881.0,453.0 880.0,452.0 880.0,450.0 879.0,449.0 879.0,447.0 878.0,446.0 878.0,444.0 876.0,441.0 876.0,439.0 875.0,438.0 875.0,434.0 874.0,433.0"/><polyline points="775.0,464.0 773.0,462.0 773.0,461.0 772.0,460.0 772.0,459.0 771.0,458.0 771.0,457.0 770.0,456.0 770.0,455.0 769.0,454.0 769.0,453.0 768.0,452.0 768.0,451.0 765.0,446.0 765.0,444.0"/><polyline points="957.0,470.0 955.0,470.0 954.0,471.0 952.0,471.0 947.0,474.0"/><polyline points="697.0,474.0 698.0,475.0 698.0,476.0 700.0,478.0 700.0,479.0 701.0,480.0 703.0,480.0 704.0,479.0 705.0,479.0 707.0,477.0 708.0,477.0 711.0,474.0 712.0,474.0 714.0,472.0 715.0,472.0 720.0,467.0 720.0,466.0"/><polyline points="687.0,481.0 689.0,483.0 689.0,484.0 692.0,487.0 693.0,487.0 694.0,486.0 697.0,486.0 698.0,485.0 698.0,484.0 701.0,481.0"/><polyline points="732.0,481.0 732.0,480.0 731.0,479.0 731.0,478.0 730.0,477.0 730.0,476.0 729.0,475.0 729.0,474.0 728.0,473.0 728.0,472.0 727.0,471.0 727.0,470.0 726.0,469.0 725.0,466.0"/><polyline points="895.0,486.0 889.0,486.0 888.0,485.0 888.0,480.0 887.0,479.0 887.0,474.0 886.0,473.0 886.0,466.0 885.0,465.0"/><polyline points="677.0,490.0 681.0,494.0 683.0,494.0 684.0,493.0 686.0,493.0 688.0,491.0 689.0,491.0 690.0,490.0 691.0,487.0"/><polyline points="706.0,499.0 705.0,498.0 705.0,497.0 703.0,495.0 703.0,494.0 700.0,491.0 700.0,490.0 698.0,488.0 698.0,486.0"/><polyline points="830.0,500.0 831.0,500.0 832.0,499.0 835.0,498.0 836.0,497.0 836.0,494.0 835.0,493.0 835.0,491.0 832.0,486.0 832.0,484.0 829.0,479.0 829.0,477.0 826.0,472.0 826.0,470.0 823.0,465.0 823.0,463.0 822.0,462.0 822.0,461.0 821.0,460.0 821.0,458.0 818.0,453.0 818.0,451.0 816.0,448.0"/><polyline points="685.0,507.0 685.0,506.0 681.0,502.0 681.0,501.0 679.0,499.0 677.0,499.0 675.0,501.0 674.0,501.0 671.0,504.0 670.0,504.0 667.0,507.0 666.0,507.0 661.0,511.0 659.0,511.0 658.0,512.0 657.0,512.0 656.0,513.0 655.0,513.0 654.0,514.0 653.0,514.0 652.0,515.0 651.0,515.0 650.0,516.0 649.0,516.0 648.0,517.0 645.0,518.0 642.0,521.0 636.0,523.0 631.0,527.0 630.0,527.0 625.0,530.0 624.0,530.0 623.0,529.0 622.0,526.0"/><polyline points="901.0,510.0 900.0,511.0 898.0,511.0 896.0,513.0 896.0,514.0 897.0,515.0 897.0,518.0 898.0,519.0 898.0,520.0 900.0,523.0 900.0,525.0 901.0,526.0 901.0,528.0 900.0,529.0 897.0,530.0"/><polyline points="490.0,527.0 491.0,527.0 492.0,526.0 495.0,526.0 496.0,527.0 497.0,530.0 500.0,533.0 500.0,535.0 501.0,536.0 501.0,537.0 502.0,538.0 503.0,541.0 505.0,543.0 505.0,544.0 506.0,545.0 506.0,546.0 507.0,547.0 507.0,548.0 508.0,549.0 508.0,550.0 509.0,551.0 510.0,554.0 512.0,556.0 512.0,557.0 515.0,562.0 515.0,564.0 514.0,565.0 512.0,565.0 511.0,566.0 509.0,566.0 508.0,567.0 505.0,568.0"/><polyline points="508.0,528.0 507.0,529.0 506.0,529.0 505.0,530.0 503.0,530.0 500.0,532.0"/><polyline points="590.0,534.0 590.0,535.0 592.0,538.0 592.0,540.0 593.0,541.0 593.0,542.0 594.0,543.0 595.0,546.0 596.0,547.0 599.0,547.0 600.0,546.0 601.0,546.0 603.0,544.0 606.0,543.0 608.0,541.0 609.0,541.0 614.0,537.0 615.0,537.0 616.0,536.0 617.0,536.0 619.0,534.0 620.0,534.0 623.0,531.0 623.0,530.0"/><polyline points="660.0,543.0 658.0,543.0 657.0,544.0 656.0,544.0 655.0,543.0 655.0,542.0 653.0,540.0 652.0,537.0 648.0,532.0 647.0,529.0 643.0,524.0 643.0,522.0"/><polyline points="577.0,551.0 577.0,552.0 579.0,554.0 579.0,555.0 580.0,556.0 580.0,558.0 579.0,559.0 579.0,560.0 578.0,561.0 575.0,562.0 570.0,566.0 567.0,567.0 565.0,569.0 564.0,569.0 562.0,571.0 561.0,571.0 556.0,575.0 555.0,575.0 554.0,576.0 551.0,577.0 550.0,576.0 550.0,575.0 548.0,572.0 548.0,570.0 547.0,569.0"/><polyline points="904.0,554.0 903.0,555.0 901.0,555.0 898.0,557.0 896.0,557.0 895.0,556.0 895.0,555.0 894.0,554.0 894.0,553.0 893.0,552.0 893.0,551.0 890.0,546.0 890.0,543.0 892.0,541.0 894.0,541.0 895.0,540.0 897.0,540.0 898.0,539.0 900.0,539.0 901.0,538.0 902.0,538.0 904.0,536.0 904.0,533.0 903.0,532.0 903.0,531.0 901.0,529.0"/><polyline points="519.0,615.0 520.0,615.0 522.0,613.0 523.0,613.0 524.0,612.0 525.0,612.0 526.0,611.0 527.0,611.0 528.0,610.0 529.0,610.0 534.0,607.0 536.0,607.0 537.0,606.0 537.0,602.0 536.0,601.0 536.0,600.0 534.0,598.0 534.0,597.0 533.0,596.0 533.0,595.0 530.0,590.0 530.0,588.0 527.0,585.0 527.0,584.0 526.0,583.0 526.0,582.0 525.0,581.0 524.0,578.0 522.0,576.0 522.0,575.0 521.0,574.0 521.0,573.0 520.0,572.0 520.0,571.0 519.0,570.0 518.0,567.0 516.0,565.0"/><polyline points="546.0,646.0 546.0,647.0 548.0,649.0 548.0,650.0 550.0,652.0 552.0,652.0 553.0,651.0 556.0,650.0 559.0,647.0 559.0,645.0 558.0,644.0 558.0,643.0 557.0,642.0 557.0,641.0 556.0,640.0 556.0,639.0 555.0,638.0 555.0,637.0 554.0,636.0 554.0,635.0 553.0,634.0 553.0,633.0 552.0,632.0 552.0,631.0 551.0,630.0 550.0,627.0 548.0,625.0 548.0,624.0 547.0,623.0 547.0,622.0 546.0,621.0 546.0,620.0 545.0,619.0 545.0,618.0 544.0,617.0 544.0,616.0 543.0,615.0 543.0,614.0 542.0,613.0 542.0,612.0 541.0,611.0 540.0,608.0 538.0,606.0"/><polyline points="472.0,663.0 470.0,663.0 467.0,665.0 467.0,670.0 468.0,671.0 468.0,673.0 469.0,674.0 469.0,676.0 471.0,679.0 471.0,681.0 472.0,682.0 472.0,684.0 474.0,686.0 477.0,686.0 478.0,685.0 481.0,685.0 482.0,684.0 485.0,684.0 486.0,683.0 491.0,683.0 494.0,681.0 501.0,681.0 502.0,682.0 505.0,683.0 506.0,682.0 508.0,682.0 509.0,681.0 510.0,681.0 515.0,676.0 515.0,675.0 516.0,674.0 517.0,674.0 522.0,670.0 525.0,669.0 527.0,667.0 530.0,666.0 535.0,662.0 538.0,661.0 540.0,659.0 541.0,659.0 542.0,658.0 543.0,658.0 545.0,656.0 546.0,656.0 549.0,653.0 549.0,652.0"/><polyline points="898.0,687.0 935.0,687.0"/><polyline points="527.0,690.0 525.0,688.0 525.0,687.0 524.0,686.0 524.0,685.0 523.0,684.0 522.0,681.0 520.0,679.0 517.0,679.0 516.0,678.0 514.0,678.0"/><polyline points="496.0,696.0 494.0,694.0 494.0,692.0 491.0,687.0 491.0,684.0"/><polyline points="812.0,310.0 812.0,311.0 813.0,312.0 813.0,314.0 814.0,315.0 817.0,315.0 818.0,314.0 820.0,314.0 821.0,313.0 826.0,313.0 828.0,315.0 829.0,315.0"/><polyline points="786.0,430.0 786.0,431.0 784.0,434.0 783.0,434.0 780.0,436.0 778.0,436.0 777.0,437.0 775.0,437.0"/><polyline points="929.0,438.0 929.0,441.0 930.0,442.0 930.0,443.0 931.0,444.0 931.0,445.0 932.0,446.0 933.0,449.0 935.0,451.0"/><polyline points="750.0,448.0 745.0,451.0 743.0,451.0 742.0,452.0 741.0,452.0"/><polyline points="889.0,487.0 889.0,492.0 890.0,493.0 890.0,499.0 891.0,500.0 891.0,504.0 894.0,509.0 894.0,511.0 895.0,512.0 896.0,512.0"/><polyline points="681.0,495.0 681.0,496.0 680.0,497.0 680.0,499.0"/><polyline points="596.0,548.0 592.0,552.0 589.0,553.0 584.0,557.0 582.0,557.0 581.0,558.0"/><polyline points="550.0,577.0 548.0,579.0 547.0,579.0 542.0,582.0 540.0,582.0 537.0,584.0 535.0,584.0 530.0,587.0"/></g><g data-id="blue" stroke="#ffffff" fill="none" stroke-width="1.4" stroke-linecap="round" stroke-linejoin="round"></g><g data-id="orange" stroke="#ffffff" fill="none" stroke-width="1.4" stroke-linecap="round" stroke-linejoin="round"></g></svg>