<?xml version="1.0" encoding="utf-8" ?>
<svg baseProfile="full" width="1024" height="768" xmlns="http://www.w3.org/2000/svg"><g data-id="red" stroke="#e74c3c" fill="none" stroke-width="1.4" stroke-linecap="round" stroke-linejoin="round"><polyline points="533.0,89.0 532.0,89.0 531.0,90.0 529.0,90.0"/></g><g data-id="green" stroke="#ffffff" fill="none" stroke-width="1.4" stroke-linecap="round" stroke-linejoin="round"></g><g data-id="blue" stroke="#ffffff" fill="none" stroke-width="1.4" stroke-linecap="round" stroke-linejoin="round"></g><g data-id="orange" stroke="#ffd740" fill="none" stroke-width="1.4" stroke-linecap="round" stroke-linejoin="round"><polyline points="569.0,77.0 561.0,77.0 560.0,78.0 560.0,94.0 558.0,96.0 547.0,96.0 546.0,95.0 543.0,95.0 542.0,96.0"/><polyline points="88.0,102.0 85.0,102.0 83.0,104.0 84.0,105.0 84.0,111.0 85.0,112.0 85.0,117.0 86.0,118.0 86.0,131.0 85.0,132.0 80.0,132.0 79.0,133.0 77.0,133.0"/><polyline points="105.0,113.0 105.0,115.0 103.0,117.0 102.0,117.0 101.0,118.0 98.0,118.0 97.0,119.0 94.0,119.0 93.0,120.0 90.0,120.0 89.0,121.0 87.0,121.0"/><polyline points="490.0,119.0 488.0,121.0 488.0,125.0 489.0,126.0 489.0,129.0 490.0,130.0 490.0,132.0 491.0,133.0 491.0,135.0 489.0,137.0 487.0,137.0 486.0,138.0 483.0,138.0 482.0,139.0 480.0,139.0 479.0,140.0 476.0,140.0 475.0,141.0 472.0,141.0 471.0,140.0 471.0,138.0 469.0,135.0 469.0,133.0 468.0,132.0 468.0,129.0 466.0,127.0 460.0,127.0"/><polyline points="508.0,122.0 508.0,123.0 510.0,126.0 510.0,130.0 509.0,131.0 508.0,131.0 507.0,132.0 504.0,132.0 503.0,133.0 501.0,133.0 499.0,135.0 494.0,135.0 493.0,136.0 491.0,136.0"/><polyline points="471.0,126.0 469.0,126.0 468.0,127.0 467.0,127.0"/><polyline points="97.0,127.0 96.0,128.0 91.0,128.0 90.0,129.0 87.0,129.0"/><polyline points="440.0,130.0 441.0,131.0 441.0,134.0 442.0,135.0 442.0,137.0 443.0,138.0 443.0,140.0 444.0,141.0 444.0,143.0 445.0,144.0 445.0,148.0 443.0,150.0 441.0,150.0 440.0,151.0 438.0,151.0 437.0,152.0 434.0,152.0 433.0,153.0 431.0,153.0 430.0,154.0 427.0,154.0 425.0,156.0 423.0,154.0 423.0,150.0 422.0,149.0 422.0,147.0 421.0,146.0 421.0,144.0 420.0,143.0 420.0,140.0 419.0,139.0 419.0,138.0"/><polyline points="184.0,131.0 183.0,132.0 180.0,132.0 179.0,133.0 175.0,133.0 174.0,134.0 169.0,134.0 168.0,135.0 164.0,135.0 163.0,136.0 159.0,136.0 158.0,137.0 154.0,137.0 153.0,138.0 149.0,138.0 148.0,139.0 144.0,139.0 143.0,140.0 140.0,140.0 139.0,141.0 139.0,148.0 138.0,149.0 138.0,150.0 136.0,152.0 135.0,152.0 134.0,153.0 129.0,153.0 126.0,155.0 126.0,161.0 127.0,162.0 127.0,166.0 128.0,167.0 128.0,171.0 127.0,172.0 123.0,172.0 122.0,173.0 116.0,173.0 115.0,174.0 114.0,174.0"/><polyline points="529.0,133.0 528.0,132.0 528.0,131.0 527.0,130.0 527.0,128.0 526.0,127.0 522.0,127.0 521.0,128.0 518.0,128.0 517.0,129.0 515.0,129.0 514.0,130.0 511.0,130.0 513.0,132.0 513.0,135.0 514.0,136.0 514.0,137.0 515.0,138.0 516.0,138.0 518.0,140.0 518.0,141.0 519.0,142.0 519.0,144.0 518.0,145.0 518.0,146.0 517.0,147.0 514.0,148.0"/><polyline points="94.0,138.0 89.0,138.0 88.0,137.0 88.0,135.0 87.0,134.0 87.0,132.0"/><polyline points="499.0,139.0 499.0,136.0"/><polyline points="474.0,146.0 473.0,145.0 473.0,143.0 471.0,141.0 471.0,142.0 470.0,143.0 466.0,143.0 465.0,144.0 462.0,144.0 460.0,146.0 455.0,146.0 454.0,147.0 452.0,147.0 451.0,148.0 446.0,148.0"/><polyline points="400.0,147.0 400.0,149.0 401.0,150.0 401.0,152.0 402.0,153.0 402.0,155.0 403.0,156.0 403.0,159.0 402.0,160.0 400.0,160.0 399.0,161.0 395.0,161.0 394.0,162.0 393.0,162.0 392.0,161.0 392.0,159.0 391.0,158.0 391.0,157.0"/><polyline points="377.0,149.0 377.0,151.0 378.0,152.0 378.0,155.0 379.0,156.0 379.0,158.0 380.0,159.0 380.0,164.0 379.0,165.0 372.0,165.0 371.0,166.0 364.0,166.0 363.0,167.0 354.0,167.0 353.0,166.0 353.0,164.0"/><polyline points="461.0,149.0 461.0,146.0"/><polyline points="603.0,152.0 603.0,154.0 604.0,155.0 604.0,158.0 603.0,159.0 602.0,159.0 601.0,160.0 598.0,160.0 597.0,161.0 594.0,161.0 593.0,162.0 591.0,162.0 590.0,161.0 590.0,159.0"/><polyline points="317.0,153.0 317.0,156.0 318.0,157.0 318.0,160.0 319.0,161.0 319.0,163.0 320.0,164.0 320.0,169.0 319.0,170.0 314.0,170.0 313.0,171.0 303.0,171.0 302.0,170.0 302.0,165.0 301.0,164.0 301.0,161.0 299.0,159.0 297.0,159.0 296.0,158.0 296.0,156.0"/><polyline points="271.0,155.0 271.0,156.0 272.0,157.0 272.0,160.0 273.0,161.0 273.0,163.0 274.0,164.0 274.0,167.0 275.0,168.0 275.0,173.0 274.0,174.0 268.0,174.0 267.0,175.0 261.0,175.0 260.0,176.0 256.0,176.0 255.0,177.0 246.0,177.0 245.0,178.0 239.0,178.0 238.0,179.0 233.0,179.0 232.0,180.0 225.0,180.0 224.0,181.0 218.0,181.0 217.0,182.0 211.0,182.0 210.0,183.0 207.0,183.0 205.0,181.0 205.0,180.0 204.0,179.0 198.0,179.0 197.0,180.0 194.0,180.0 193.0,181.0 184.0,181.0 183.0,182.0 177.0,182.0 176.0,183.0 170.0,183.0 169.0,184.0 164.0,184.0 163.0,185.0 157.0,185.0 156.0,186.0 150.0,186.0 149.0,187.0 146.0,187.0 141.0,184.0 138.0,184.0 136.0,186.0 136.0,190.0 137.0,191.0 137.0,193.0 138.0,194.0 138.0,197.0 139.0,198.0 139.0,200.0"/><polyline points="104.0,156.0 102.0,156.0 101.0,157.0 96.0,157.0 95.0,158.0 93.0,158.0 92.0,157.0 92.0,156.0 91.0,155.0 91.0,151.0 90.0,150.0 90.0,146.0 89.0,145.0 89.0,139.0"/><polyline points="578.0,162.0 578.0,164.0 576.0,166.0 574.0,166.0 573.0,167.0 570.0,167.0 569.0,168.0 566.0,168.0 565.0,169.0 563.0,169.0 562.0,168.0 562.0,166.0 561.0,165.0"/><polyline points="417.0,167.0 418.0,167.0 421.0,164.0 421.0,163.0 420.0,162.0 420.0,159.0 418.0,157.0 414.0,157.0 413.0,158.0 409.0,158.0 408.0,159.0 404.0,159.0"/><polyline points="388.0,171.0 385.0,171.0 383.0,168.0 383.0,166.0 381.0,164.0 384.0,164.0 385.0,163.0 389.0,163.0 390.0,162.0 392.0,162.0"/><polyline points="359.0,174.0 360.0,174.0 363.0,171.0 363.0,168.0"/><polyline points="258.0,180.0 258.0,177.0"/><polyline points="309.0,181.0 309.0,180.0 308.0,179.0 308.0,177.0 307.0,176.0 307.0,172.0"/><polyline points="320.0,181.0 320.0,180.0 316.0,176.0 316.0,171.0"/><polyline points="457.0,181.0 455.0,181.0 454.0,182.0 451.0,183.0 449.0,185.0 449.0,187.0 446.0,190.0 446.0,192.0 444.0,194.0"/><polyline points="532.0,184.0 532.0,182.0 531.0,181.0 531.0,179.0 530.0,178.0 526.0,178.0 525.0,179.0 522.0,179.0 520.0,181.0 514.0,181.0 513.0,182.0 511.0,182.0 509.0,184.0 502.0,184.0 501.0,185.0 499.0,185.0 496.0,187.0 490.0,187.0 489.0,188.0 487.0,188.0 484.0,190.0 478.0,190.0 477.0,191.0 474.0,191.0 473.0,192.0 470.0,192.0 469.0,193.0 457.0,193.0 456.0,192.0 453.0,192.0 449.0,188.0"/><polyline points="297.0,187.0 297.0,186.0 296.0,185.0 296.0,183.0 295.0,182.0 295.0,179.0 294.0,178.0 294.0,175.0 292.0,172.0 288.0,172.0 287.0,173.0 276.0,173.0"/><polyline points="339.0,187.0 339.0,186.0 338.0,185.0 338.0,181.0 337.0,180.0 337.0,176.0 336.0,175.0 336.0,170.0 335.0,169.0 326.0,169.0 325.0,170.0 321.0,170.0"/><polyline points="284.0,188.0 284.0,187.0 283.0,186.0 283.0,184.0 282.0,183.0 282.0,181.0 281.0,180.0 281.0,176.0 280.0,175.0 280.0,174.0"/><polyline points="208.0,190.0 210.0,188.0 210.0,184.0"/><polyline points="499.0,191.0 499.0,190.0 498.0,189.0 498.0,187.0"/><polyline points="230.0,192.0 231.0,192.0 233.0,190.0 233.0,185.0 232.0,184.0 232.0,181.0"/><polyline points="512.0,192.0 512.0,191.0 511.0,190.0 511.0,188.0 510.0,187.0 510.0,185.0"/><polyline points="255.0,193.0 254.0,192.0 254.0,190.0 253.0,189.0 253.0,187.0 252.0,186.0 252.0,183.0 251.0,182.0 251.0,178.0"/><polyline points="486.0,194.0 486.0,190.0"/><polyline points="198.0,201.0 198.0,198.0 197.0,197.0 197.0,195.0 196.0,194.0 196.0,192.0 195.0,191.0 195.0,188.0 194.0,187.0 194.0,185.0 193.0,184.0 193.0,182.0"/><polyline points="464.0,201.0 464.0,198.0 463.0,197.0 463.0,194.0"/><polyline points="171.0,203.0 167.0,203.0 166.0,202.0 166.0,199.0 165.0,198.0 165.0,195.0 164.0,194.0 164.0,191.0 163.0,190.0 163.0,186.0"/><polyline points="224.0,205.0 222.0,202.0 222.0,200.0 221.0,199.0 221.0,197.0 220.0,196.0 220.0,194.0 219.0,193.0 219.0,191.0 218.0,190.0 218.0,188.0 217.0,187.0 217.0,183.0"/><polyline points="405.0,211.0 406.0,211.0 407.0,210.0 408.0,210.0 409.0,209.0 412.0,208.0 413.0,207.0 413.0,205.0 407.0,199.0 407.0,198.0 400.0,191.0 400.0,190.0 392.0,182.0 392.0,181.0 389.0,178.0 389.0,177.0 387.0,175.0 387.0,173.0 386.0,172.0"/><polyline points="364.0,217.0 364.0,218.0 365.0,219.0 365.0,220.0 366.0,221.0 366.0,222.0 367.0,223.0 367.0,224.0 368.0,225.0 368.0,226.0 369.0,227.0 369.0,228.0 372.0,233.0 371.0,236.0 368.0,239.0 368.0,241.0 369.0,242.0 370.0,245.0 372.0,247.0 372.0,248.0 373.0,249.0 374.0,252.0 376.0,254.0 378.0,254.0 379.0,253.0 381.0,253.0 382.0,252.0 383.0,252.0 384.0,251.0 387.0,250.0 389.0,248.0 388.0,245.0"/><polyline points="411.0,231.0 413.0,231.0 414.0,232.0 416.0,232.0 417.0,231.0 418.0,231.0 424.0,225.0 425.0,225.0 427.0,223.0 427.0,221.0 422.0,216.0 422.0,215.0 414.0,207.0"/><polyline points="420.0,242.0 418.0,242.0 417.0,243.0 413.0,243.0 412.0,242.0 411.0,242.0 409.0,240.0 414.0,233.0"/><polyline points="427.0,256.0 425.0,256.0 424.0,257.0 423.0,257.0 420.0,254.0 420.0,253.0 418.0,251.0 418.0,250.0 416.0,247.0 416.0,245.0 415.0,244.0"/><polyline points="752.0,257.0 754.0,255.0 754.0,251.0 750.0,245.0 745.0,245.0 744.0,244.0 722.0,244.0 720.0,246.0 719.0,245.0 713.0,245.0 708.0,248.0 706.0,248.0 705.0,249.0 702.0,250.0 698.0,254.0 693.0,254.0 692.0,255.0 690.0,255.0 685.0,258.0 683.0,258.0 680.0,260.0 678.0,260.0 677.0,261.0 674.0,262.0 670.0,266.0 663.0,266.0 662.0,267.0 658.0,267.0 657.0,268.0 652.0,268.0 651.0,269.0 647.0,269.0 646.0,270.0 641.0,270.0 640.0,271.0 635.0,271.0 634.0,272.0 629.0,272.0 628.0,273.0 624.0,273.0 623.0,274.0 620.0,274.0 619.0,275.0 615.0,275.0 614.0,276.0 611.0,276.0 610.0,277.0 607.0,277.0 606.0,278.0 602.0,278.0 601.0,279.0 598.0,279.0 595.0,282.0 588.0,282.0 587.0,283.0 585.0,283.0 584.0,284.0 582.0,284.0 579.0,286.0 577.0,286.0 576.0,287.0 574.0,287.0 573.0,288.0 571.0,288.0 570.0,289.0 568.0,289.0 566.0,291.0 566.0,292.0 565.0,293.0 564.0,292.0 556.0,292.0 555.0,293.0 551.0,293.0 550.0,294.0 546.0,294.0 545.0,295.0 540.0,295.0 539.0,296.0 536.0,296.0 534.0,298.0 534.0,299.0"/><polyline points="726.0,259.0 725.0,258.0 725.0,257.0 724.0,256.0 724.0,255.0 721.0,250.0 721.0,247.0"/><polyline points="796.0,263.0 794.0,263.0 793.0,264.0 791.0,264.0 790.0,265.0 787.0,265.0 786.0,266.0 783.0,264.0 779.0,264.0 778.0,265.0 775.0,265.0 774.0,266.0 770.0,266.0 769.0,267.0 767.0,267.0 766.0,268.0 763.0,268.0 762.0,267.0 762.0,266.0 760.0,264.0 760.0,263.0 759.0,262.0 758.0,259.0 756.0,257.0 754.0,257.0"/><polyline points="702.0,264.0 702.0,262.0 699.0,257.0 699.0,254.0"/><polyline points="764.0,271.0 764.0,269.0"/><polyline points="687.0,298.0 687.0,297.0 686.0,296.0 686.0,295.0 684.0,293.0 684.0,292.0 683.0,291.0 683.0,290.0 682.0,289.0 682.0,288.0 681.0,287.0 681.0,286.0 680.0,285.0 680.0,284.0 679.0,283.0 678.0,280.0 676.0,278.0 676.0,277.0 675.0,276.0 675.0,275.0 674.0,274.0 674.0,273.0 671.0,268.0 671.0,266.0"/><polyline points="518.0,300.0 520.0,298.0 519.0,295.0 518.0,294.0 513.0,294.0 512.0,295.0 511.0,295.0 506.0,298.0 504.0,298.0 503.0,299.0 500.0,299.0 499.0,300.0 497.0,300.0 496.0,301.0 495.0,301.0 494.0,302.0 493.0,302.0 488.0,305.0 486.0,305.0 483.0,307.0 481.0,307.0 479.0,309.0 479.0,312.0 477.0,314.0 475.0,314.0 474.0,315.0 473.0,315.0 471.0,317.0 470.0,317.0 468.0,319.0 467.0,319.0 463.0,324.0 460.0,324.0 458.0,326.0 457.0,326.0 454.0,329.0 453.0,329.0 451.0,331.0 450.0,331.0 447.0,334.0 446.0,334.0 443.0,337.0 442.0,337.0 440.0,339.0 439.0,339.0 437.0,341.0 437.0,343.0 436.0,344.0 434.0,344.0 433.0,345.0 431.0,345.0 430.0,346.0 429.0,346.0 427.0,348.0 424.0,349.0 422.0,351.0 421.0,351.0 416.0,355.0 413.0,356.0 408.0,360.0 405.0,361.0 403.0,363.0 400.0,364.0 398.0,366.0 395.0,367.0 393.0,369.0 392.0,369.0 391.0,370.0 390.0,370.0 388.0,372.0 385.0,373.0 383.0,375.0 382.0,375.0 379.0,378.0 379.0,379.0 377.0,381.0 375.0,381.0 374.0,382.0 372.0,382.0 370.0,384.0 369.0,384.0 367.0,386.0 366.0,386.0 364.0,388.0 363.0,388.0 359.0,392.0 359.0,393.0 358.0,394.0 356.0,394.0 355.0,395.0 353.0,395.0 352.0,396.0 351.0,396.0 349.0,398.0 348.0,398.0 347.0,399.0 346.0,399.0 344.0,401.0 343.0,401.0 339.0,405.0 339.0,406.0 338.0,407.0 334.0,407.0 333.0,408.0 332.0,408.0 330.0,410.0 329.0,410.0 327.0,412.0 324.0,413.0 322.0,415.0 321.0,415.0 319.0,417.0 318.0,417.0 316.0,419.0 315.0,419.0 310.0,423.0 309.0,423.0 306.0,425.0 304.0,425.0 301.0,427.0 299.0,427.0 298.0,428.0 298.0,429.0 296.0,431.0 291.0,431.0 290.0,432.0 289.0,432.0 284.0,435.0 282.0,435.0 281.0,436.0 280.0,436.0 275.0,439.0 273.0,439.0 272.0,440.0 271.0,440.0 270.0,441.0 269.0,441.0 264.0,444.0 262.0,444.0 261.0,445.0 258.0,446.0 255.0,449.0 253.0,449.0 252.0,450.0 249.0,450.0 248.0,451.0 246.0,451.0 243.0,454.0 243.0,455.0 242.0,456.0 241.0,455.0 240.0,455.0 239.0,456.0 235.0,456.0 232.0,458.0 230.0,458.0 229.0,459.0 227.0,459.0 224.0,461.0 222.0,461.0 221.0,462.0 220.0,462.0 219.0,463.0 216.0,464.0 213.0,467.0 211.0,467.0 210.0,468.0 207.0,468.0 206.0,469.0 206.0,475.0 207.0,476.0 207.0,481.0 208.0,482.0 208.0,487.0 209.0,488.0 209.0,490.0 206.0,493.0 206.0,494.0 205.0,495.0 200.0,495.0 199.0,496.0 197.0,496.0 196.0,497.0 194.0,497.0 191.0,500.0 190.0,500.0 189.0,501.0 187.0,501.0 183.0,505.0 178.0,505.0 177.0,506.0 175.0,506.0 172.0,508.0 170.0,508.0 167.0,510.0 165.0,510.0 164.0,511.0 162.0,511.0 160.0,513.0 160.0,514.0 161.0,515.0 161.0,516.0 160.0,517.0 160.0,519.0"/><polyline points="573.0,308.0 572.0,307.0 572.0,306.0 571.0,305.0 570.0,302.0 568.0,300.0 568.0,299.0 566.0,296.0 566.0,293.0"/><polyline points="617.0,323.0 616.0,322.0 616.0,321.0 615.0,320.0 614.0,317.0 612.0,315.0 612.0,314.0 611.0,313.0 611.0,312.0 610.0,311.0 610.0,310.0 609.0,309.0 609.0,308.0 608.0,307.0 608.0,306.0 607.0,305.0 607.0,304.0 606.0,303.0 606.0,302.0 605.0,301.0 605.0,300.0 604.0,299.0 603.0,296.0 601.0,294.0 601.0,293.0 600.0,292.0 600.0,291.0 599.0,290.0 599.0,289.0 596.0,284.0 596.0,282.0"/><polyline points="526.0,350.0 526.0,349.0 524.0,346.0 524.0,344.0 521.0,339.0 521.0,337.0 520.0,336.0 520.0,335.0 519.0,334.0 518.0,331.0 515.0,329.0 515.0,323.0 512.0,318.0 512.0,316.0 511.0,315.0 511.0,314.0 509.0,311.0 509.0,309.0 506.0,304.0 506.0,299.0"/><polyline points="503.0,352.0 502.0,351.0 502.0,348.0 501.0,347.0 501.0,343.0 500.0,342.0 500.0,339.0 499.0,338.0 499.0,333.0 501.0,331.0 504.0,331.0 505.0,330.0 509.0,330.0 510.0,329.0 514.0,329.0"/><polyline points="476.0,354.0 474.0,352.0 474.0,351.0 473.0,350.0 473.0,348.0 472.0,347.0 472.0,345.0 470.0,342.0 470.0,340.0 469.0,339.0 469.0,337.0 468.0,336.0 468.0,335.0 467.0,334.0 467.0,332.0 465.0,329.0 465.0,327.0 464.0,326.0 464.0,324.0"/><polyline points="585.0,364.0 588.0,364.0 589.0,365.0 589.0,366.0 590.0,367.0 590.0,369.0 591.0,370.0 591.0,372.0 593.0,375.0 593.0,377.0 594.0,378.0 594.0,380.0 595.0,381.0 595.0,383.0 593.0,385.0 591.0,385.0 590.0,386.0 589.0,386.0 586.0,389.0 581.0,389.0 578.0,391.0 576.0,391.0 575.0,392.0 573.0,392.0 570.0,394.0 568.0,394.0 565.0,396.0 563.0,396.0 562.0,397.0 560.0,397.0 559.0,398.0 558.0,398.0 557.0,399.0 555.0,399.0 552.0,401.0 550.0,401.0 549.0,402.0 544.0,402.0 541.0,399.0 541.0,398.0 539.0,395.0 539.0,393.0 537.0,390.0 537.0,388.0"/><polyline points="454.0,374.0 453.0,375.0 453.0,382.0 450.0,385.0 449.0,385.0"/><polyline points="485.0,383.0 483.0,383.0 481.0,381.0 481.0,380.0 480.0,379.0 475.0,379.0 474.0,380.0 472.0,380.0 469.0,382.0 467.0,382.0 466.0,383.0 465.0,383.0 464.0,384.0 462.0,384.0 461.0,385.0 457.0,385.0 456.0,384.0 453.0,384.0"/><polyline points="779.0,398.0 779.0,410.0 778.0,411.0 778.0,442.0 777.0,443.0 777.0,446.0 776.0,447.0 774.0,447.0"/><polyline points="390.0,407.0 389.0,406.0 389.0,405.0 388.0,404.0 388.0,402.0 387.0,401.0 387.0,400.0 386.0,399.0 386.0,398.0 385.0,397.0 385.0,396.0 384.0,395.0 384.0,394.0 383.0,393.0 383.0,392.0 382.0,391.0 382.0,390.0 381.0,389.0 381.0,388.0 378.0,383.0 378.0,381.0"/><polyline points="685.0,407.0 683.0,409.0 683.0,410.0 679.0,415.0 679.0,453.0 682.0,456.0 683.0,455.0 685.0,455.0 687.0,453.0 687.0,451.0"/><polyline points="994.0,412.0 994.0,411.0 993.0,410.0 993.0,408.0 992.0,407.0 987.0,407.0 986.0,408.0 984.0,408.0 983.0,409.0 981.0,409.0 980.0,410.0 978.0,410.0 977.0,411.0 975.0,411.0 974.0,412.0 972.0,412.0 969.0,415.0 964.0,415.0 963.0,416.0 961.0,416.0 960.0,417.0 959.0,417.0 957.0,419.0 951.0,419.0 950.0,420.0 948.0,420.0 947.0,421.0 945.0,421.0 943.0,423.0 941.0,423.0 940.0,424.0 935.0,424.0 934.0,425.0 932.0,425.0 931.0,426.0 929.0,426.0 928.0,427.0 926.0,427.0 925.0,428.0 922.0,428.0 921.0,429.0 919.0,429.0 918.0,430.0 916.0,430.0 915.0,431.0 913.0,431.0 910.0,434.0 903.0,434.0 902.0,435.0 900.0,435.0 899.0,436.0 897.0,436.0 896.0,437.0 894.0,437.0 893.0,438.0 890.0,438.0 888.0,440.0 886.0,440.0 885.0,441.0 880.0,441.0 879.0,442.0 877.0,442.0 876.0,443.0 874.0,443.0 873.0,444.0 872.0,444.0 870.0,446.0 868.0,446.0 867.0,447.0 862.0,447.0 861.0,448.0 859.0,448.0 858.0,449.0 856.0,449.0 855.0,450.0 851.0,450.0 849.0,448.0 838.0,448.0 837.0,449.0 834.0,449.0 833.0,450.0 833.0,451.0 830.0,454.0 828.0,454.0 827.0,455.0 811.0,455.0 810.0,454.0 810.0,453.0 808.0,451.0 808.0,450.0"/><polyline points="529.0,415.0 528.0,414.0 528.0,412.0 526.0,410.0 522.0,410.0 521.0,411.0 519.0,411.0 516.0,413.0 514.0,413.0 513.0,414.0 511.0,414.0 510.0,415.0 508.0,415.0 506.0,413.0 506.0,412.0 504.0,409.0 504.0,407.0 502.0,404.0 502.0,402.0 499.0,397.0 499.0,395.0 498.0,394.0 497.0,391.0 496.0,390.0 493.0,390.0 492.0,391.0 489.0,391.0 488.0,392.0 487.0,392.0 485.0,390.0 483.0,384.0"/><polyline points="969.0,419.0 969.0,416.0"/><polyline points="958.0,423.0 957.0,422.0 957.0,420.0"/><polyline points="351.0,428.0 349.0,426.0 349.0,425.0 347.0,423.0 347.0,422.0 343.0,417.0 342.0,414.0 340.0,412.0 340.0,411.0 339.0,410.0 339.0,407.0"/><polyline points="943.0,434.0 943.0,424.0"/><polyline points="911.0,439.0 910.0,438.0 910.0,435.0"/><polyline points="888.0,444.0 888.0,441.0"/><polyline points="304.0,451.0 304.0,450.0 302.0,447.0 302.0,445.0 301.0,444.0 301.0,442.0 300.0,441.0 300.0,439.0 299.0,438.0 299.0,436.0 298.0,435.0 298.0,433.0 297.0,432.0 297.0,431.0"/><polyline points="712.0,453.0 711.0,454.0 711.0,468.0 710.0,469.0 710.0,470.0 707.0,473.0 707.0,481.0"/><polyline points="869.0,455.0 870.0,454.0 870.0,452.0 871.0,451.0 870.0,450.0 870.0,447.0"/><polyline points="629.0,459.0 629.0,460.0 632.0,465.0 632.0,468.0 633.0,469.0 633.0,471.0 635.0,474.0 639.0,474.0 640.0,473.0 643.0,473.0 644.0,472.0 648.0,472.0 649.0,471.0 652.0,471.0 653.0,470.0 659.0,470.0 660.0,469.0 660.0,464.0 659.0,463.0 657.0,463.0 656.0,464.0"/><polyline points="722.0,464.0 719.0,467.0 719.0,469.0 717.0,471.0 714.0,471.0 712.0,469.0 711.0,469.0"/><polyline points="741.0,465.0 740.0,466.0 739.0,469.0 737.0,471.0 736.0,471.0 735.0,472.0 721.0,472.0 719.0,470.0"/><polyline points="800.0,467.0 800.0,452.0 799.0,451.0 796.0,451.0 795.0,450.0 781.0,450.0 780.0,449.0 779.0,449.0 777.0,447.0"/><polyline points="214.0,470.0 213.0,469.0 213.0,468.0"/><polyline points="245.0,473.0 245.0,471.0 244.0,470.0 244.0,464.0 243.0,463.0 243.0,456.0"/><polyline points="621.0,473.0 622.0,474.0 622.0,477.0 621.0,478.0 621.0,479.0 619.0,481.0 618.0,481.0 617.0,482.0 613.0,482.0 612.0,483.0 610.0,483.0 609.0,484.0 608.0,484.0 607.0,485.0 605.0,485.0 604.0,486.0 600.0,486.0 599.0,485.0 599.0,481.0"/><polyline points="779.0,474.0 778.0,473.0 778.0,464.0 779.0,463.0 779.0,450.0"/><polyline points="620.0,486.0 620.0,484.0 619.0,483.0 619.0,482.0"/><polyline points="576.0,489.0 575.0,490.0 571.0,490.0 570.0,491.0 568.0,491.0 567.0,492.0 565.0,492.0 562.0,495.0 556.0,495.0 555.0,496.0 553.0,496.0 552.0,497.0 550.0,497.0 549.0,498.0 547.0,498.0 546.0,499.0 545.0,499.0 544.0,500.0 541.0,501.0 539.0,503.0 538.0,503.0 535.0,505.0 533.0,505.0 531.0,507.0 526.0,507.0 523.0,509.0 521.0,509.0 520.0,510.0 518.0,510.0 515.0,513.0 511.0,513.0 510.0,512.0 510.0,510.0"/><polyline points="659.0,497.0 659.0,471.0"/><polyline points="206.0,499.0 205.0,496.0"/><polyline points="563.0,501.0 563.0,500.0 562.0,499.0 562.0,496.0"/><polyline points="184.0,508.0 184.0,505.0"/><polyline points="516.0,516.0 515.0,515.0 515.0,514.0"/><polyline points="492.0,524.0 492.0,523.0 491.0,522.0 485.0,522.0 484.0,523.0 482.0,523.0 481.0,524.0 479.0,524.0 476.0,527.0 470.0,527.0 469.0,528.0 467.0,528.0 466.0,529.0 465.0,529.0 464.0,530.0 462.0,530.0 459.0,532.0 457.0,532.0 456.0,533.0 454.0,533.0 452.0,536.0 446.0,536.0 445.0,537.0 443.0,537.0 442.0,538.0 440.0,538.0 439.0,539.0 437.0,539.0 436.0,540.0 434.0,540.0 433.0,541.0 431.0,541.0 430.0,542.0 429.0,542.0 427.0,544.0 422.0,544.0 421.0,545.0 419.0,545.0 417.0,543.0 417.0,544.0 413.0,548.0 412.0,548.0 411.0,549.0 408.0,549.0 407.0,550.0 403.0,550.0 402.0,551.0 400.0,551.0 397.0,553.0 395.0,553.0 394.0,554.0 392.0,554.0 391.0,555.0 389.0,555.0 386.0,557.0 384.0,557.0 383.0,558.0 381.0,558.0 380.0,559.0 378.0,559.0 375.0,561.0 373.0,561.0 372.0,562.0 370.0,562.0 369.0,563.0 367.0,563.0 366.0,564.0 364.0,564.0 361.0,566.0 359.0,566.0 358.0,567.0 356.0,567.0 355.0,568.0 353.0,568.0 352.0,569.0 350.0,569.0 347.0,571.0 345.0,571.0 344.0,572.0 342.0,572.0 341.0,573.0 339.0,573.0 338.0,574.0 336.0,574.0 333.0,576.0 325.0,576.0 323.0,578.0 323.0,580.0 322.0,581.0 318.0,581.0 315.0,583.0 313.0,583.0 312.0,582.0 312.0,580.0"/><polyline points="452.0,541.0 451.0,540.0 451.0,538.0 452.0,537.0"/><polyline points="429.0,552.0 429.0,550.0 428.0,549.0 428.0,547.0 427.0,546.0 427.0,545.0"/><polyline points="323.0,585.0 323.0,583.0 322.0,582.0"/><polyline points="280.0,603.0 280.0,596.0 278.0,594.0 274.0,594.0 273.0,595.0 271.0,595.0 270.0,596.0 267.0,596.0 266.0,597.0 264.0,597.0 263.0,598.0 261.0,598.0 260.0,599.0 258.0,599.0 257.0,600.0 255.0,600.0 252.0,603.0 246.0,603.0 245.0,604.0 242.0,604.0 241.0,605.0 239.0,605.0 238.0,606.0 237.0,606.0 235.0,608.0 233.0,608.0 232.0,609.0 227.0,609.0 226.0,610.0 224.0,610.0 223.0,611.0 221.0,611.0 220.0,612.0 218.0,612.0 217.0,613.0 215.0,613.0 214.0,614.0 212.0,614.0 209.0,616.0 207.0,616.0 206.0,617.0 204.0,617.0 203.0,618.0 198.0,618.0 197.0,617.0"/><polyline points="253.0,606.0 252.0,605.0 252.0,604.0"/><polyline points="236.0,611.0 235.0,610.0 235.0,609.0"/><polyline points="138.0,617.0 142.0,617.0 144.0,615.0 144.0,602.0 145.0,601.0 145.0,515.0 144.0,514.0 143.0,515.0 139.0,515.0 138.0,516.0 136.0,516.0 135.0,517.0 133.0,517.0 132.0,518.0 130.0,518.0 129.0,519.0 127.0,519.0 126.0,520.0 124.0,520.0 123.0,521.0 121.0,521.0 119.0,523.0 118.0,523.0 117.0,524.0 116.0,524.0 115.0,525.0 112.0,526.0 110.0,528.0 109.0,528.0 108.0,529.0 107.0,529.0 106.0,530.0 103.0,531.0 101.0,533.0 98.0,534.0 95.0,537.0 95.0,538.0 89.0,544.0 89.0,545.0 83.0,551.0 83.0,552.0 77.0,558.0 77.0,559.0 76.0,560.0 76.0,562.0 75.0,563.0 75.0,565.0 74.0,566.0 74.0,568.0 73.0,569.0 73.0,571.0 72.0,572.0 72.0,574.0 71.0,575.0 71.0,577.0 70.0,578.0 70.0,580.0 69.0,581.0 69.0,583.0 67.0,586.0 67.0,588.0 66.0,589.0 65.0,592.0 62.0,595.0 62.0,596.0 58.0,600.0 58.0,601.0 55.0,604.0 55.0,605.0 43.0,618.0 43.0,634.0 42.0,635.0 42.0,636.0 40.0,638.0 40.0,640.0 37.0,643.0 37.0,645.0"/><polyline points="184.0,655.0 186.0,655.0 188.0,657.0 188.0,659.0 187.0,660.0 187.0,661.0 185.0,663.0 185.0,664.0 183.0,667.0 183.0,669.0 182.0,670.0 182.0,671.0 181.0,672.0 181.0,673.0 180.0,674.0 180.0,675.0 179.0,676.0 179.0,677.0 176.0,682.0 176.0,684.0 175.0,685.0 175.0,686.0 172.0,689.0 172.0,693.0 171.0,694.0 171.0,695.0 168.0,700.0 168.0,702.0 166.0,704.0 165.0,707.0 162.0,710.0 161.0,710.0 158.0,707.0 158.0,701.0 157.0,700.0 157.0,698.0 155.0,695.0 155.0,693.0 154.0,692.0 154.0,691.0"/><polyline points="192.0,673.0 192.0,665.0 191.0,664.0 191.0,662.0 189.0,660.0 188.0,660.0"/><polyline points="898.0,687.0 935.0,687.0"/><polyline points="548.0,97.0 548.0,100.0 547.0,101.0 547.0,105.0 549.0,107.0 550.0,107.0 553.0,110.0 553.0,112.0 549.0,116.0 548.0,116.0 546.0,118.0 543.0,119.0 541.0,121.0 540.0,121.0 535.0,124.0 532.0,124.0 531.0,125.0 529.0,125.0 527.0,127.0"/><polyline points="423.0,155.0 422.0,156.0 419.0,157.0"/><polyline points="426.0,157.0 426.0,158.0 428.0,160.0 428.0,161.0 436.0,170.0 436.0,171.0 439.0,174.0 439.0,175.0 443.0,179.0 443.0,180.0 447.0,184.0 449.0,184.0"/><polyline points="92.0,158.0 92.0,162.0 93.0,163.0 93.0,169.0 94.0,170.0 94.0,175.0 95.0,176.0 95.0,181.0 96.0,182.0 96.0,186.0 99.0,189.0 100.0,189.0 101.0,190.0 102.0,189.0 108.0,189.0 109.0,188.0 116.0,188.0 117.0,187.0 123.0,187.0 124.0,186.0 129.0,186.0 131.0,184.0 131.0,181.0 130.0,180.0 130.0,177.0 129.0,176.0 129.0,172.0"/><polyline points="586.0,163.0 588.0,163.0"/><polyline points="582.0,164.0 585.0,164.0"/><polyline points="578.0,165.0 581.0,165.0"/><polyline points="340.0,168.0 351.0,168.0"/><polyline points="336.0,169.0 339.0,169.0"/><polyline points="558.0,170.0 560.0,170.0"/><polyline points="554.0,171.0 557.0,171.0"/><polyline points="293.0,172.0 300.0,172.0"/><polyline points="550.0,172.0 553.0,172.0"/><polyline points="546.0,173.0 549.0,173.0"/><polyline points="542.0,174.0 545.0,174.0"/><polyline points="538.0,175.0 541.0,175.0"/><polyline points="534.0,176.0 537.0,176.0"/><polyline points="131.0,185.0 136.0,185.0"/><polyline points="428.0,223.0 432.0,227.0 432.0,228.0 436.0,232.0 436.0,233.0 442.0,240.0 442.0,241.0 444.0,243.0 444.0,244.0 446.0,246.0 446.0,247.0 448.0,249.0 448.0,250.0 450.0,252.0 450.0,253.0 452.0,255.0 452.0,256.0 456.0,261.0 457.0,264.0 461.0,269.0 462.0,272.0 464.0,274.0 464.0,275.0 465.0,276.0 465.0,277.0 466.0,278.0 466.0,279.0 469.0,284.0 469.0,286.0 471.0,289.0 471.0,291.0 472.0,292.0 472.0,293.0 473.0,294.0 473.0,296.0 475.0,299.0 475.0,301.0 476.0,302.0 476.0,304.0 477.0,305.0 477.0,306.0 478.0,307.0 479.0,307.0"/><polyline points="405.0,241.0 408.0,241.0"/><polyline points="400.0,243.0 402.0,243.0"/><polyline points="527.0,298.0 532.0,298.0"/><polyline points="521.0,299.0 526.0,299.0"/><polyline points="436.0,345.0 438.0,347.0 438.0,348.0 439.0,349.0 439.0,350.0 440.0,351.0 440.0,352.0 441.0,353.0 441.0,354.0 442.0,355.0 442.0,356.0 443.0,357.0 443.0,358.0 444.0,359.0 444.0,360.0 445.0,361.0 445.0,362.0 446.0,363.0 447.0,366.0 449.0,368.0 449.0,369.0 452.0,374.0"/><polyline points="540.0,399.0 537.0,402.0 535.0,402.0 532.0,404.0 530.0,404.0 528.0,406.0 528.0,407.0 527.0,408.0 527.0,410.0"/><polyline points="801.0,452.0 808.0,452.0"/><polyline points="681.0,456.0 679.0,458.0 679.0,467.0 680.0,468.0 688.0,468.0 689.0,469.0 699.0,469.0 700.0,470.0 705.0,470.0 707.0,472.0"/><polyline points="677.0,457.0 679.0,457.0"/><polyline points="669.0,459.0 674.0,459.0"/><polyline points="668.0,460.0 667.0,461.0 665.0,461.0 664.0,462.0 662.0,462.0 661.0,463.0 660.0,463.0"/><polyline points="739.0,470.0 741.0,472.0 761.0,472.0 762.0,473.0 777.0,473.0"/><polyline points="633.0,473.0 630.0,476.0 629.0,476.0 628.0,477.0 626.0,477.0 625.0,478.0 624.0,478.0 623.0,477.0"/><polyline points="597.0,487.0 595.0,489.0 594.0,489.0 593.0,490.0 591.0,490.0 588.0,492.0 586.0,492.0 585.0,493.0 584.0,493.0 583.0,494.0 581.0,494.0 578.0,496.0 577.0,496.0 576.0,495.0 576.0,492.0 575.0,491.0"/><polyline points="158.0,512.0 160.0,512.0"/><polyline points="149.0,513.0 157.0,513.0"/><polyline points="145.0,514.0 148.0,514.0"/><polyline points="507.0,514.0 504.0,516.0 502.0,516.0 501.0,517.0 499.0,517.0 498.0,518.0 496.0,518.0 495.0,519.0 494.0,519.0 492.0,521.0 492.0,522.0"/><polyline points="312.0,583.0 309.0,585.0 307.0,585.0 306.0,586.0 304.0,586.0 303.0,587.0 299.0,587.0 298.0,588.0 294.0,588.0 293.0,589.0 291.0,589.0 290.0,590.0 287.0,590.0 286.0,591.0 284.0,591.0 283.0,592.0 282.0,592.0 280.0,594.0 280.0,595.0"/><polyline points="200.0,619.0 200.0,620.0 201.0,621.0 201.0,630.0 200.0,631.0 200.0,633.0 199.0,634.0 199.0,635.0 198.0,636.0 198.0,637.0 195.0,642.0 195.0,644.0 194.0,645.0 194.0,646.0 193.0,647.0 193.0,648.0 192.0,649.0 192.0,650.0 191.0,651.0 190.0,654.0 188.0,656.0"/></g></svg>