<svg xmlns="http://www.w3.org/2000/svg" width="1024" height="987.2970451010887" viewBox="0 0 1024 987.2970451010887" preserveAspectRatio="xMidYMid meet" style="width: 100%; height: auto;"><defs><filter id="soft-glow" x="-50%" y="-50%" width="200%" height="200%"><feGaussianBlur in="SourceGraphic" stdDeviation="2.2" result="b"/><feMerge><feMergeNode in="b"/><feMergeNode in="SourceGraphic"/></feMerge></filter></defs><g stroke="#607d8b" fill="none" opacity="0.25"><path d="M 948.7651632970452 50.27682737169518 L 950.2332814930016 50.27682737169518 L 954.637636080871 47.34059097978227 L 957.5738724727839 47.34059097978227 L 959.0419906687404 45.87247278382581 L 961.9782270606532 45.87247278382581 L 963.4463452566097 44.40435458786936 L 966.3825816485227 44.40435458786936 L 970.786936236392 41.46811819595646 L 975.1912908242614 41.46811819595646 L 976.6594090202178 40 L 981.0637636080871 40 L 984 42.93623639191291 L 984 63.48989113530327 L 982.5318818040436 64.95800933125972 L 982.5318818040436 81.10730948678072 L 981.0637636080871 82.57542768273717 L 981.0637636080871 98.72472783825816 L 979.5956454121307 100.19284603421463 L 979.5956454121307 106.06531881804044 L 973.7231726283048 111.93779160186625 L 966.3825816485227 111.93779160186625 L 964.9144634525661 110.4696734059098 L 954.637636080871 110.4696734059098 L 950.2332814930016 113.40590979782272 L 950.2332814930016 117.81026438569208" stroke-width="6" stroke-linecap="round" stroke-linejoin="round"/><path d="M 845.9968895800934 81.10730948678072 L 844.5287713841369 81.10730948678072 L 841.592534992224 84.04354587869364 L 841.592534992224 86.97978227060653 L 840.1244167962675 88.447900466563 L 840.1244167962675 97.25660964230171 L 838.6562986003111 98.72472783825816 L 838.6562986003111 104.59720062208399 L 837.1881804043546 106.06531881804044 L 826.9113530326595 106.06531881804044 L 825.443234836703 107.53343701399689 L 823.9751166407466 107.53343701399689 L 821.0388802488336 110.4696734059098 L 821.0388802488336 114.87402799377917 L 818.1026438569207 119.27838258164853 L 807.8258164852256 119.27838258164853" stroke-width="6" stroke-linecap="round" stroke-linejoin="round"/><path d="M 668.3545878693624 92.85225505443235 L 668.3545878693624 91.3841368584759 L 669.8227060653188 89.91601866251943 L 669.8227060653188 86.97978227060653 L 671.2908242612754 85.51166407465007 L 671.2908242612754 84.04354587869364 L 674.2270606531882 81.10730948678072 L 675.6951788491447 82.57542768273717 L 681.5676516329705 82.57542768273717 L 683.035769828927 84.04354587869364 L 690.3763608087093 84.04354587869364 L 691.8444790046657 85.51166407465007 L 697.7169517884915 85.51166407465007 L 699.185069984448 86.97978227060653 L 705.0575427682737 86.97978227060653 L 706.5256609642302 88.447900466563 L 713.8662519440124 88.447900466563 L 715.3343701399689 89.91601866251943 L 721.2068429237947 89.91601866251943 L 722.6749611197512 91.3841368584759 L 730.0155520995335 91.3841368584759 L 731.4836702954899 92.85225505443235 L 737.3561430793158 92.85225505443235 L 738.8242612752722 94.3203732503888 L 744.696734059098 94.3203732503888 L 746.1648522550545 95.78849144634526 L 753.5054432348368 95.78849144634526 L 754.9735614307932 97.25660964230171 L 760.8460342146191 97.25660964230171 L 762.3141524105755 98.72472783825816 L 769.6547433903578 98.72472783825816 L 771.1228615863142 100.19284603421463 L 779.931570762053 100.19284603421463 L 781.3996889580094 101.66096423017107 L 790.2083981337481 101.66096423017107 L 791.6765163297046 103.12908242612752 L 800.4852255054433 103.12908242612752 L 801.9533437013997 104.59720062208399 L 810.7620528771384 104.59720062208399 L 812.2301710730949 106.06531881804044 L 816.6345256609643 106.06531881804044 L 821.0388802488336 109.00155520995335" stroke-width="6" stroke-linecap="round" stroke-linejoin="round"/><path d="M 920.8709175738725 103.12908242612752 L 920.8709175738725 106.06531881804044 L 919.402799377916 107.53343701399689 L 917.9346811819596 107.53343701399689 L 913.5303265940903 110.4696734059098 L 910.5940902021773 110.4696734059098 L 909.1259720062209 111.93779160186625 L 907.6578538102644 111.93779160186625 L 901.7853810264386 117.81026438569208 L 901.7853810264386 122.21461897356144 L 900.3172628304822 123.68273716951789 L 900.3172628304822 126.61897356143079" stroke-width="6" stroke-linecap="round" stroke-linejoin="round"/><path d="M 844.5287713841369 128.08709175738727 L 843.0606531881805 128.08709175738727 L 840.1244167962675 125.15085536547434 L 840.1244167962675 120.74650077760498 L 841.592534992224 119.27838258164853 L 841.592534992224 110.4696734059098 L 838.6562986003111 107.53343701399689 L 838.6562986003111 106.06531881804044" stroke-width="6" stroke-linecap="round" stroke-linejoin="round"/><path d="M 1025.1073094867807 141.30015552099536 L 1025.1073094867807 142.7682737169518 L 1028.0435458786937 145.7045101088647 L 1028.0435458786937 148.6407465007776 L 1023.6391912908243 153.04510108864696 L 1019.2348367029549 154.51321928460342" stroke-width="6" stroke-linecap="round" stroke-linejoin="round"/><path d="M 1054.4696734059098 145.7045101088647 L 1053.0015552099535 147.17262830482116 L 1050.0653188180404 147.17262830482116 L 1047.1290824261278 150.10886469673406 L 1045.660964230171 150.10886469673406 L 1041.2566096423018 153.04510108864696 L 1038.320373250389 153.04510108864696 L 1036.8522550544324 151.57698289269052 L 1033.9160186625195 151.57698289269052 L 1032.4479004665632 150.10886469673406 L 1028.0435458786937 150.10886469673406" stroke-width="6" stroke-linecap="round" stroke-linejoin="round"/><path d="M 1045.660964230171 161.8538102643857 L 1042.7247278382583 158.9175738724728 L 1041.2566096423018 154.51321928460342" stroke-width="6" stroke-linecap="round" stroke-linejoin="round"/><path d="M 838.6562986003111 163.32192846034215 L 837.1881804043546 161.8538102643857 L 837.1881804043546 160.38569206842925 L 834.2519440124418 157.44945567651632 L 828.3794712286159 157.44945567651632 L 826.9113530326595 155.9813374805599 L 821.0388802488336 155.9813374805599 L 819.5707620528772 154.51321928460342 L 815.1664074650079 154.51321928460342 L 813.6982892690513 153.04510108864696 L 810.7620528771384 153.04510108864696 L 806.3576982892691 150.10886469673406 L 806.3576982892691 148.6407465007776 L 807.8258164852256 147.17262830482116 L 807.8258164852256 141.30015552099536 L 809.293934681182 139.83203732503887 L 812.2301710730949 139.83203732503887 L 813.6982892690513 138.36391912908243 L 815.1664074650079 138.36391912908243 L 821.0388802488336 129.5552099533437 L 821.0388802488336 123.68273716951789 L 818.1026438569207 120.74650077760498" stroke-width="6" stroke-linecap="round" stroke-linejoin="round"/><path d="M 766.7185069984448 175.06687402799378 L 768.1866251944012 176.53499222395024 L 772.5909797822707 176.53499222395024 L 774.0590979782271 175.06687402799378 L 775.5272161741835 175.06687402799378 L 784.3359253499223 166.25816485225505 L 785.8040435458787 166.25816485225505 L 800.4852255054433 151.57698289269052 L 804.8895800933126 150.10886469673406" stroke-width="6" stroke-linecap="round" stroke-linejoin="round"/><path d="M 732.9517884914463 205.89735614307932 L 734.4199066874029 205.89735614307932 L 735.8880248833593 207.36547433903579 L 738.8242612752722 207.36547433903579 L 740.2923794712286 205.89735614307932 L 741.7604976671851 205.89735614307932 L 747.6329704510109 200.02488335925352 L 749.1010886469674 200.02488335925352 L 762.3141524105755 186.81181959564543 L 763.7822706065319 186.81181959564543 L 766.7185069984448 183.8755832037325 L 766.7185069984448 182.40746500777607 L 768.1866251944012 180.9393468118196 L 768.1866251944012 178.0031104199067" stroke-width="6" stroke-linecap="round" stroke-linejoin="round"/><path d="M 703.5894245723173 211.76982892690515 L 705.0575427682737 210.30171073094868 L 706.5256609642302 211.76982892690515 L 712.398133748056 211.76982892690515 L 713.8662519440124 213.23794712286158 L 716.8024883359254 213.23794712286158 L 718.2706065318819 214.70606531881805 L 722.6749611197512 214.70606531881805 L 725.6111975116642 217.64230171073095 L 725.6111975116642 223.51477449455678 L 724.1430793157076 224.98289269051324 L 724.1430793157076 227.91912908242614 L 722.6749611197512 229.3872472783826 L 719.7387247278383 229.3872472783826 L 716.8024883359254 232.3234836702955 L 716.8024883359254 233.79160186625197 L 710.9300155520996 239.66407465007777 L 710.9300155520996 241.13219284603423 L 703.5894245723173 248.4727838258165 L 700.6531881804044 248.4727838258165 L 699.185069984448 249.94090202177296 L 694.7807153965786 248.4727838258165 L 693.3125972006221 249.94090202177296" stroke-width="6" stroke-linecap="round" stroke-linejoin="round"/><path d="M 731.4836702954899 232.3234836702955 L 730.0155520995335 232.3234836702955 L 725.6111975116642 227.91912908242614" stroke-width="6" stroke-linecap="round" stroke-linejoin="round"/><path d="M 666.8864696734059 283.7076205287714 L 668.3545878693624 285.17573872472786 L 669.8227060653188 283.7076205287714 L 672.7589424572318 283.7076205287714 L 694.7807153965786 261.6858475894246 L 694.7807153965786 260.2177293934681 L 697.7169517884915 257.2814930015552 L 697.7169517884915 255.81337480559876 L 699.185069984448 254.34525660964232 L 699.185069984448 251.4090202177294" stroke-width="6" stroke-linecap="round" stroke-linejoin="round"/><path d="M 663.9502332814931 308.6656298600311 L 659.5458786936236 304.26127527216175 L 659.5458786936236 302.7931570762053 L 661.0139968895801 301.3250388802488 L 661.0139968895801 298.38880248833595 L 662.4821150855366 296.92068429237946 L 662.4821150855366 295.452566096423 L 665.4183514774495 292.5163297045101 L 665.4183514774495 291.04821150855366 L 666.8864696734059 289.5800933125972 L 666.8864696734059 286.6438569206843" stroke-width="6" stroke-linecap="round" stroke-linejoin="round"/><path d="M 641.9284603421462 310.13374805598755 L 644.8646967340592 313.0699844479005 L 646.3328149300156 311.60186625194405 L 650.7371695178849 310.13374805598755 L 653.6734059097979 307.1975116640747 L 655.1415241057543 307.1975116640747 L 656.6096423017108 305.7293934681182 L 659.5458786936236 305.7293934681182" stroke-width="6" stroke-linecap="round" stroke-linejoin="round"/><path d="M 647.800933125972 332.15552099533437 L 646.3328149300156 330.68740279937794 L 644.8646967340592 330.68740279937794 L 640.4603421461898 326.28304821150857 L 640.4603421461898 324.81493001555214 L 641.9284603421462 323.34681181959564 L 641.9284603421462 318.9424572317263 L 643.3965785381026 317.47433903576984 L 643.3965785381026 314.5381026438569" stroke-width="6" stroke-linecap="round" stroke-linejoin="round"/><path d="M 628.7153965785382 336.55987558320373 L 636.0559875583205 329.2192846034215 L 640.4603421461898 327.751166407465" stroke-width="6" stroke-linecap="round" stroke-linejoin="round"/><path d="M 1023.6391912908243 637.5241057542769 L 956.1057542768274 637.5241057542769 L 954.637636080871 638.9922239502333" stroke-width="6" stroke-linecap="round" stroke-linejoin="round"/><path d="M 922.339035769829 106.06531881804044 L 925.2752721617419 110.4696734059098 L 942.8926905132193 110.4696734059098 L 944.3608087091758 111.93779160186625 L 948.7651632970452 111.93779160186625" stroke-width="6" stroke-linecap="round" stroke-linejoin="round"/><path d="M 844.5287713841369 109.00155520995335 L 847.4650077760498 109.00155520995335 L 848.9331259720062 110.4696734059098 L 863.6143079315708 110.4696734059098 L 865.0824261275272 111.93779160186625 L 879.7636080870918 111.93779160186625 L 881.2317262830483 113.40590979782272 L 895.9129082426128 113.40590979782272 L 900.3172628304822 116.34214618973562" stroke-width="6" stroke-linecap="round" stroke-linejoin="round"/><path d="M 975.1912908242614 111.93779160186625 L 975.1912908242614 120.74650077760498 L 973.7231726283048 122.21461897356144 L 973.7231726283048 126.61897356143079 L 972.2550544323484 128.08709175738727 L 975.1912908242614 131.02332814930014 L 1000.149300155521 131.02332814930014 L 1001.6174183514775 132.49144634525663 L 1003.085536547434 132.49144634525663 L 1004.5536547433904 133.95956454121307 L 1004.5536547433904 135.4276827371695 L 1008.9580093312597 139.83203732503887 L 1011.8942457231727 139.83203732503887 L 1013.3623639191292 141.30015552099536 L 1017.7667185069985 141.30015552099536 L 1025.1073094867807 148.6407465007776" stroke-width="6" stroke-linecap="round" stroke-linejoin="round"/><path d="M 735.8880248833593 208.83359253499222 L 735.8880248833593 210.30171073094868 L 731.4836702954899 214.70606531881805 L 728.547433903577 214.70606531881805 L 727.0793157076206 216.1741835147745 L 725.6111975116642 216.1741835147745" stroke-width="6" stroke-linecap="round" stroke-linejoin="round"/></g><g stroke="#607d8b" fill="none" opacity="0.25"/><g stroke="#607d8b" fill="none" opacity="0.25"><path d="M 1011.8942457231727 145.7045101088647 L 1004.5536547433904 145.7045101088647 L 1003.085536547434 144.23639191290823 L 1003.085536547434 142.7682737169518 L 998.6811819595646 135.4276827371695 L 973.7231726283048 135.4276827371695 L 970.786936236392 138.36391912908243 L 970.786936236392 139.83203732503887 L 967.8506998444791 144.23639191290823 L 967.8506998444791 147.17262830482116 L 966.3825816485227 148.6407465007776 L 966.3825816485227 150.10886469673406 L 961.9782270606532 154.51321928460342 L 960.5101088646968 154.51321928460342 L 959.0419906687404 155.9813374805599 L 954.637636080871 155.9813374805599" stroke-width="6" stroke-linecap="round" stroke-linejoin="round"/><path d="M 945.8289269051322 176.53499222395024 L 947.2970451010887 178.0031104199067 L 953.1695178849145 178.0031104199067 L 959.0419906687404 172.13063763608088 L 959.0419906687404 169.19440124416798 L 960.5101088646968 167.7262830482115 L 960.5101088646968 158.9175738724728 L 959.0419906687404 157.44945567651632" stroke-width="6" stroke-linecap="round" stroke-linejoin="round"/><path d="M 1050.0653188180404 183.8755832037325 L 1048.597200622084 183.8755832037325 L 1047.1290824261278 182.40746500777607 L 1044.1928460342147 182.40746500777607 L 1042.7247278382583 180.9393468118196 L 1039.7884914463452 180.9393468118196 L 1038.320373250389 179.47122861586314 L 1035.3841368584758 179.47122861586314 L 1033.9160186625195 178.0031104199067 L 1030.9797822706066 178.0031104199067 L 1029.51166407465 176.53499222395024 L 1026.5754276827372 176.53499222395024 L 1025.1073094867807 175.06687402799378 L 1022.1710730948679 175.06687402799378 L 1017.7667185069985 172.13063763608088 L 1014.8304821150856 172.13063763608088 L 1013.3623639191292 170.6625194401244 L 1010.4261275272162 170.6625194401244 L 1008.9580093312597 169.19440124416798 L 1006.0217729393469 169.19440124416798 L 1004.5536547433904 167.7262830482115 L 1001.6174183514775 167.7262830482115 L 1000.149300155521 166.25816485225505 L 998.6811819595646 166.25816485225505 L 995.7449455676517 163.32192846034215 L 995.7449455676517 157.44945567651632 L 997.2130637636081 155.9813374805599 L 997.2130637636081 153.04510108864696 L 998.6811819595646 151.57698289269052 L 998.6811819595646 150.10886469673406 L 1003.085536547434 145.7045101088647" stroke-width="6" stroke-linecap="round" stroke-linejoin="round"/><path d="M 890.040435458787 189.74805598755833 L 891.5085536547434 188.27993779160187 L 912.0622083981337 188.27993779160187 L 913.5303265940903 189.74805598755833 L 923.8071539657855 189.74805598755833 L 925.2752721617419 191.2161741835148 L 937.0202177293935 191.2161741835148 L 938.4883359253499 192.68429237947123 L 947.2970451010887 192.68429237947123 L 948.7651632970452 191.2161741835148 L 950.2332814930016 191.2161741835148 L 953.1695178849145 188.27993779160187 L 953.1695178849145 186.81181959564543 L 954.637636080871 185.34370139968897 L 954.637636080871 182.40746500777607 L 953.1695178849145 180.9393468118196 L 953.1695178849145 179.47122861586314" stroke-width="6" stroke-linecap="round" stroke-linejoin="round"/><path d="M 859.2099533437015 205.89735614307932 L 860.6780715396579 204.42923794712289 L 862.1461897356144 204.42923794712289 L 863.6143079315708 205.89735614307932 L 879.7636080870918 205.89735614307932 L 881.2317262830483 204.42923794712289 L 892.9766718506999 204.42923794712289 L 900.3172628304822 197.0886469673406 L 900.3172628304822 189.74805598755833" stroke-width="6" stroke-linecap="round" stroke-linejoin="round"/><path d="M 825.443234836703 235.2597200622084 L 831.3157076205288 235.2597200622084 L 838.6562986003111 227.91912908242614 L 840.1244167962675 227.91912908242614 L 841.592534992224 226.45101088646967 L 844.5287713841369 226.45101088646967 L 845.9968895800934 224.98289269051324 L 848.9331259720062 224.98289269051324 L 850.4012441679628 223.51477449455678 L 853.3374805598756 223.51477449455678 L 854.8055987558321 222.0466562986003 L 857.741835147745 222.0466562986003 L 859.2099533437015 220.57853810264388 L 862.1461897356144 220.57853810264388 L 865.0824261275272 217.64230171073095 L 869.4867807153967 216.1741835147745 L 873.891135303266 211.76982892690515 L 875.3592534992224 207.36547433903579" stroke-width="6" stroke-linecap="round" stroke-linejoin="round"/><path d="M 819.5707620528772 271.9626749611198 L 826.9113530326595 271.9626749611198 L 832.7838258164853 266.0902021772939 L 832.7838258164853 254.34525660964232 L 831.3157076205288 252.87713841368586 L 831.3157076205288 249.94090202177296 L 829.8475894245723 248.4727838258165 L 829.8475894245723 236.72783825816487" stroke-width="6" stroke-linecap="round" stroke-linejoin="round"/><path d="M 722.6749611197512 276.36702954898914 L 722.6749611197512 277.8351477449456 L 721.2068429237947 279.30326594090207 L 721.2068429237947 283.7076205287714 L 725.6111975116642 286.6438569206843 L 728.547433903577 286.6438569206843 L 732.9517884914463 289.5800933125972 L 735.8880248833593 289.5800933125972 L 737.3561430793158 291.04821150855366 L 740.2923794712286 291.04821150855366 L 744.696734059098 293.9844479004666 L 747.6329704510109 293.9844479004666 L 749.1010886469674 295.452566096423 L 752.0373250388803 295.452566096423 L 756.4416796267496 298.38880248833595 L 759.3779160186625 298.38880248833595 L 760.8460342146191 299.8569206842924 L 763.7822706065319 299.8569206842924 L 768.1866251944012 302.7931570762053 L 771.1228615863142 302.7931570762053 L 772.5909797822707 304.26127527216175 L 775.5272161741835 304.26127527216175 L 779.931570762053 307.1975116640747 L 782.8678071539658 307.1975116640747 L 784.3359253499223 308.6656298600311 L 787.2721617418352 308.6656298600311 L 791.6765163297046 311.60186625194405 L 800.4852255054433 311.60186625194405 L 801.9533437013997 310.13374805598755 L 803.4214618973562 310.13374805598755 L 809.293934681182 304.26127527216175 L 809.293934681182 302.7931570762053 L 812.2301710730949 299.8569206842924 L 812.2301710730949 295.452566096423 L 813.6982892690513 293.9844479004666 L 813.6982892690513 292.5163297045101 L 815.1664074650079 291.04821150855366 L 816.6345256609643 291.04821150855366 L 822.50699844479 285.17573872472786 L 822.50699844479 283.7076205287714 L 825.443234836703 279.30326594090207 L 825.443234836703 273.4307931570762" stroke-width="6" stroke-linecap="round" stroke-linejoin="round"/><path d="M 809.293934681182 291.04821150855366 L 810.7620528771384 292.5163297045101 L 812.2301710730949 292.5163297045101" stroke-width="6" stroke-linecap="round" stroke-linejoin="round"/><path d="M 782.8678071539658 327.751166407465 L 785.8040435458787 330.68740279937794 L 785.8040435458787 339.49611197511666 L 784.3359253499223 340.9642301710731 L 784.3359253499223 346.83670295489895 L 782.8678071539658 348.3048211508554 L 782.8678071539658 349.7729393468118 L 778.4634525660965 354.1772939346812 L 776.99533437014 354.1772939346812 L 775.5272161741835 355.6454121306377 L 771.1228615863142 355.6454121306377 L 766.7185069984448 351.2410575427683" stroke-width="6" stroke-linecap="round" stroke-linejoin="round"/><path d="M 750.5692068429238 371.79471228615864 L 753.5054432348368 374.73094867807157 L 754.9735614307932 373.2628304821151 L 759.3779160186625 373.2628304821151 L 760.8460342146191 371.79471228615864 L 762.3141524105755 371.79471228615864 L 763.7822706065319 370.3265940902022 L 763.7822706065319 368.85847589424577 L 769.6547433903578 362.9860031104199 L 769.6547433903578 361.5178849144635 L 771.1228615863142 360.04976671850704 L 771.1228615863142 357.1135303265941" stroke-width="6" stroke-linecap="round" stroke-linejoin="round"/><path d="M 730.0155520995335 382.0715396578538 L 732.9517884914463 385.00777604976673 L 740.2923794712286 385.00777604976673 L 741.7604976671851 383.5396578538103 L 746.1648522550545 382.0715396578538 L 750.5692068429238 377.66718506998444 L 750.5692068429238 376.199066874028 L 752.0373250388803 374.73094867807157" stroke-width="6" stroke-linecap="round" stroke-linejoin="round"/><path d="M 638.9922239502333 417.3063763608087 L 638.9922239502333 418.7744945567652 L 634.5878693623639 421.7107309486781 L 628.7153965785382 421.7107309486781 L 627.2472783825817 420.24261275272164 L 622.8429237947123 420.24261275272164 L 621.3748055987559 418.7744945567652 L 616.9704510108864 418.7744945567652 L 615.50233281493 417.3063763608087 L 609.6298600311043 417.3063763608087 L 608.1617418351477 415.8382581648523 L 602.289269051322 415.8382581648523 L 600.8211508553655 414.37013996889584 L 594.9486780715397 414.37013996889584 L 593.4805598755833 412.90202177293935 L 587.6080870917574 412.90202177293935 L 586.139968895801 411.4339035769829 L 580.2674961119751 411.4339035769829 L 578.7993779160187 409.9657853810265 L 568.5225505443235 409.9657853810265 L 561.1819595645412 417.3063763608087 L 559.7138413685848 417.3063763608087 L 553.8413685847589 423.17884914463457" stroke-width="6" stroke-linecap="round" stroke-linejoin="round"/><path d="M 671.2908242612754 470.1586314152411 L 674.2270606531882 470.1586314152411 L 678.6314152410575 465.7542768273717 L 678.6314152410575 461.34992223950235 L 680.0995334370141 459.8818040435459 L 680.0995334370141 454.0093312597201 L 681.5676516329705 452.5412130637636 L 681.5676516329705 445.2006220839814 L 683.035769828927 443.7325038880249 L 683.035769828927 439.32814930015553 L 681.5676516329705 437.8600311041991 L 681.5676516329705 436.39191290824266 L 678.6314152410575 433.45567651632973 L 675.6951788491447 433.45567651632973 L 674.2270606531882 431.9875583203733 L 669.8227060653188 431.9875583203733 L 668.3545878693624 430.5194401244168 L 663.9502332814931 430.5194401244168 L 662.4821150855366 429.05132192846037 L 659.5458786936236 429.05132192846037 L 658.0777604976672 427.58320373250393 L 653.6734059097979 427.58320373250393 L 652.2052877138414 426.11508553654744 L 647.800933125972 426.11508553654744 L 646.3328149300156 424.646967340591 L 643.3965785381026 424.646967340591 L 638.9922239502333 420.24261275272164" stroke-width="6" stroke-linecap="round" stroke-linejoin="round"/><path d="M 653.6734059097979 492.1804043545879 L 656.6096423017108 492.1804043545879 L 659.5458786936236 495.1166407465008 L 658.0777604976672 496.58475894245726 L 658.0777604976672 500.9891135303266 L 655.1415241057543 503.92534992223955 L 655.1415241057543 505.393468118196 L 649.2690513219285 511.2659409020218 L 647.800933125972 511.2659409020218 L 646.3328149300156 512.7340590979783 L 646.3328149300156 518.6065318818041 L 643.3965785381026 521.542768273717 L 643.3965785381026 523.0108864696734 L 640.4603421461898 525.9471228615864 L 640.4603421461898 527.4152410575427 L 637.5241057542769 530.3514774494557 L 637.5241057542769 531.8195956454122 L 634.5878693623639 534.755832037325 L 634.5878693623639 536.2239502332816 L 627.2472783825817 543.5645412130639 L 618.438569206843 543.5645412130639 L 614.0342146189736 539.1601866251945 L 614.0342146189736 537.6920684292379" stroke-width="6" stroke-linecap="round" stroke-linejoin="round"/><path d="M 641.9284603421462 511.2659409020218 L 644.8646967340592 511.2659409020218" stroke-width="6" stroke-linecap="round" stroke-linejoin="round"/><path d="M 575.8631415241058 537.6920684292379 L 578.7993779160187 540.6283048211509 L 580.2674961119751 540.6283048211509 L 587.6080870917574 547.9688958009332 L 590.5443234836704 547.9688958009332 L 592.0124416796268 546.5007776049767 L 600.8211508553655 546.5007776049767 L 602.289269051322 545.0326594090202 L 606.6936236391913 545.0326594090202 L 609.6298600311043 542.0964230171073 L 614.0342146189736 540.6283048211509" stroke-width="6" stroke-linecap="round" stroke-linejoin="round"/><path d="M 540.6283048211509 556.7776049766719 L 540.6283048211509 558.2457231726283 L 537.6920684292379 562.6500777604977 L 536.2239502332816 562.6500777604977 L 534.755832037325 561.1819595645412 L 525.9471228615864 561.1819595645412 L 524.4790046656299 559.7138413685848 L 520.0746500777605 559.7138413685848 L 518.6065318818041 558.2457231726283 L 517.1384136858476 559.7138413685848" stroke-width="6" stroke-linecap="round" stroke-linejoin="round"/><path d="M 540.6283048211509 580.2674961119751 L 542.0964230171073 580.2674961119751 L 545.0326594090202 583.2037325038881 L 545.0326594090202 586.139968895801 L 543.5645412130639 587.6080870917574 L 543.5645412130639 589.0762052877138 L 536.2239502332816 596.4167962674961 L 534.755832037325 596.4167962674961 L 531.8195956454122 599.3530326594091 L 530.3514774494557 599.3530326594091 L 528.8833592534993 600.8211508553655 L 524.4790046656299 600.8211508553655 L 523.0108864696734 599.3530326594091 L 518.6065318818041 597.8849144634526" stroke-width="6" stroke-linecap="round" stroke-linejoin="round"/><path d="M 476.0311041990669 616.9704510108864 L 478.9673405909798 616.9704510108864 L 481.90357698289273 619.9066874027994 L 484.8398133748056 619.9066874027994 L 487.77604976671853 622.8429237947123 L 489.24416796267496 622.8429237947123 L 492.1804043545879 625.7791601866252 L 492.1804043545879 631.651632970451 L 489.24416796267496 634.5878693623639 L 489.24416796267496 636.0559875583205 L 484.8398133748056 640.4603421461898 L 484.8398133748056 641.9284603421462 L 481.90357698289273 644.8646967340592 L 481.90357698289273 646.3328149300156 L 480.43545878693624 647.800933125972 L 478.9673405909798 652.2052877138414 L 476.0311041990669 655.1415241057543 L 476.0311041990669 656.6096423017108 L 471.6267496111975 661.0139968895801 L 465.7542768273717 661.0139968895801 L 464.2861586314153 659.5458786936236" stroke-width="6" stroke-linecap="round" stroke-linejoin="round"/><path d="M 1023.6391912908243 663.9502332814931 L 956.1057542768274 663.9502332814931 L 954.637636080871 665.4183514774495" stroke-width="6" stroke-linecap="round" stroke-linejoin="round"/><path d="M 445.2006220839814 674.2270606531882 L 446.6687402799378 674.2270606531882 L 448.13685847589426 675.6951788491447 L 452.5412130637636 677.1632970451011 L 455.47744945567655 680.0995334370141 L 455.47744945567655 684.5038880248834 L 454.0093312597201 685.9720062208398 L 454.0093312597201 687.4401244167963 L 439.32814930015553 702.1213063763608 L 439.32814930015553 703.5894245723173 L 433.45567651632973 709.4618973561431 L 433.45567651632973 710.9300155520996 L 430.5194401244168 713.8662519440124 L 427.58320373250393 713.8662519440124 L 424.646967340591 716.8024883359254 L 424.646967340591 721.2068429237947 L 420.24261275272164 725.6111975116642 L 418.7744945567652 725.6111975116642 L 411.4339035769829 731.4836702954899 L 409.9657853810265 731.4836702954899 L 408.49766718507 732.9517884914463 L 407.02954898911355 732.9517884914463 L 404.0933125972006 735.8880248833593 L 402.6251944012442 735.8880248833593 L 396.7527216174184 741.7604976671851 L 395.2846034214619 741.7604976671851 L 392.348367029549 744.696734059098 L 390.88024883359253 744.696734059098 L 389.4121306376361 746.1648522550545 L 386.47589424572317 746.1648522550545 L 383.5396578538103 749.1010886469674 L 383.5396578538103 752.0373250388803 L 382.0715396578538 753.5054432348368 L 380.60342146189737 753.5054432348368 L 379.13530326594093 754.9735614307932 L 377.66718506998444 754.9735614307932 L 370.3265940902022 759.3779160186625 L 360.04976671850704 759.3779160186625 L 355.6454121306377 754.9735614307932 L 354.1772939346812 754.9735614307932" stroke-width="6" stroke-linecap="round" stroke-linejoin="round"/><path d="M 412.90202177293935 707.9937791601867 L 414.37013996889584 707.9937791601867 L 417.3063763608087 710.9300155520996 L 421.7107309486781 712.398133748056 L 424.646967340591 715.3343701399689" stroke-width="6" stroke-linecap="round" stroke-linejoin="round"/><path d="M 379.13530326594093 741.7604976671851 L 383.5396578538103 746.1648522550545" stroke-width="6" stroke-linecap="round" stroke-linejoin="round"/><path d="M 333.62363919129086 759.3779160186625 L 338.0279937791602 760.8460342146191 L 340.9642301710731 763.7822706065319 L 345.36858475894246 765.2503888024884 L 348.3048211508554 768.1866251944012 L 349.7729393468118 768.1866251944012 L 351.2410575427683 766.7185069984448 L 355.6454121306377 766.7185069984448 L 358.58164852255055 763.7822706065319 L 358.58164852255055 760.8460342146191" stroke-width="6" stroke-linecap="round" stroke-linejoin="round"/><path d="M 207.36547433903579 769.6547433903578 L 207.36547433903579 771.1228615863142 L 204.42923794712289 775.5272161741835 L 202.96111975116642 775.5272161741835 L 192.68429237947123 785.8040435458787 L 191.2161741835148 785.8040435458787 L 186.81181959564543 790.2083981337481 L 182.40746500777607 791.6765163297046 L 178.0031104199067 796.0808709175739 L 178.0031104199067 797.5489891135304 L 176.53499222395024 799.0171073094868 L 176.53499222395024 803.4214618973562 L 175.06687402799378 804.8895800933126 L 175.06687402799378 807.8258164852256 L 172.13063763608088 810.7620528771384 L 164.7900466562986 810.7620528771384 L 161.8538102643857 807.8258164852256 L 161.8538102643857 806.3576982892691" stroke-width="6" stroke-linecap="round" stroke-linejoin="round"/><path d="M 321.8786936236392 775.5272161741835 L 326.28304821150857 779.931570762053 L 333.62363919129086 779.931570762053 L 335.0917573872473 778.4634525660965 L 336.55987558320373 778.4634525660965 L 339.49611197511666 775.5272161741835 L 340.9642301710731 775.5272161741835 L 345.36858475894246 771.1228615863142 L 345.36858475894246 769.6547433903578 L 346.83670295489895 768.1866251944012" stroke-width="6" stroke-linecap="round" stroke-linejoin="round"/><path d="M 191.2161741835148 821.0388802488336 L 188.27993779160187 821.0388802488336 L 186.81181959564543 819.5707620528772 L 185.34370139968897 819.5707620528772 L 183.8755832037325 818.1026438569207 L 179.47122861586314 816.6345256609643 L 173.59875583203734 810.7620528771384" stroke-width="6" stroke-linecap="round" stroke-linejoin="round"/><path d="M 264.6220839813375 821.0388802488336 L 266.0902021772939 822.50699844479 L 273.4307931570762 822.50699844479 L 291.04821150855366 803.4214618973562 L 292.5163297045101 803.4214618973562 L 295.452566096423 800.4852255054433 L 296.92068429237946 800.4852255054433 L 298.38880248833595 799.0171073094868 L 299.8569206842924 799.0171073094868 L 301.3250388802488 797.5489891135304 L 305.7293934681182 796.0808709175739 L 308.6656298600311 793.144634525661 L 310.13374805598755 793.144634525661 L 311.60186625194405 791.6765163297046 L 316.0062208398134 790.2083981337481 L 318.9424572317263 787.2721617418352 L 320.4105754276828 787.2721617418352 L 324.81493001555214 782.8678071539658 L 324.81493001555214 781.3996889580094" stroke-width="6" stroke-linecap="round" stroke-linejoin="round"/><path d="M 230.85536547433904 848.9331259720062 L 232.3234836702955 848.9331259720062 L 238.19595645412133 854.8055987558321 L 244.06842923794713 854.8055987558321 L 245.5365474339036 853.3374805598756 L 247.00466562986006 853.3374805598756 L 263.15396578538105 837.1881804043546 L 263.15396578538105 835.7200622083982 L 267.5583203732504 831.3157076205288 L 267.5583203732504 829.8475894245723 L 269.02643856920685 828.3794712286159 L 269.02643856920685 823.9751166407466" stroke-width="6" stroke-linecap="round" stroke-linejoin="round"/><path d="M 69.36236391912908 857.741835147745 L 69.36236391912908 860.6780715396579 L 67.89424572317263 862.1461897356144 L 67.89424572317263 865.0824261275272 L 66.42612752721618 866.5505443234837 L 66.42612752721618 868.0186625194402 L 63.48989113530327 870.9548989113531 L 63.48989113530327 872.4230171073095 L 44.40435458786936 891.5085536547434 L 44.40435458786936 892.9766718506999 L 42.93623639191291 894.4447900466563 L 42.93623639191291 897.3810264385693 L 41.46811819595646 898.8491446345257 L 41.46811819595646 901.7853810264386 L 40 903.253499222395 L 40 910.5940902021773 L 41.46811819595646 912.0622083981337 L 41.46811819595646 914.9984447900467 L 42.93623639191291 916.4665629860032 L 42.93623639191291 919.402799377916 L 45.87247278382581 923.8071539657855 L 45.87247278382581 926.7433903576983 L 50.27682737169518 934.0839813374806 L 50.27682737169518 937.0202177293935 L 51.744945567651634 938.4883359253499 L 51.744945567651634 939.9564541213065 L 53.21306376360809 941.4245723172629 L 54.68118195956454 945.8289269051322 L 56.149300155521 947.2970451010887 L 62.02177293934682 947.2970451010887 L 63.48989113530327 945.8289269051322 L 66.42612752721618 945.8289269051322 L 67.89424572317263 944.3608087091758 L 70.83048211508554 944.3608087091758 L 72.298600311042 942.8926905132193 L 75.23483670295491 942.8926905132193 L 76.70295489891136 941.4245723172629 L 79.63919129082427 941.4245723172629 L 81.10730948678072 939.9564541213065 L 82.57542768273717 939.9564541213065 L 84.04354587869364 941.4245723172629 L 86.97978227060653 941.4245723172629 L 88.447900466563 942.8926905132193 L 91.3841368584759 942.8926905132193 L 92.85225505443235 944.3608087091758 L 98.72472783825816 944.3608087091758 L 101.66096423017107 941.4245723172629 L 101.66096423017107 939.9564541213065 L 103.12908242612752 938.4883359253499 L 104.59720062208399 934.0839813374806 L 107.53343701399689 931.1477449455678 L 107.53343701399689 929.6796267496112 L 111.93779160186625 925.2752721617419 L 111.93779160186625 923.8071539657855" stroke-width="6" stroke-linecap="round" stroke-linejoin="round"/><path d="M 201.49300155520996 866.5505443234837 L 202.96111975116642 866.5505443234837 L 204.42923794712289 868.0186625194402 L 208.83359253499222 869.4867807153967 L 216.1741835147745 875.3592534992224 L 214.70606531881805 876.827371695179 L 214.70606531881805 881.2317262830483 L 213.23794712286158 882.6998444790047 L 213.23794712286158 884.1679626749611 L 207.36547433903579 890.040435458787 L 205.89735614307932 890.040435458787 L 197.0886469673406 898.8491446345257 L 197.0886469673406 900.3172628304822 L 195.62052877138416 901.7853810264386 L 194.1524105754277 901.7853810264386 L 183.8755832037325 912.0622083981337 L 183.8755832037325 913.5303265940903 L 180.9393468118196 916.4665629860032 L 179.47122861586314 916.4665629860032 L 176.53499222395024 919.402799377916 L 175.06687402799378 919.402799377916 L 173.59875583203734 920.8709175738725 L 172.13063763608088 920.8709175738725 L 170.6625194401244 922.339035769829 L 169.19440124416798 922.339035769829 L 167.7262830482115 923.8071539657855 L 166.25816485225505 923.8071539657855 L 164.7900466562986 925.2752721617419 L 163.32192846034215 925.2752721617419 L 161.8538102643857 926.7433903576983 L 160.38569206842925 926.7433903576983 L 153.04510108864696 931.1477449455678 L 147.17262830482116 931.1477449455678 L 145.7045101088647 929.6796267496112 L 145.7045101088647 928.2115085536548 L 144.23639191290823 926.7433903576983 L 144.23639191290823 925.2752721617419 L 145.7045101088647 923.8071539657855 L 145.7045101088647 920.8709175738725" stroke-width="6" stroke-linecap="round" stroke-linejoin="round"/><path d="M 188.27993779160187 884.1679626749611 L 189.74805598755833 884.1679626749611 L 192.68429237947123 887.1041990668741 L 194.1524105754277 887.1041990668741 L 198.55676516329706 891.5085536547434 L 200.02488335925352 891.5085536547434 L 201.49300155520996 892.9766718506999" stroke-width="6" stroke-linecap="round" stroke-linejoin="round"/><path d="M 797.5489891135304 313.0699844479005 L 797.5489891135304 316.0062208398134 L 796.0808709175739 317.47433903576984 L 796.0808709175739 318.9424572317263 L 791.6765163297046 323.34681181959564 L 791.6765163297046 324.81493001555214 L 788.7402799377917 327.751166407465 L 787.2721617418352 327.751166407465 L 785.8040435458787 329.2192846034215" stroke-width="6" stroke-linecap="round" stroke-linejoin="round"/><path d="M 732.9517884914463 386.47589424572317 L 732.9517884914463 390.88024883359253 L 731.4836702954899 392.348367029549 L 731.4836702954899 393.81648522550546 L 719.7387247278383 405.5614307931571 L 719.7387247278383 408.49766718507 L 718.2706065318819 409.9657853810265 L 718.2706065318819 414.37013996889584 L 716.8024883359254 415.8382581648523 L 716.8024883359254 418.7744945567652 L 715.3343701399689 420.24261275272164 L 715.3343701399689 421.7107309486781 L 712.398133748056 424.646967340591 L 712.398133748056 426.11508553654744 L 707.9937791601867 430.5194401244168 L 707.9937791601867 431.9875583203733 L 700.6531881804044 439.32814930015553 L 690.3763608087093 439.32814930015553 L 688.9082426127528 437.8600311041991 L 685.9720062208398 437.8600311041991 L 684.5038880248834 439.32814930015553" stroke-width="6" stroke-linecap="round" stroke-linejoin="round"/><path d="M 675.6951788491447 470.1586314152411 L 675.6951788491447 480.43545878693624 L 674.2270606531882 481.90357698289273 L 674.2270606531882 483.37169517884917 L 666.8864696734059 490.71228615863146 L 665.4183514774495 490.71228615863146 L 663.9502332814931 492.1804043545879 L 661.0139968895801 492.1804043545879 L 659.5458786936236 493.6485225505443" stroke-width="6" stroke-linecap="round" stroke-linejoin="round"/><path d="M 586.139968895801 547.9688958009332 L 586.139968895801 549.4370139968896 L 581.7356143079317 553.8413685847589 L 580.2674961119751 553.8413685847589 L 578.7993779160187 555.3094867807155 L 575.8631415241058 555.3094867807155 L 571.4587869362364 559.7138413685848 L 569.99066874028 559.7138413685848 L 564.1181959564542 565.5863141524106 L 562.6500777604977 565.5863141524106 L 561.1819595645412 567.0544323483671 L 558.2457231726283 567.0544323483671 L 556.7776049766719 568.5225505443235 L 552.3732503888025 568.5225505443235 L 550.905132192846 567.0544323483671 L 546.5007776049767 567.0544323483671 L 545.0326594090202 565.5863141524106 L 542.0964230171073 565.5863141524106 L 539.1601866251945 562.6500777604977" stroke-width="6" stroke-linecap="round" stroke-linejoin="round"/><path d="M 553.8413685847589 569.99066874028 L 553.8413685847589 574.3950233281494 L 552.3732503888025 575.8631415241058 L 552.3732503888025 577.3312597200622 L 545.0326594090202 581.7356143079317" stroke-width="6" stroke-linecap="round" stroke-linejoin="round"/><path d="M 523.0108864696734 602.289269051322 L 523.0108864696734 605.2255054432349 L 520.0746500777605 608.1617418351477 L 515.6702954898911 609.6298600311043 L 508.3297045101089 615.50233281493 L 503.92534992223955 616.9704510108864 L 499.5209953343702 621.3748055987559 L 498.0528771384137 621.3748055987559 L 496.58475894245726 622.8429237947123 L 492.1804043545879 624.3110419906687" stroke-width="6" stroke-linecap="round" stroke-linejoin="round"/><path d="M 467.22239502332815 662.4821150855366 L 467.22239502332815 665.4183514774495 L 464.2861586314153 668.3545878693624 L 464.2861586314153 671.2908242612754 L 458.4136858475895 677.1632970451011 L 456.945567651633 677.1632970451011 L 455.47744945567655 678.6314152410575" stroke-width="6" stroke-linecap="round" stroke-linejoin="round"/><path d="M 161.8538102643857 810.7620528771384 L 163.32192846034215 810.7620528771384 L 161.8538102643857 812.2301710730949 L 160.38569206842925 816.6345256609643 L 150.10886469673406 826.9113530326595 L 150.10886469673406 828.3794712286159 L 119.27838258164853 859.2099533437015 L 117.81026438569208 859.2099533437015 L 113.40590979782272 862.1461897356144 L 97.25660964230171 862.1461897356144 L 95.78849144634526 863.6143079315708 L 72.298600311042 863.6143079315708 L 70.83048211508554 862.1461897356144 L 69.36236391912908 862.1461897356144" stroke-width="6" stroke-linecap="round" stroke-linejoin="round"/><path d="M 236.72783825816487 854.8055987558321 L 235.2597200622084 856.2737169517885 L 235.2597200622084 859.2099533437015 L 223.51477449455678 870.9548989113531 L 222.0466562986003 870.9548989113531 L 220.57853810264388 872.4230171073095 L 217.64230171073095 872.4230171073095 L 216.1741835147745 873.891135303266" stroke-width="6" stroke-linecap="round" stroke-linejoin="round"/><path d="M 204.42923794712289 892.9766718506999 L 204.42923794712289 894.4447900466563 L 202.96111975116642 895.9129082426128 L 201.49300155520996 895.9129082426128" stroke-width="6" stroke-linecap="round" stroke-linejoin="round"/><path d="M 111.93779160186625 926.7433903576983 L 113.40590979782272 926.7433903576983 L 117.81026438569208 931.1477449455678 L 122.21461897356144 931.1477449455678 L 123.68273716951789 932.6158631415242 L 126.61897356143079 932.6158631415242 L 135.4276827371695 938.4883359253499 L 138.36391912908243 938.4883359253499 L 139.83203732503887 937.0202177293935 L 141.30015552099536 937.0202177293935 L 144.23639191290823 934.0839813374806 L 144.23639191290823 932.6158631415242 L 145.7045101088647 931.1477449455678" stroke-width="6" stroke-linecap="round" stroke-linejoin="round"/></g><g stroke="#607d8b" fill="none" opacity="0.25"/><g stroke="#e74c3c" fill="none"><path d="M 948.7651632970452 50.27682737169518 L 976.6594090202178 40 L 984 42.93623639191291 L 979.5956454121307 106.06531881804044 L 973.7231726283048 111.93779160186625 L 954.637636080871 110.4696734059098 L 950.2332814930016 117.81026438569208" stroke-width="6" stroke-linecap="round" stroke-linejoin="round"/><path d="M 668.3545878693624 92.85225505443235 L 674.2270606531882 81.10730948678072 L 821.0388802488336 109.00155520995335" stroke-width="6" stroke-linecap="round" stroke-linejoin="round"/><g><circle cx="668.3545878693624" cy="92.85225505443235" r="4.800000000000001" fill="#1e1f22" stroke="#e74c3c" stroke-width="3"/><text x="678.3545878693624" y="82.85225505443235" font-size="12" fill="#e0e0e0">S1</text></g><g><circle cx="672.1810774994083" cy="85.19927579434056" r="4.800000000000001" fill="#1e1f22" stroke="#e74c3c" stroke-width="3"/><text x="682.1810774994083" y="75.19927579434056" font-size="12" fill="#e0e0e0">S2</text></g><g><circle cx="678.1384200490065" cy="81.85046777198619" r="4.800000000000001" fill="#1e1f22" stroke="#e74c3c" stroke-width="3"/><text x="688.1384200490065" y="71.85046777198619" font-size="12" fill="#e0e0e0">S3</text></g><g><circle cx="686.5443294725258" cy="83.44759056245485" r="4.800000000000001" fill="#1e1f22" stroke="#e74c3c" stroke-width="3"/><text x="696.5443294725258" y="73.44759056245485" font-size="12" fill="#e0e0e0">S4</text></g><g><circle cx="694.950238896045" cy="85.04471335292351" r="4.800000000000001" fill="#1e1f22" stroke="#e74c3c" stroke-width="3"/><text x="704.950238896045" y="75.04471335292351" font-size="12" fill="#e0e0e0">S5</text></g><g><circle cx="703.3561483195642" cy="86.64183614339217" r="4.800000000000001" fill="#1e1f22" stroke="#e74c3c" stroke-width="3"/><text x="713.3561483195642" y="76.64183614339217" font-size="12" fill="#e0e0e0">S6</text></g><g><circle cx="711.7620577430835" cy="88.23895893386081" r="4.800000000000001" fill="#1e1f22" stroke="#e74c3c" stroke-width="3"/><text x="721.7620577430835" y="78.23895893386081" font-size="12" fill="#e0e0e0">S7</text></g><g><circle cx="720.1679671666027" cy="89.83608172432947" r="4.800000000000001" fill="#1e1f22" stroke="#e74c3c" stroke-width="3"/><text x="730.1679671666027" y="79.83608172432947" font-size="12" fill="#e0e0e0">S8</text></g><g><circle cx="728.5738765901219" cy="91.43320451479813" r="4.800000000000001" fill="#1e1f22" stroke="#e74c3c" stroke-width="3"/><text x="738.5738765901219" y="81.43320451479813" font-size="12" fill="#e0e0e0">S9</text></g><g><circle cx="736.9797860136412" cy="93.03032730526678" r="4.800000000000001" fill="#1e1f22" stroke="#e74c3c" stroke-width="3"/><text x="746.9797860136412" y="83.03032730526678" font-size="12" fill="#e0e0e0">S10</text></g><g><circle cx="745.3856954371604" cy="94.62745009573544" r="4.800000000000001" fill="#1e1f22" stroke="#e74c3c" stroke-width="3"/><text x="755.3856954371604" y="84.62745009573544" font-size="12" fill="#e0e0e0">S11</text></g><g><circle cx="753.7916048606796" cy="96.2245728862041" r="4.800000000000001" fill="#1e1f22" stroke="#e74c3c" stroke-width="3"/><text x="763.7916048606796" y="86.2245728862041" font-size="12" fill="#e0e0e0">S12</text></g><g><circle cx="762.1975142841989" cy="97.82169567667276" r="4.800000000000001" fill="#1e1f22" stroke="#e74c3c" stroke-width="3"/><text x="772.1975142841989" y="87.82169567667276" font-size="12" fill="#e0e0e0">S13</text></g><g><circle cx="770.6034237077182" cy="99.41881846714142" r="4.800000000000001" fill="#1e1f22" stroke="#e74c3c" stroke-width="3"/><text x="780.6034237077182" y="89.41881846714142" font-size="12" fill="#e0e0e0">S14</text></g><g><circle cx="779.0093331312374" cy="101.01594125761007" r="4.800000000000001" fill="#1e1f22" stroke="#e74c3c" stroke-width="3"/><text x="789.0093331312374" y="91.01594125761007" font-size="12" fill="#e0e0e0">S15</text></g><g><circle cx="787.4152425547567" cy="102.61306404807873" r="4.800000000000001" fill="#1e1f22" stroke="#e74c3c" stroke-width="3"/><text x="797.4152425547567" y="92.61306404807873" font-size="12" fill="#e0e0e0">S16</text></g><g><circle cx="795.8211519782759" cy="104.21018683854739" r="4.800000000000001" fill="#1e1f22" stroke="#e74c3c" stroke-width="3"/><text x="805.8211519782759" y="94.21018683854739" font-size="12" fill="#e0e0e0">S17</text></g><g><circle cx="804.2270614017951" cy="105.80730962901605" r="4.800000000000001" fill="#1e1f22" stroke="#e74c3c" stroke-width="3"/><text x="814.2270614017951" y="95.80730962901605" font-size="12" fill="#e0e0e0">S18</text></g><g><circle cx="812.6329708253144" cy="107.40443241948469" r="4.800000000000001" fill="#1e1f22" stroke="#e74c3c" stroke-width="3"/><text x="822.6329708253144" y="97.40443241948469" font-size="12" fill="#e0e0e0">S19</text></g><g><circle cx="821.0388802488336" cy="109.00155520995335" r="4.800000000000001" fill="#1e1f22" stroke="#e74c3c" stroke-width="3"/><text x="831.0388802488336" y="99.00155520995335" font-size="12" fill="#e0e0e0">S20</text></g></g><g stroke="#2ecc71" fill="none"/><g stroke="#40c4ff" fill="none"><path d="M 722.6749611197512 276.36702954898914 L 721.2068429237947 283.7076205287714 L 725.6111975116642 286.6438569206843 L 800.4852255054433 311.60186625194405 L 822.50699844479 285.17573872472786 L 825.443234836703 273.4307931570762" stroke-width="6" stroke-linecap="round" stroke-linejoin="round"/><path d="M 638.9922239502333 417.3063763608087 L 628.7153965785382 421.7107309486781 L 568.5225505443235 409.9657853810265 L 553.8413685847589 423.17884914463457" stroke-width="6" stroke-linecap="round" stroke-linejoin="round"/><path d="M 671.2908242612754 470.1586314152411 L 678.6314152410575 465.7542768273717 L 681.5676516329705 436.39191290824266 L 638.9922239502333 420.24261275272164" stroke-width="6" stroke-linecap="round" stroke-linejoin="round"/><path d="M 445.2006220839814 674.2270606531882 L 452.5412130637636 677.1632970451011 L 455.47744945567655 684.5038880248834 L 420.24261275272164 725.6111975116642 L 370.3265940902022 759.3779160186625 L 354.1772939346812 754.9735614307932" stroke-width="6" stroke-linecap="round" stroke-linejoin="round"/><path d="M 69.36236391912908 857.741835147745 L 66.42612752721618 868.0186625194402 L 44.40435458786936 891.5085536547434 L 40 903.253499222395 L 54.68118195956454 945.8289269051322 L 62.02177293934682 947.2970451010887 L 81.10730948678072 939.9564541213065 L 98.72472783825816 944.3608087091758 L 111.93779160186625 923.8071539657855" stroke-width="6" stroke-linecap="round" stroke-linejoin="round"/><path d="M 201.49300155520996 866.5505443234837 L 216.1741835147745 875.3592534992224 L 214.70606531881805 881.2317262830483 L 180.9393468118196 916.4665629860032 L 153.04510108864696 931.1477449455678 L 145.7045101088647 929.6796267496112 L 145.7045101088647 920.8709175738725" stroke-width="6" stroke-linecap="round" stroke-linejoin="round"/><path d="M 161.8538102643857 810.7620528771384 L 119.27838258164853 859.2099533437015 L 95.78849144634526 863.6143079315708 L 69.36236391912908 862.1461897356144" stroke-width="6" stroke-linecap="round" stroke-linejoin="round"/><g><circle cx="69.36236391912908" cy="857.741835147745" r="4.800000000000001" fill="#1e1f22" stroke="#40c4ff" stroke-width="3"/><text x="79.36236391912908" y="847.741835147745" font-size="12" fill="#e0e0e0">S1</text></g><g><circle cx="66.88995962946852" cy="866.395250161557" r="4.800000000000001" fill="#1e1f22" stroke="#40c4ff" stroke-width="3"/><text x="76.88995962946852" y="856.395250161557" font-size="12" fill="#e0e0e0">S2</text></g><g><circle cx="61.42561977664815" cy="873.3525374533795" r="4.800000000000001" fill="#1e1f22" stroke="#40c4ff" stroke-width="3"/><text x="71.42561977664815" y="863.3525374533795" font-size="12" fill="#e0e0e0">S3</text></g><g><circle cx="55.27036337586208" cy="879.9181442808846" r="4.800000000000001" fill="#1e1f22" stroke="#40c4ff" stroke-width="3"/><text x="65.27036337586208" y="869.9181442808846" font-size="12" fill="#e0e0e0">S4</text></g><g><circle cx="49.11510697507601" cy="886.4837511083897" r="4.800000000000001" fill="#1e1f22" stroke="#40c4ff" stroke-width="3"/><text x="59.11510697507601" y="876.4837511083897" font-size="12" fill="#e0e0e0">S5</text></g><g><circle cx="43.662771432217006" cy="893.4861087364831" r="4.800000000000001" fill="#1e1f22" stroke="#40c4ff" stroke-width="3"/><text x="53.662771432217006" y="883.4861087364831" font-size="12" fill="#e0e0e0">S6</text></g><g><circle cx="40.502770198137135" cy="901.9127786940294" r="4.800000000000001" fill="#1e1f22" stroke="#40c4ff" stroke-width="3"/><text x="50.502770198137135" y="891.9127786940294" font-size="12" fill="#e0e0e0">S7</text></g><g><circle cx="42.46703141557819" cy="910.4078903275717" r="4.800000000000001" fill="#1e1f22" stroke="#40c4ff" stroke-width="3"/><text x="52.46703141557819" y="900.4078903275717" font-size="12" fill="#e0e0e0">S8</text></g><g><circle cx="45.40084568023626" cy="918.9159516950801" r="4.800000000000001" fill="#1e1f22" stroke="#40c4ff" stroke-width="3"/><text x="55.40084568023626" y="908.9159516950801" font-size="12" fill="#e0e0e0">S9</text></g><g><circle cx="48.33465994489431" cy="927.4240130625885" r="4.800000000000001" fill="#1e1f22" stroke="#40c4ff" stroke-width="3"/><text x="58.33465994489431" y="917.4240130625885" font-size="12" fill="#e0e0e0">S10</text></g><g><circle cx="51.26847420955237" cy="935.9320744300969" r="4.800000000000001" fill="#1e1f22" stroke="#40c4ff" stroke-width="3"/><text x="61.26847420955237" y="925.9320744300969" font-size="12" fill="#e0e0e0">S11</text></g><g><circle cx="54.202288474210434" cy="944.4401357976053" r="4.800000000000001" fill="#1e1f22" stroke="#40c4ff" stroke-width="3"/><text x="64.20228847421043" y="934.4401357976053" font-size="12" fill="#e0e0e0">S12</text></g><g><circle cx="62.06347829828535" cy="947.28100457842" r="4.800000000000001" fill="#1e1f22" stroke="#40c4ff" stroke-width="3"/><text x="72.06347829828535" y="937.28100457842" font-size="12" fill="#e0e0e0">S13</text></g><g><circle cx="70.46329704602402" cy="944.050305060059" r="4.800000000000001" fill="#1e1f22" stroke="#40c4ff" stroke-width="3"/><text x="80.46329704602402" y="934.050305060059" font-size="12" fill="#e0e0e0">S14</text></g><g><circle cx="78.86311579376266" cy="940.819605541698" r="4.800000000000001" fill="#1e1f22" stroke="#40c4ff" stroke-width="3"/><text x="88.86311579376266" y="930.819605541698" font-size="12" fill="#e0e0e0">S15</text></g><g><circle cx="87.50561836706557" cy="941.5560313413777" r="4.800000000000001" fill="#1e1f22" stroke="#40c4ff" stroke-width="3"/><text x="97.50561836706557" y="931.5560313413777" font-size="12" fill="#e0e0e0">S16</text></g><g><circle cx="96.23659765977345" cy="943.7387761645546" r="4.800000000000001" fill="#1e1f22" stroke="#40c4ff" stroke-width="3"/><text x="106.23659765977345" y="933.7387761645546" font-size="12" fill="#e0e0e0">S17</text></g><g><circle cx="102.20449297527175" cy="938.9478407182658" r="4.800000000000001" fill="#1e1f22" stroke="#40c4ff" stroke-width="3"/><text x="112.20449297527175" y="928.9478407182658" font-size="12" fill="#e0e0e0">S18</text></g><g><circle cx="107.071142288569" cy="931.3774973420257" r="4.800000000000001" fill="#1e1f22" stroke="#40c4ff" stroke-width="3"/><text x="117.071142288569" y="921.3774973420257" font-size="12" fill="#e0e0e0">S19</text></g><g><circle cx="110.65178047841619" cy="925.8076157133744" r="4.800000000000001" fill="#1e1f22" stroke="#40c4ff" stroke-width="3"/><text x="120.65178047841619" y="915.8076157133744" font-size="12" fill="#e0e0e0">S20</text></g><g><circle cx="111.93779160186625" cy="923.8071539657855" r="4.800000000000001" fill="#1e1f22" stroke="#40c4ff" stroke-width="3"/><text x="121.93779160186625" y="913.8071539657855" font-size="12" fill="#e0e0e0">S21</text></g></g><g stroke="#ffd740" fill="none"/></svg>