<svg xmlns="http://www.w3.org/2000/svg" width="1024" height="227.02595797280594" viewBox="0 0 1024 227.02595797280594" preserveAspectRatio="xMidYMid meet" style="width: 100%; height: auto;"><defs><filter id="soft-glow" x="-50%" y="-50%" width="200%" height="200%"><feGaussianBlur in="SourceGraphic" stdDeviation="2.2" result="b"/><feMerge><feMergeNode in="b"/><feMergeNode in="SourceGraphic"/></feMerge></filter></defs><g stroke="#607d8b" fill="none" opacity="0.25"><path d="M 25.99752781211372 -25.34487021013598 L 25.99752781211372 -26.511742892459836 L 27.164400494437576 -27.67861557478369 L 27.164400494437576 -28.845488257107547 L 25.99752781211372 -30.012360939431403 L 24.830655129789864 -30.012360939431403 L 23.663782447466005 -31.17923362175526 L 15.495673671199011 -31.17923362175526 L 13.161928306551296 -28.845488257107547 L 13.161928306551296 -19.510506798516687" stroke-width="6" stroke-linecap="round" stroke-linejoin="round"/><path d="M 63.33745364647713 1.4932014833127312 L 62.170580964153274 0.3263288009888754 L 62.170580964153274 -3.174289245982699 L 63.33745364647713 -4.341161928306555 L 63.33745364647713 -10.175525339925834 L 61.00370828182942 -13.676143386897408 L 61.00370828182942 -16.00988875154512 L 58.66996291718171 -18.34363411619283 L 56.336217552533995 -18.34363411619283 L 50.50185414091471 -21.844252163164406 L 48.168108776267 -21.844252163164406 L 47.00123609394314 -23.01112484548826 L 45.834363411619286 -23.01112484548826 L 44.66749072929542 -24.17799752781211 L 42.33374536464771 -24.17799752781211 L 36.49938195302843 -27.67861557478369 L 34.165636588380714 -27.67861557478369 L 32.99876390605686 -28.845488257107547 L 30.665018541409147 -28.845488257107547 L 29.49814585908529 -30.012360939431403 L 28.331273176761435 -30.012360939431403" stroke-width="6" stroke-linecap="round" stroke-linejoin="round"/><path d="M 89.00865265760197 7.32756489493201 L 89.00865265760197 0.3263288009888754 L 90.17552533992583 -0.8405438813349804 L 90.17552533992583 -5.5080346106304106 L 89.00865265760197 -6.674907292954266 L 87.84177997527811 -6.674907292954266 L 86.67490729295426 -7.841779975278122 L 84.34116192830655 -7.841779975278122 L 83.17428924598269 -9.008652657601978 L 78.50679851668727 -9.008652657601978 L 73.83930778739185 -13.676143386897408 L 71.50556242274413 -13.676143386897408 L 70.33868974042028 -14.843016069221264 L 65.67119901112486 -14.843016069221264 L 63.33745364647713 -12.509270704573552" stroke-width="6" stroke-linecap="round" stroke-linejoin="round"/><path d="M 243.03584672435105 30.665018541409147 L 243.03584672435105 50.50185414091471 L 248.87021013597035 54.00247218788628 L 248.87021013597035 64.50432632880099" stroke-width="6" stroke-linecap="round" stroke-linejoin="round"/><path d="M 392.3955500618047 30.665018541409147 L 393.5624227441286 31.831891223733003 L 393.5624227441286 32.99876390605686 L 397.06304079110015 36.49938195302843 L 413.39925834363413 36.49938195302843 L 415.73300370828184 38.833127317676144 L 415.73300370828184 68.00494437577257 L 414.566131025958 69.17181705809642 L 411.0655129789864 69.17181705809642" stroke-width="6" stroke-linecap="round" stroke-linejoin="round"/><path d="M 122.84796044499382 31.831891223733003 L 126.3485784919654 25.99752781211372 L 126.3485784919654 13.161928306551296 L 122.84796044499382 10.828182941903584 L 119.34734239802225 10.828182941903584 L 115.84672435105068 7.32756489493201 L 115.84672435105068 6.160692212608154 L 117.01359703337454 4.9938195302842985 L 117.01359703337454 -0.8405438813349804 L 113.51297898640297 -3.174289245982699 L 108.84548825710755 -3.174289245982699 L 107.67861557478369 -4.341161928306555 L 103.01112484548827 -4.341161928306555 L 101.84425216316441 -5.5080346106304106 L 96.00988875154512 -5.5080346106304106 L 94.84301606922126 -6.674907292954266 L 92.50927070457355 -6.674907292954266 L 91.3423980222497 -5.5080346106304106" stroke-width="6" stroke-linecap="round" stroke-linejoin="round"/><path d="M 169.52286773794808 40 L 169.52286773794808 37.66625463535229 L 168.35599505562422 36.49938195302843 L 166.02224969097654 36.49938195302843 L 164.85537700865268 35.33250927070458 L 162.52163164400497 35.33250927070458 L 161.35475896168109 34.165636588380714 L 160.18788627935723 34.165636588380714 L 155.5203955500618 29.49814585908529 L 154.35352286773795 29.49814585908529 L 150.85290482076638 27.164400494437576 L 148.51915945611867 27.164400494437576 L 146.18541409147096 24.830655129789864 L 146.18541409147096 22.49690976514215 L 142.6847960444994 18.996291718170582 L 141.5179233621755 18.996291718170582 L 136.85043263288009 14.328800988875152 L 135.68355995055623 14.328800988875152 L 133.34981458590852 11.99505562422744 L 129.84919653893695 10.828182941903584 L 127.51545117428925 13.161928306551296" stroke-width="6" stroke-linecap="round" stroke-linejoin="round"/><path d="M 138.01730531520394 41.166872682323856 L 138.01730531520394 40 L 140.35105067985165 37.66625463535229 L 142.6847960444994 37.66625463535229 L 146.18541409147096 35.33250927070458 L 146.18541409147096 29.49814585908529 L 147.35228677379482 28.331273176761435 L 147.35228677379482 27.164400494437576" stroke-width="6" stroke-linecap="round" stroke-linejoin="round"/><path d="M 827.6390605686032 43.50061804697157 L 827.6390605686032 40 L 825.3053152039555 37.66625463535229 L 813.636588380717 37.66625463535229 L 811.3028430160692 40 L 811.3028430160692 41.166872682323856 L 810.1359703337454 42.33374536464771 L 806.6353522867738 42.33374536464771 L 804.3016069221261 44.66749072929542 L 805.46847960445 45.834363411619286 L 805.46847960445 49.33498145859085 L 803.1347342398022 51.668726823238565 L 798.4672435105068 51.668726823238565 L 793.7997527812114 56.336217552533995 L 793.7997527812114 61.00370828182942 L 794.9666254635353 62.170580964153274 L 794.9666254635353 68.00494437577257 L 792.6328800988875 71.50556242274413" stroke-width="6" stroke-linecap="round" stroke-linejoin="round"/><path d="M 197.52781211372064 45.834363411619286 L 197.52781211372064 43.50061804697157 L 198.6946847960445 42.33374536464771 L 209.19653893695923 42.33374536464771 L 212.6971569839308 44.66749072929542 L 213.86402966625465 44.66749072929542 L 216.19777503090236 42.33374536464771 L 223.1990111248455 42.33374536464771 L 224.36588380716935 43.50061804697157 L 224.36588380716935 52.83559950556243" stroke-width="6" stroke-linecap="round" stroke-linejoin="round"/><path d="M 841.6415327564895 45.834363411619286 L 836.9740420271941 45.834363411619286 L 835.8071693448702 44.66749072929542 L 835.8071693448702 40 L 834.6402966625463 38.833127317676144 L 828.8059332509271 38.833127317676144" stroke-width="6" stroke-linecap="round" stroke-linejoin="round"/><path d="M 720.2867737948085 49.33498145859085 L 720.2867737948085 48.168108776267 L 719.1199011124846 47.00123609394314 L 712.1186650185414 47.00123609394314 L 708.6180469715698 50.50185414091471 L 708.6180469715698 56.336217552533995 L 707.451174289246 57.50309023485785 L 707.451174289246 59.83683559950556 L 706.2843016069221 61.00370828182942" stroke-width="6" stroke-linecap="round" stroke-linejoin="round"/><path d="M 183.52533992583437 52.83559950556243 L 183.52533992583437 38.833127317676144 L 181.19159456118666 36.49938195302843 L 176.52410383189124 36.49938195302843 L 175.35723114956738 35.33250927070458 L 173.02348578491967 35.33250927070458 L 171.85661310259582 36.49938195302843 L 169.52286773794808 36.49938195302843" stroke-width="6" stroke-linecap="round" stroke-linejoin="round"/><path d="M 497.4140914709518 57.50309023485785 L 496.24721878862795 56.336217552533995 L 496.24721878862795 54.00247218788628 L 495.0803461063041 52.83559950556243 L 495.0803461063041 48.168108776267 L 493.91347342398024 47.00123609394314 L 493.91347342398024 43.50061804697157 L 492.7466007416564 42.33374536464771 L 475.24351050679854 42.33374536464771 L 472.90976514215083 40 L 470.5760197775031 40 L 468.2422744128554 42.33374536464771 L 464.74165636588384 43.50061804697157 L 461.2410383189123 47.00123609394314 L 461.2410383189123 49.33498145859085 L 460.0741656365884 50.50185414091471 L 460.0741656365884 52.83559950556243 L 458.90729295426456 54.00247218788628 L 458.90729295426456 56.336217552533995 L 460.0741656365884 57.50309023485785 L 460.0741656365884 62.170580964153274 L 461.2410383189123 63.33745364647713 L 461.2410383189123 69.17181705809642 L 464.74165636588384 72.67243510506799 L 465.9085290482077 72.67243510506799" stroke-width="6" stroke-linecap="round" stroke-linejoin="round"/><path d="M 336.3856613102596 58.66996291718171 L 336.3856613102596 48.168108776267 L 335.21878862793574 47.00123609394314 L 334.0519159456119 47.00123609394314 L 332.885043263288 48.168108776267 L 323.5500618046972 48.168108776267 L 322.3831891223733 49.33498145859085 L 313.0482076637825 49.33498145859085 L 311.8813349814586 50.50185414091471 L 310.71446229913477 50.50185414091471 L 308.38071693448705 52.83559950556243 L 308.38071693448705 61.00370828182942 L 309.5475896168109 62.170580964153274 L 309.5475896168109 63.33745364647713 L 311.8813349814586 65.67119901112486" stroke-width="6" stroke-linecap="round" stroke-linejoin="round"/><path d="M 519.5846724351051 59.83683559950556 L 518.4177997527812 58.66996291718171 L 518.4177997527812 54.00247218788628 L 519.5846724351051 52.83559950556243 L 519.5846724351051 45.834363411619286 L 518.4177997527812 44.66749072929542 L 518.4177997527812 42.33374536464771 L 517.2509270704574 41.166872682323856 L 516.0840543881335 41.166872682323856 L 514.9171817058096 40 L 503.2484548825711 40 L 502.0815822002472 41.166872682323856 L 497.4140914709518 41.166872682323856 L 495.0803461063041 43.50061804697157" stroke-width="6" stroke-linecap="round" stroke-linejoin="round"/><path d="M 562.7589616810878 61.00370828182942 L 562.7589616810878 43.50061804697157 L 560.42521631644 41.166872682323856 L 559.2583436341162 41.166872682323856 L 558.0914709517923 40 L 555.7577255871446 40 L 554.5908529048207 41.166872682323856 L 544.0889987639061 41.166872682323856 L 540.5883807169346 44.66749072929542 L 540.5883807169346 65.67119901112486" stroke-width="6" stroke-linecap="round" stroke-linejoin="round"/><path d="M 734.2892459826948 61.00370828182942 L 733.1223733003709 61.00370828182942 L 731.955500618047 59.83683559950556 L 731.955500618047 57.50309023485785 L 730.7886279357232 56.336217552533995 L 730.7886279357232 44.66749072929542 L 729.6217552533993 43.50061804697157 L 728.4548825710755 43.50061804697157 L 727.2880098887516 44.66749072929542 L 723.78739184178 44.66749072929542 L 721.4536464771323 47.00123609394314 L 720.2867737948085 47.00123609394314" stroke-width="6" stroke-linecap="round" stroke-linejoin="round"/><path d="M 679.4462299134734 62.170580964153274 L 679.4462299134734 57.50309023485785 L 680.6131025957973 56.336217552533995 L 680.6131025957973 55.16934487021014 L 679.4462299134734 54.00247218788628 L 679.4462299134734 51.668726823238565 L 675.9456118665018 48.168108776267 L 673.6118665018541 48.168108776267 L 672.4449938195303 47.00123609394314 L 664.2768850432633 47.00123609394314 L 663.1100123609394 45.834363411619286 L 656.1087762669963 45.834363411619286 L 653.7750309023486 48.168108776267 L 653.7750309023486 52.83559950556243 L 654.9419035846724 54.00247218788628 L 654.9419035846724 61.00370828182942 L 653.7750309023486 62.170580964153274 L 653.7750309023486 64.50432632880099 L 652.6081582200247 65.67119901112486" stroke-width="6" stroke-linecap="round" stroke-linejoin="round"/><path d="M 215.0309023485785 63.33745364647713 L 213.86402966625465 62.170580964153274 L 213.86402966625465 59.83683559950556 L 212.6971569839308 58.66996291718171 L 212.6971569839308 45.834363411619286" stroke-width="6" stroke-linecap="round" stroke-linejoin="round"/><path d="M 379.5599505562423 63.33745364647713 L 379.5599505562423 56.336217552533995 L 374.89245982694683 49.33498145859085 L 373.725587144623 49.33498145859085 L 372.5587144622991 48.168108776267 L 357.389369592089 48.168108776267 L 355.0556242274413 50.50185414091471 L 355.0556242274413 59.83683559950556 L 353.88875154511743 61.00370828182942 L 355.0556242274413 64.50432632880099 L 353.88875154511743 65.67119901112486 L 353.88875154511743 66.83807169344871" stroke-width="6" stroke-linecap="round" stroke-linejoin="round"/><path d="M 750.6254635352287 63.33745364647713 L 750.6254635352287 55.16934487021014 L 751.7923362175526 54.00247218788628 L 751.7923362175526 51.668726823238565 L 750.6254635352287 50.50185414091471 L 750.6254635352287 43.50061804697157 L 749.4585908529049 42.33374536464771 L 735.4561186650186 42.33374536464771 L 731.955500618047 44.66749072929542" stroke-width="6" stroke-linecap="round" stroke-linejoin="round"/><path d="M 287.37700865265765 68.00494437577257 L 287.37700865265765 51.668726823238565 L 286.2101359703338 50.50185414091471 L 273.3745364647713 50.50185414091471 L 269.87391841779976 54.00247218788628 L 269.87391841779976 56.336217552533995 L 271.0407911001236 57.50309023485785 L 271.0407911001236 58.66996291718171 L 273.3745364647713 61.00370828182942 L 273.3745364647713 64.50432632880099 L 272.20766378244747 65.67119901112486 L 272.20766378244747 66.83807169344871 L 269.87391841779976 69.17181705809642" stroke-width="6" stroke-linecap="round" stroke-linejoin="round"/><path d="M 440.2373300370828 68.00494437577257 L 440.2373300370828 66.83807169344871 L 441.40420271940667 65.67119901112486 L 441.40420271940667 62.170580964153274 L 442.5710754017305 61.00370828182942 L 442.5710754017305 56.336217552533995 L 439.07045735475896 52.83559950556243 L 418.06674907292955 52.83559950556243 L 416.8998763906057 54.00247218788628" stroke-width="6" stroke-linecap="round" stroke-linejoin="round"/><path d="M 604.7663782447466 69.17181705809642 L 604.7663782447466 56.336217552533995 L 603.5995055624228 55.16934487021014 L 603.5995055624228 43.50061804697157 L 600.0988875154512 41.166872682323856 L 581.4289245982695 41.166872682323856 L 577.928306551298 44.66749072929542 L 577.928306551298 70.33868974042028 L 580.2620519159457 72.67243510506799 L 581.4289245982695 72.67243510506799" stroke-width="6" stroke-linecap="round" stroke-linejoin="round"/><path d="M 775.1297898640297 69.17181705809642 L 775.1297898640297 68.00494437577257 L 776.2966625463536 66.83807169344871 L 776.2966625463536 56.336217552533995 L 775.1297898640297 55.16934487021014 L 775.1297898640297 48.168108776267 L 773.9629171817058 47.00123609394314 L 768.1285537700866 47.00123609394314 L 766.9616810877627 45.834363411619286 L 765.7948084054389 45.834363411619286 L 759.9604449938196 42.33374536464771 L 756.459826946848 42.33374536464771 L 755.2929542645242 41.166872682323856 L 751.7923362175526 43.50061804697157" stroke-width="6" stroke-linecap="round" stroke-linejoin="round"/><path d="M 419.2336217552534 71.50556242274413 L 418.06674907292955 71.50556242274413 L 416.8998763906057 70.33868974042028 L 416.8998763906057 69.17181705809642 L 415.73300370828184 70.33868974042028" stroke-width="6" stroke-linecap="round" stroke-linejoin="round"/><path d="M 623.4363411619283 75.0061804697157 L 622.2694684796045 73.83930778739185 L 621.1025957972806 73.83930778739185 L 618.7688504326329 70.33868974042028 L 618.7688504326329 45.834363411619286 L 617.6019777503091 44.66749072929542 L 617.6019777503091 43.50061804697157 L 614.1013597033375 41.166872682323856 L 607.1001236093944 41.166872682323856 L 604.7663782447466 43.50061804697157" stroke-width="6" stroke-linecap="round" stroke-linejoin="round"/><path d="M 834.6402966625463 91.3423980222497 L 827.6390605686032 91.3423980222497 L 824.1384425216316 94.84301606922126 L 822.9715698393078 94.84301606922126 L 821.8046971569839 96.00988875154512 L 819.4709517923362 96.00988875154512 L 818.3040791100124 94.84301606922126 L 818.3040791100124 93.67614338689741 L 817.1372064276885 92.50927070457355 L 815.9703337453647 92.50927070457355 L 813.636588380717 90.17552533992583 L 813.636588380717 86.67490729295426 L 814.8034610630408 85.5080346106304 L 814.8034610630408 84.34116192830655 L 813.636588380717 83.17428924598269 L 813.636588380717 44.66749072929542 L 811.3028430160692 42.33374536464771" stroke-width="6" stroke-linecap="round" stroke-linejoin="round"/><path d="M 807.8022249690977 94.84301606922126 L 808.9690976514215 94.84301606922126 L 812.4697156983931 91.3423980222497 L 813.636588380717 91.3423980222497" stroke-width="6" stroke-linecap="round" stroke-linejoin="round"/><path d="M 857.9777503090235 94.84301606922126 L 868.4796044499383 94.84301606922126 L 869.6464771322621 96.00988875154512 L 878.981458590853 96.00988875154512 L 880.1483312731768 97.17676143386898 L 890.6501854140915 97.17676143386898 L 891.8170580964154 98.34363411619283 L 901.1520395550062 98.34363411619283 L 902.3189122373301 99.51050679851669 L 912.8207663782448 99.51050679851669 L 913.9876390605687 100.67737948084054 L 923.3226205191595 100.67737948084054 L 924.4894932014834 101.84425216316441 L 934.9913473423981 101.84425216316441 L 936.1582200247219 103.01112484548827 L 945.4932014833128 103.01112484548827 L 946.6600741656366 104.17799752781211 L 957.1619283065513 104.17799752781211 L 958.3288009888752 105.34487021013598 L 968.8306551297899 105.34487021013598 L 969.9975278121137 106.51174289245984 L 980.4993819530284 106.51174289245984 L 982.8331273176761 108.84548825710755 L 982.8331273176761 110.0123609394314 L 984 111.17923362175526 L 984 128.6823238566131 L 982.8331273176761 129.84919653893695 L 982.8331273176761 138.01730531520394 L 981.6662546353523 139.1841779975278" stroke-width="6" stroke-linecap="round" stroke-linejoin="round"/><path d="M 903.485784919654 252.37082818294192 L 849.8096415327565 252.37082818294192 L 848.6427688504326 253.53770086526578" stroke-width="6" stroke-linecap="round" stroke-linejoin="round"/><path d="M 392.3955500618047 36.49938195302843 L 387.7280593325093 41.166872682323856 L 386.56118665018545 41.166872682323856 L 384.22744128553774 43.50061804697157 L 383.0605686032139 43.50061804697157 L 377.2262051915946 49.33498145859085" stroke-width="6" stroke-linecap="round" stroke-linejoin="round"/><path d="M 185.85908529048208 37.66625463535229 L 191.69344870210136 37.66625463535229 L 192.86032138442522 38.833127317676144 L 195.19406674907293 38.833127317676144 L 197.52781211372064 41.166872682323856" stroke-width="6" stroke-linecap="round" stroke-linejoin="round"/><path d="M 521.9184177997528 40 L 533.5871446229914 40 L 534.7540173053153 41.166872682323856 L 537.087762669963 41.166872682323856 L 540.5883807169346 43.50061804697157" stroke-width="6" stroke-linecap="round" stroke-linejoin="round"/><path d="M 565.0927070457356 41.166872682323856 L 574.4276885043264 41.166872682323856 L 577.928306551298 43.50061804697157" stroke-width="6" stroke-linecap="round" stroke-linejoin="round"/><path d="M 621.1025957972806 41.166872682323856 L 618.7688504326329 43.50061804697157" stroke-width="6" stroke-linecap="round" stroke-linejoin="round"/><path d="M 622.2694684796045 42.33374536464771 L 631.6044499381953 42.33374536464771 L 632.7713226205192 43.50061804697157 L 642.10630407911 43.50061804697157 L 643.2731767614339 44.66749072929542 L 650.274412855377 44.66749072929542 L 653.7750309023486 47.00123609394314" stroke-width="6" stroke-linecap="round" stroke-linejoin="round"/><path d="M 341.053152039555 45.834363411619286 L 350.38813349814586 45.834363411619286 L 353.88875154511743 49.33498145859085 L 355.0556242274413 49.33498145859085" stroke-width="6" stroke-linecap="round" stroke-linejoin="round"/><path d="M 337.55253399258345 47.00123609394314 L 339.88627935723116 47.00123609394314" stroke-width="6" stroke-linecap="round" stroke-linejoin="round"/><path d="M 685.2805933250927 48.168108776267 L 707.451174289246 48.168108776267 L 708.6180469715698 49.33498145859085" stroke-width="6" stroke-linecap="round" stroke-linejoin="round"/><path d="M 302.5463535228678 49.33498145859085 L 304.8800988875155 49.33498145859085 L 308.38071693448705 51.668726823238565" stroke-width="6" stroke-linecap="round" stroke-linejoin="round"/><path d="M 684.1137206427688 49.33498145859085 L 680.6131025957973 51.668726823238565" stroke-width="6" stroke-linecap="round" stroke-linejoin="round"/><path d="M 289.71075401730536 50.50185414091471 L 301.3794808405439 50.50185414091471" stroke-width="6" stroke-linecap="round" stroke-linejoin="round"/><path d="M 252.37082818294192 51.668726823238565 L 268.7070457354759 51.668726823238565 L 269.87391841779976 52.83559950556243" stroke-width="6" stroke-linecap="round" stroke-linejoin="round"/><path d="M 446.0716934487021 52.83559950556243 L 457.7404202719407 52.83559950556243" stroke-width="6" stroke-linecap="round" stroke-linejoin="round"/><path d="M 444.90482076637824 54.00247218788628 L 443.7379480840544 55.16934487021014 L 442.5710754017305 55.16934487021014" stroke-width="6" stroke-linecap="round" stroke-linejoin="round"/><path d="M 778.6304079110013 55.16934487021014 L 792.6328800988875 55.16934487021014" stroke-width="6" stroke-linecap="round" stroke-linejoin="round"/></g><g stroke="#607d8b" fill="none" opacity="0.25"><path d="M -3.174289245982699 52.83559950556243 L -4.341161928306555 54.00247218788628 L -4.341161928306555 57.50309023485785 L -5.5080346106304106 58.66996291718171 L -5.5080346106304106 80.84054388133498 L -7.841779975278122 83.17428924598269 L -11.342398022249697 83.17428924598269 L -12.509270704573552 82.00741656365884 L -14.843016069221264 82.00741656365884 L -16.00988875154512 80.84054388133498 L -18.34363411619283 80.84054388133498 L -19.510506798516687 79.67367119901112 L -21.844252163164406 79.67367119901112 L -23.01112484548826 78.50679851668727 L -25.34487021013598 78.50679851668727 L -28.845488257107547 75.0061804697157 L -28.845488257107547 72.67243510506799 L -27.67861557478369 71.50556242274413 L -27.67861557478369 62.170580964153274" stroke-width="6" stroke-linecap="round" stroke-linejoin="round"/><path d="M -52.18294190358468 64.50432632880099 L -52.18294190358468 70.33868974042028 L -53.34981458590853 71.50556242274413 L -53.34981458590853 77.33992583436341 L -56.8504326328801 80.84054388133498 L -58.017305315203956 80.84054388133498 L -59.18417799752781 82.00741656365884 L -77.85414091470952 82.00741656365884 L -79.02101359703337 80.84054388133498 L -79.02101359703337 79.67367119901112 L -81.35475896168109 77.33992583436341 L -81.35475896168109 69.17181705809642" stroke-width="6" stroke-linecap="round" stroke-linejoin="round"/><path d="M 35.33250927070458 69.17181705809642 L 35.33250927070458 70.33868974042028 L 37.66625463535229 72.67243510506799 L 37.66625463535229 78.50679851668727 L 40 82.00741656365884 L 40 87.84177997527811 L 37.66625463535229 90.17552533992583 L 29.49814585908529 90.17552533992583 L 28.331273176761435 89.00865265760197 L 24.830655129789864 89.00865265760197 L 23.663782447466005 87.84177997527811 L 22.49690976514215 87.84177997527811 L 21.330037082818293 86.67490729295426 L 21.330037082818293 85.5080346106304 L 18.996291718170582 83.17428924598269 L 18.996291718170582 71.50556242274413" stroke-width="6" stroke-linecap="round" stroke-linejoin="round"/><path d="M -145.5327564894932 70.33868974042028 L -145.5327564894932 61.00370828182942 L -146.69962917181707 59.83683559950556 L -158.36835599505562 59.83683559950556 L -159.53522867737948 61.00370828182942 L -159.53522867737948 72.67243510506799" stroke-width="6" stroke-linecap="round" stroke-linejoin="round"/><path d="M -119.86155747836835 70.33868974042028 L -119.86155747836835 61.00370828182942 L -121.02843016069221 59.83683559950556 L -145.5327564894932 59.83683559950556" stroke-width="6" stroke-linecap="round" stroke-linejoin="round"/><path d="M 65.67119901112486 72.67243510506799 L 68.00494437577257 76.17305315203956 L 68.00494437577257 90.17552533992583 L 65.67119901112486 93.67614338689741 L 65.67119901112486 104.17799752781211 L 63.33745364647713 106.51174289245984 L 59.83683559950556 106.51174289245984 L 58.66996291718171 105.34487021013598 L 56.336217552533995 105.34487021013598 L 55.16934487021014 104.17799752781211 L 52.83559950556243 104.17799752781211 L 51.668726823238565 103.01112484548827 L 50.50185414091471 103.01112484548827 L 48.168108776267 100.67737948084054 L 43.50061804697157 100.67737948084054 L 42.33374536464771 99.51050679851669 L 42.33374536464771 90.17552533992583 L 41.166872682323856 89.00865265760197 L 40 89.00865265760197" stroke-width="6" stroke-linecap="round" stroke-linejoin="round"/><path d="M 49.33498145859085 73.83930778739185 L 49.33498145859085 99.51050679851669" stroke-width="6" stroke-linecap="round" stroke-linejoin="round"/><path d="M 838.1409147095179 89.00865265760197 L 838.1409147095179 91.3423980222497 L 836.9740420271941 92.50927070457355 L 835.8071693448702 92.50927070457355 L 833.4734239802225 94.84301606922126 L 832.3065512978986 94.84301606922126 L 829.9728059332509 97.17676143386898 L 829.9728059332509 100.67737948084054 L 828.8059332509271 101.84425216316441 L 824.1384425216316 101.84425216316441 L 821.8046971569839 104.17799752781211 L 821.8046971569839 110.0123609394314 L 820.6378244746601 111.17923362175526 L 820.6378244746601 115.84672435105068 L 819.4709517923362 117.01359703337454 L 819.4709517923362 118.1804697156984 L 813.636588380717 124.01483312731767 L 813.636588380717 125.18170580964154 L 810.1359703337454 128.6823238566131 L 808.9690976514215 128.6823238566131 L 806.6353522867738 131.0160692212608 L 805.46847960445 131.0160692212608 L 804.3016069221261 132.18294190358466 L 800.8009888751545 132.18294190358466 L 797.300370828183 134.51668726823237 L 797.300370828183 135.68355995055623 L 796.1334981458591 136.85043263288009 L 796.1334981458591 140.35105067985165 L 794.9666254635353 141.5179233621755 L 794.9666254635353 146.18541409147096 L 792.6328800988875 149.68603213844253 L 791.4660074165637 149.68603213844253 L 790.2991347342398 148.51915945611867 L 786.7985166872683 148.51915945611867 L 783.2978986402967 152.01977750309024 L 782.1310259579728 152.01977750309024 L 776.2966625463536 157.85414091470952 L 776.2966625463536 161.35475896168109 L 775.1297898640297 162.52163164400497 L 768.1285537700866 162.52163164400497 L 766.9616810877627 161.35475896168109 L 766.9616810877627 150.85290482076638 L 768.1285537700866 149.68603213844253 L 768.1285537700866 148.51915945611867" stroke-width="6" stroke-linecap="round" stroke-linejoin="round"/><path d="M 854.4771322620519 90.17552533992583 L 850.9765142150803 93.67614338689741 L 849.8096415327565 93.67614338689741 L 847.4758961681088 96.00988875154512 L 842.8084054388133 96.00988875154512 L 840.4746600741656 93.67614338689741 L 840.4746600741656 92.50927070457355 L 839.3077873918418 91.3423980222497" stroke-width="6" stroke-linecap="round" stroke-linejoin="round"/><path d="M -107.02595797280594 92.50927070457355 L -105.85908529048208 92.50927070457355 L -104.69221260815823 91.3423980222497 L -102.35846724351052 91.3423980222497 L -98.85784919653895 87.84177997527811 L -98.85784919653895 82.00741656365884 L -96.52410383189124 79.67367119901112 L -96.52410383189124 77.33992583436341 L -97.6909765142151 76.17305315203956 L -97.6909765142151 71.50556242274413 L -96.52410383189124 70.33868974042028 L -96.52410383189124 62.170580964153274 L -98.85784919653895 59.83683559950556 L -119.86155747836835 59.83683559950556" stroke-width="6" stroke-linecap="round" stroke-linejoin="round"/><path d="M 94.84301606922126 103.01112484548827 L 94.84301606922126 108.84548825710755 L 93.67614338689741 110.0123609394314 L 93.67614338689741 115.84672435105068 L 91.3423980222497 118.1804697156984 L 89.00865265760197 118.1804697156984 L 87.84177997527811 117.01359703337454 L 85.5080346106304 117.01359703337454 L 82.00741656365884 114.67985166872683 L 79.67367119901112 114.67985166872683 L 78.50679851668727 113.51297898640297 L 76.17305315203956 113.51297898640297 L 72.67243510506799 111.17923362175526 L 70.33868974042028 111.17923362175526 L 68.00494437577257 108.84548825710755 L 68.00494437577257 106.51174289245984 L 66.83807169344871 105.34487021013598 L 65.67119901112486 105.34487021013598" stroke-width="6" stroke-linecap="round" stroke-linejoin="round"/><path d="M 855.6440049443758 107.67861557478369 L 855.6440049443758 106.51174289245984 L 856.8108776266996 105.34487021013598 L 856.8108776266996 103.01112484548827 L 855.6440049443758 101.84425216316441 L 855.6440049443758 96.00988875154512 L 853.310259579728 92.50927070457355" stroke-width="6" stroke-linecap="round" stroke-linejoin="round"/><path d="M 118.1804697156984 110.0123609394314 L 118.1804697156984 111.17923362175526 L 119.34734239802225 112.34610630407911 L 119.34734239802225 122.84796044499382 L 115.84672435105068 126.3485784919654 L 110.0123609394314 126.3485784919654 L 108.84548825710755 125.18170580964154 L 103.01112484548827 125.18170580964154 L 100.67737948084054 122.84796044499382 L 97.17676143386898 121.68108776266996 L 94.84301606922126 119.34734239802225 L 94.84301606922126 118.1804697156984 L 93.67614338689741 117.01359703337454" stroke-width="6" stroke-linecap="round" stroke-linejoin="round"/><path d="M 145.0185414091471 113.51297898640297 L 145.0185414091471 125.18170580964154 L 142.6847960444994 127.51545117428925 L 140.35105067985165 127.51545117428925 L 139.1841779975278 128.6823238566131 L 135.68355995055623 128.6823238566131 L 134.51668726823237 127.51545117428925 L 121.68108776266996 127.51545117428925 L 119.34734239802225 125.18170580964154 L 118.1804697156984 125.18170580964154" stroke-width="6" stroke-linecap="round" stroke-linejoin="round"/><path d="M 948.9938195302843 114.67985166872683 L 948.9938195302843 111.17923362175526 L 945.4932014833128 107.67861557478369 L 944.3263288009889 107.67861557478369 L 943.159456118665 106.51174289245984 L 934.9913473423981 106.51174289245984 L 933.8244746600742 105.34487021013598 L 923.3226205191595 105.34487021013598 L 922.1557478368356 106.51174289245984 L 922.1557478368356 117.01359703337454 L 923.3226205191595 118.1804697156984 L 923.3226205191595 129.84919653893695 L 919.8220024721879 133.34981458590852 L 919.8220024721879 142.6847960444994 L 925.6563658838072 147.35228677379482 L 925.6563658838072 154.35352286773795 L 923.3226205191595 156.68726823238566 L 923.3226205191595 161.35475896168109" stroke-width="6" stroke-linecap="round" stroke-linejoin="round"/><path d="M 978.1656365883807 114.67985166872683 L 976.9987639060569 113.51297898640297 L 973.4981458590853 112.34610630407911 L 971.1644004944376 110.0123609394314 L 969.9975278121137 110.0123609394314 L 968.8306551297899 108.84548825710755 L 959.495673671199 108.84548825710755 L 958.3288009888752 107.67861557478369 L 954.8281829419036 107.67861557478369 L 953.6613102595797 108.84548825710755 L 950.1606922126082 110.0123609394314" stroke-width="6" stroke-linecap="round" stroke-linejoin="round"/><path d="M 166.02224969097654 127.51545117428925 L 166.02224969097654 131.0160692212608 L 164.85537700865268 132.18294190358466 L 164.85537700865268 145.0185414091471 L 161.35475896168109 148.51915945611867 L 159.02101359703337 148.51915945611867 L 157.85414091470952 147.35228677379482 L 155.5203955500618 147.35228677379482 L 150.85290482076638 142.6847960444994 L 149.68603213844253 142.6847960444994 L 147.35228677379482 140.35105067985165 L 147.35228677379482 138.01730531520394 L 146.18541409147096 136.85043263288009 L 146.18541409147096 127.51545117428925 L 145.0185414091471 126.3485784919654" stroke-width="6" stroke-linecap="round" stroke-linejoin="round"/><path d="M 203.36217552533992 129.84919653893695 L 201.0284301606922 133.34981458590852 L 201.0284301606922 154.35352286773795 L 198.6946847960445 156.68726823238566 L 194.02719406674908 156.68726823238566 L 192.86032138442522 155.5203955500618 L 191.69344870210136 155.5203955500618 L 187.02595797280594 150.85290482076638 L 187.02595797280594 142.6847960444994 L 184.69221260815823 139.1841779975278 L 184.69221260815823 135.68355995055623" stroke-width="6" stroke-linecap="round" stroke-linejoin="round"/><path d="M 175.35723114956738 132.18294190358466 L 175.35723114956738 149.68603213844253 L 174.19035846724353 150.85290482076638 L 168.35599505562422 150.85290482076638 L 167.1891223733004 149.68603213844253 L 167.1891223733004 147.35228677379482 L 166.02224969097654 146.18541409147096 L 164.85537700865268 146.18541409147096" stroke-width="6" stroke-linecap="round" stroke-linejoin="round"/><path d="M 240.70210135970333 139.1841779975278 L 240.70210135970333 140.35105067985165 L 239.53522867737948 141.5179233621755 L 239.53522867737948 143.85166872682325 L 238.36835599505562 145.0185414091471 L 238.36835599505562 161.35475896168109 L 234.86773794808406 164.85537700865268 L 232.53399258343634 164.85537700865268 L 231.3671199011125 163.68850432632883 L 224.36588380716935 163.68850432632883 L 223.1990111248455 162.52163164400497 L 219.69839307787393 162.52163164400497 L 218.53152039555007 161.35475896168109 L 218.53152039555007 160.18788627935723 L 217.36464771322622 159.02101359703337 L 217.36464771322622 145.0185414091471" stroke-width="6" stroke-linecap="round" stroke-linejoin="round"/><path d="M 398.229913473424 139.1841779975278 L 398.229913473424 148.51915945611867 L 397.06304079110015 149.68603213844253 L 397.06304079110015 150.85290482076638 L 394.72929542645244 154.35352286773795 L 394.72929542645244 156.68726823238566 L 393.5624227441286 157.85414091470952 L 393.5624227441286 175.35723114956738 L 388.89493201483316 180.0247218788628 L 383.0605686032139 180.0247218788628 L 381.89369592089 178.85784919653895 L 381.89369592089 143.85166872682325" stroke-width="6" stroke-linecap="round" stroke-linejoin="round"/><path d="M 516.0840543881335 140.35105067985165 L 516.0840543881335 145.0185414091471 L 517.2509270704574 146.18541409147096 L 517.2509270704574 164.85537700865268 L 513.7503090234858 168.35599505562422 L 506.74907292954265 168.35599505562422 L 504.41532756489494 166.02224969097654 L 504.41532756489494 148.51915945611867 L 503.2484548825711 147.35228677379482 L 503.2484548825711 146.18541409147096 L 500.91470951792337 143.85166872682325" stroke-width="6" stroke-linecap="round" stroke-linejoin="round"/><path d="M 750.6254635352287 140.35105067985165 L 750.6254635352287 159.02101359703337 L 748.291718170581 161.35475896168109 L 748.291718170581 167.1891223733004 L 745.9579728059333 169.52286773794808 L 730.7886279357232 169.52286773794808 L 727.2880098887516 166.02224969097654 L 727.2880098887516 163.68850432632883 L 721.4536464771323 159.02101359703337 L 721.4536464771323 157.85414091470952 L 720.2867737948085 156.68726823238566 L 720.2867737948085 148.51915945611867 L 719.1199011124846 147.35228677379482" stroke-width="6" stroke-linecap="round" stroke-linejoin="round"/><path d="M 869.6464771322621 140.35105067985165 L 869.6464771322621 135.68355995055623 L 870.813349814586 134.51668726823237 L 870.813349814586 101.84425216316441 L 869.6464771322621 100.67737948084054 L 862.645241038319 100.67737948084054 L 861.4783683559951 101.84425216316441 L 857.9777503090235 103.01112484548827" stroke-width="6" stroke-linecap="round" stroke-linejoin="round"/><path d="M 630.4375772558715 141.5179233621755 L 629.2707045735476 142.6847960444994 L 629.2707045735476 145.0185414091471 L 628.1038318912238 146.18541409147096 L 628.1038318912238 149.68603213844253 L 629.2707045735476 150.85290482076638 L 629.2707045735476 164.85537700865268 L 625.770086526576 168.35599505562422 L 609.4338689740421 168.35599505562422 L 608.2669962917182 167.1891223733004 L 607.1001236093944 167.1891223733004 L 604.7663782447466 164.85537700865268 L 604.7663782447466 152.01977750309024 L 603.5995055624228 150.85290482076638 L 602.4326328800989 150.85290482076638" stroke-width="6" stroke-linecap="round" stroke-linejoin="round"/><path d="M 652.6081582200247 141.5179233621755 L 651.4412855377009 142.6847960444994 L 651.4412855377009 164.85537700865268 L 647.9406674907293 168.35599505562422 L 632.7713226205192 168.35599505562422 L 630.4375772558715 166.02224969097654 L 629.2707045735476 166.02224969097654" stroke-width="6" stroke-linecap="round" stroke-linejoin="round"/><path d="M 278.04202719406675 142.6847960444994 L 275.70828182941904 145.0185414091471 L 275.70828182941904 147.35228677379482 L 274.5414091470952 148.51915945611867 L 274.5414091470952 154.35352286773795 L 275.70828182941904 155.5203955500618 L 275.70828182941904 156.68726823238566 L 278.04202719406675 159.02101359703337 L 278.04202719406675 182.35846724351052 L 276.8751545117429 183.52533992583437 L 276.8751545117429 184.69221260815823 L 274.5414091470952 187.02595797280594 L 269.87391841779976 187.02595797280594 L 266.3733003708282 183.52533992583437 L 266.3733003708282 163.68850432632883 L 265.20642768850433 162.52163164400497 L 265.20642768850433 154.35352286773795 L 264.0395550061805 153.1866501854141 L 264.0395550061805 148.51915945611867 L 262.8726823238566 147.35228677379482 L 262.8726823238566 145.0185414091471" stroke-width="6" stroke-linecap="round" stroke-linejoin="round"/><path d="M 443.7379480840544 142.6847960444994 L 443.7379480840544 143.85166872682325 L 444.90482076637824 145.0185414091471 L 444.90482076637824 171.85661310259582 L 443.7379480840544 173.02348578491967 L 443.7379480840544 174.19035846724353 L 441.40420271940667 176.52410383189124 L 429.7354758961681 176.52410383189124 L 427.4017305315204 174.19035846724353 L 427.4017305315204 148.51915945611867" stroke-width="6" stroke-linecap="round" stroke-linejoin="round"/><path d="M 482.2447466007417 143.85166872682325 L 482.2447466007417 145.0185414091471 L 483.41161928306553 146.18541409147096 L 483.41161928306553 148.51915945611867 L 484.5784919653894 149.68603213844253 L 484.5784919653894 168.35599505562422 L 479.91100123609397 173.02348578491967 L 475.24351050679854 173.02348578491967 L 474.0766378244747 174.19035846724353 L 472.90976514215083 174.19035846724353 L 469.40914709517926 170.68974042027196 L 469.40914709517926 150.85290482076638 L 468.2422744128554 149.68603213844253 L 468.2422744128554 148.51915945611867 L 467.07540173053155 147.35228677379482 L 465.9085290482077 147.35228677379482" stroke-width="6" stroke-linecap="round" stroke-linejoin="round"/><path d="M 687.6143386897404 146.18541409147096 L 689.9480840543881 149.68603213844253 L 689.9480840543881 157.85414091470952 L 691.114956736712 159.02101359703337 L 691.114956736712 164.85537700865268 L 687.6143386897404 168.35599505562422 L 674.778739184178 168.35599505562422 L 673.6118665018541 167.1891223733004 L 673.6118665018541 166.02224969097654 L 671.2781211372064 163.68850432632883 L 671.2781211372064 152.01977750309024" stroke-width="6" stroke-linecap="round" stroke-linejoin="round"/><path d="M 703.9505562422744 146.18541409147096 L 703.9505562422744 147.35228677379482 L 702.7836835599505 148.51915945611867 L 702.7836835599505 164.85537700865268 L 699.283065512979 168.35599505562422 L 698.1161928306551 168.35599505562422 L 695.7824474660074 170.68974042027196 L 695.7824474660074 174.19035846724353" stroke-width="6" stroke-linecap="round" stroke-linejoin="round"/><path d="M 324.71693448702104 148.51915945611867 L 324.71693448702104 149.68603213844253 L 323.5500618046972 150.85290482076638 L 323.5500618046972 177.6909765142151 L 318.88257107540176 182.35846724351052 L 307.2138442521632 182.35846724351052 L 306.04697156983934 183.52533992583437 L 295.54511742892464 183.52533992583437 L 294.3782447466008 184.69221260815823 L 287.37700865265765 184.69221260815823 L 286.2101359703338 185.85908529048208 L 281.5426452410383 185.85908529048208 L 279.2088998763906 183.52533992583437 L 278.04202719406675 183.52533992583437" stroke-width="6" stroke-linecap="round" stroke-linejoin="round"/><path d="M 545.25587144623 148.51915945611867 L 545.25587144623 149.68603213844253 L 548.7564894932016 155.5203955500618 L 548.7564894932016 157.85414091470952 L 549.9233621755254 159.02101359703337 L 549.9233621755254 164.85537700865268 L 547.5896168108777 167.1891223733004 L 541.7552533992584 167.1891223733004 L 540.5883807169346 168.35599505562422 L 537.087762669963 168.35599505562422 L 535.9208899876392 167.1891223733004 L 535.9208899876392 166.02224969097654 L 533.5871446229914 163.68850432632883 L 533.5871446229914 161.35475896168109 L 532.4202719406676 160.18788627935723 L 532.4202719406676 156.68726823238566 L 531.2533992583437 155.5203955500618 L 531.2533992583437 153.1866501854141" stroke-width="6" stroke-linecap="round" stroke-linejoin="round"/><path d="M 353.88875154511743 150.85290482076638 L 353.88875154511743 152.01977750309024 L 355.0556242274413 153.1866501854141 L 355.0556242274413 177.6909765142151 L 351.5550061804697 181.19159456118666 L 341.053152039555 181.19159456118666 L 339.88627935723116 180.0247218788628 L 339.88627935723116 164.85537700865268" stroke-width="6" stroke-linecap="round" stroke-linejoin="round"/><path d="M 304.8800988875155 153.1866501854141 L 304.8800988875155 182.35846724351052" stroke-width="6" stroke-linecap="round" stroke-linejoin="round"/><path d="M 731.955500618047 153.1866501854141 L 731.955500618047 159.02101359703337 L 728.4548825710755 162.52163164400497 L 727.2880098887516 162.52163164400497" stroke-width="6" stroke-linecap="round" stroke-linejoin="round"/><path d="M 582.5957972805934 154.35352286773795 L 581.4289245982695 155.5203955500618 L 581.4289245982695 163.68850432632883 L 576.7614338689741 168.35599505562422 L 562.7589616810878 168.35599505562422 L 559.2583436341162 164.85537700865268 L 559.2583436341162 162.52163164400497" stroke-width="6" stroke-linecap="round" stroke-linejoin="round"/><path d="M 797.300370828183 162.52163164400497 L 799.6341161928307 160.18788627935723 L 799.6341161928307 154.35352286773795 L 797.300370828183 152.01977750309024 L 797.300370828183 150.85290482076638 L 796.1334981458591 149.68603213844253 L 793.7997527812114 149.68603213844253 L 796.1334981458591 152.01977750309024" stroke-width="6" stroke-linecap="round" stroke-linejoin="round"/><path d="M 412.2323856613103 164.85537700865268 L 413.39925834363413 164.85537700865268 L 416.8998763906057 168.35599505562422 L 416.8998763906057 174.19035846724353 L 412.2323856613103 178.85784919653895 L 409.89864029666256 178.85784919653895 L 405.23114956736714 183.52533992583437 L 405.23114956736714 184.69221260815823 L 406.398022249691 185.85908529048208 L 406.398022249691 203.36217552533992 L 405.23114956736714 204.52904820766378 L 405.23114956736714 206.8627935723115 L 401.7305315203956 209.19653893695923" stroke-width="6" stroke-linecap="round" stroke-linejoin="round"/><path d="M 776.2966625463536 164.85537700865268 L 776.2966625463536 162.52163164400497" stroke-width="6" stroke-linecap="round" stroke-linejoin="round"/><path d="M 538.2546353522869 171.85661310259582 L 538.2546353522869 169.52286773794808" stroke-width="6" stroke-linecap="round" stroke-linejoin="round"/><path d="M 828.8059332509271 173.02348578491967 L 827.6390605686032 174.19035846724353 L 824.1384425216316 175.35723114956738 L 820.6378244746601 171.85661310259582 L 819.4709517923362 171.85661310259582 L 812.4697156983931 164.85537700865268 L 811.3028430160692 164.85537700865268 L 806.6353522867738 160.18788627935723 L 800.8009888751545 160.18788627935723" stroke-width="6" stroke-linecap="round" stroke-linejoin="round"/><path d="M 847.4758961681088 233.7008652657602 L 903.485784919654 233.7008652657602" stroke-width="6" stroke-linecap="round" stroke-linejoin="round"/><path d="M -53.34981458590853 78.50679851668727 L -52.18294190358468 78.50679851668727 L -49.849196538936965 80.84054388133498 L -44.01483312731767 80.84054388133498 L -40.514215080346105 78.50679851668727 L -33.51297898640297 78.50679851668727" stroke-width="6" stroke-linecap="round" stroke-linejoin="round"/><path d="M -95.35723114956738 79.67367119901112 L -93.02348578491967 82.00741656365884 L -86.02224969097652 82.00741656365884 L -83.68850432632881 79.67367119901112" stroke-width="6" stroke-linecap="round" stroke-linejoin="round"/><path d="M -5.5080346106304106 82.00741656365884 L -4.341161928306555 82.00741656365884 L -2.007416563658836 85.5080346106304 L 2.660074165636587 85.5080346106304 L 3.8269468479604427 86.67490729295426 L 15.495673671199011 86.67490729295426 L 17.829419035846723 84.34116192830655 L 18.996291718170582 84.34116192830655" stroke-width="6" stroke-linecap="round" stroke-linejoin="round"/><path d="M 871.9802224969098 99.51050679851669 L 878.981458590853 99.51050679851669 L 880.1483312731768 100.67737948084054 L 890.6501854140915 100.67737948084054 L 891.8170580964154 101.84425216316441 L 901.1520395550062 101.84425216316441 L 902.3189122373301 103.01112484548827 L 912.8207663782448 103.01112484548827 L 913.9876390605687 104.17799752781211 L 915.1545117428925 104.17799752781211 L 916.3213844252164 105.34487021013598 L 916.3213844252164 110.0123609394314 L 917.4882571075402 111.17923362175526 L 917.4882571075402 120.5142150803461 L 918.6551297898641 121.68108776266996 L 918.6551297898641 131.0160692212608 L 919.8220024721879 132.18294190358466" stroke-width="6" stroke-linecap="round" stroke-linejoin="round"/><path d="M 923.3226205191595 131.0160692212608 L 924.4894932014834 132.18294190358466 L 924.4894932014834 142.6847960444994 L 923.3226205191595 143.85166872682325" stroke-width="6" stroke-linecap="round" stroke-linejoin="round"/><path d="M 920.9888751545118 145.0185414091471 L 920.9888751545118 154.35352286773795 L 922.1557478368356 155.5203955500618" stroke-width="6" stroke-linecap="round" stroke-linejoin="round"/><path d="M 175.35723114956738 152.01977750309024 L 178.85784919653895 152.01977750309024 L 180.0247218788628 153.1866501854141 L 184.69221260815823 153.1866501854141 L 185.85908529048208 152.01977750309024 L 187.02595797280594 152.01977750309024" stroke-width="6" stroke-linecap="round" stroke-linejoin="round"/><path d="M 798.4672435105068 152.01977750309024 L 801.9678615574784 154.35352286773795 L 800.8009888751545 155.5203955500618" stroke-width="6" stroke-linecap="round" stroke-linejoin="round"/><path d="M 201.0284301606922 155.5203955500618 L 203.36217552533992 159.02101359703337 L 204.52904820766378 159.02101359703337 L 205.69592088998763 160.18788627935723 L 209.19653893695923 160.18788627935723 L 210.36341161928308 161.35475896168109 L 212.6971569839308 161.35475896168109 L 216.19777503090236 159.02101359703337" stroke-width="6" stroke-linecap="round" stroke-linejoin="round"/><path d="M 750.6254635352287 160.18788627935723 L 751.7923362175526 160.18788627935723 L 752.9592088998764 161.35475896168109 L 752.9592088998764 168.35599505562422 L 754.1260815822003 169.52286773794808 L 761.1273176761434 169.52286773794808 L 764.627935723115 166.02224969097654 L 764.627935723115 163.68850432632883 L 765.7948084054389 162.52163164400497 L 766.9616810877627 162.52163164400497" stroke-width="6" stroke-linecap="round" stroke-linejoin="round"/><path d="M 238.36835599505562 162.52163164400497 L 239.53522867737948 162.52163164400497 L 240.70210135970333 163.68850432632883 L 240.70210135970333 185.85908529048208 L 241.8689740420272 187.02595797280594 L 262.8726823238566 187.02595797280594 L 265.20642768850433 184.69221260815823 L 266.3733003708282 184.69221260815823" stroke-width="6" stroke-linecap="round" stroke-linejoin="round"/><path d="M 581.4289245982695 164.85537700865268 L 584.9295426452411 168.35599505562422 L 601.2657601977751 168.35599505562422 L 603.5995055624228 166.02224969097654 L 604.7663782447466 166.02224969097654" stroke-width="6" stroke-linecap="round" stroke-linejoin="round"/><path d="M 517.2509270704574 166.02224969097654 L 518.4177997527812 166.02224969097654 L 519.5846724351051 167.1891223733004 L 530.0865265760199 167.1891223733004 L 531.2533992583437 166.02224969097654" stroke-width="6" stroke-linecap="round" stroke-linejoin="round"/><path d="M 549.9233621755254 166.02224969097654 L 551.0902348578493 166.02224969097654 L 552.257107540173 167.1891223733004 L 555.7577255871446 167.1891223733004 L 556.9245982694684 166.02224969097654 L 558.0914709517923 166.02224969097654" stroke-width="6" stroke-linecap="round" stroke-linejoin="round"/><path d="M 651.4412855377009 166.02224969097654 L 652.6081582200247 166.02224969097654 L 654.9419035846724 168.35599505562422 L 666.610630407911 168.35599505562422 L 668.9443757725587 166.02224969097654" stroke-width="6" stroke-linecap="round" stroke-linejoin="round"/><path d="M 691.114956736712 166.02224969097654 L 694.6155747836835 169.52286773794808 L 695.7824474660074 169.52286773794808" stroke-width="6" stroke-linecap="round" stroke-linejoin="round"/><path d="M 702.7836835599505 166.02224969097654 L 703.9505562422744 166.02224969097654 L 706.2843016069221 169.52286773794808 L 722.6205191594562 169.52286773794808 L 726.1211372064278 166.02224969097654" stroke-width="6" stroke-linecap="round" stroke-linejoin="round"/><path d="M 502.0815822002472 168.35599505562422 L 499.7478368355995 170.68974042027196 L 492.7466007416564 170.68974042027196 L 491.5797280593325 171.85661310259582 L 488.07911001236096 171.85661310259582 L 485.74536464771325 169.52286773794808 L 484.5784919653894 169.52286773794808" stroke-width="6" stroke-linecap="round" stroke-linejoin="round"/><path d="M 444.90482076637824 173.02348578491967 L 446.0716934487021 173.02348578491967 L 448.4054388133498 175.35723114956738 L 464.74165636588384 175.35723114956738 L 467.07540173053155 173.02348578491967" stroke-width="6" stroke-linecap="round" stroke-linejoin="round"/><path d="M 416.8998763906057 175.35723114956738 L 418.06674907292955 175.35723114956738 L 420.40049443757727 177.6909765142151 L 423.90111248454883 177.6909765142151 L 426.23485784919654 175.35723114956738 L 427.4017305315204 175.35723114956738" stroke-width="6" stroke-linecap="round" stroke-linejoin="round"/><path d="M 393.5624227441286 176.52410383189124 L 394.72929542645244 176.52410383189124 L 397.06304079110015 180.0247218788628 L 404.0642768850433 180.0247218788628 L 405.23114956736714 181.19159456118666 L 406.398022249691 181.19159456118666" stroke-width="6" stroke-linecap="round" stroke-linejoin="round"/><path d="M 323.5500618046972 178.85784919653895 L 324.71693448702104 178.85784919653895 L 327.05067985166875 181.19159456118666 L 339.88627935723116 181.19159456118666" stroke-width="6" stroke-linecap="round" stroke-linejoin="round"/><path d="M 355.0556242274413 178.85784919653895 L 356.22249690976514 178.85784919653895 L 358.55624227441285 181.19159456118666 L 380.72682323856617 181.19159456118666 L 381.89369592089 180.0247218788628" stroke-width="6" stroke-linecap="round" stroke-linejoin="round"/></g><g stroke="#607d8b" fill="none" opacity="0.25"/><g stroke="#607d8b" fill="none" opacity="0.25"/><g stroke="#e74c3c" fill="none"><path d="M 497.4140914709518 57.50309023485785 L 492.7466007416564 42.33374536464771 L 470.5760197775031 40 L 461.2410383189123 47.00123609394314 L 458.90729295426456 54.00247218788628 L 461.2410383189123 69.17181705809642 L 465.9085290482077 72.67243510506799" stroke-width="6" stroke-linecap="round" stroke-linejoin="round"/><path d="M 604.7663782447466 69.17181705809642 L 603.5995055624228 43.50061804697157 L 581.4289245982695 41.166872682323856 L 577.928306551298 44.66749072929542 L 577.928306551298 70.33868974042028 L 581.4289245982695 72.67243510506799" stroke-width="6" stroke-linecap="round" stroke-linejoin="round"/><path d="M 834.6402966625463 91.3423980222497 L 819.4709517923362 96.00988875154512 L 813.636588380717 90.17552533992583 L 811.3028430160692 42.33374536464771" stroke-width="6" stroke-linecap="round" stroke-linejoin="round"/><path d="M 857.9777503090235 94.84301606922126 L 980.4993819530284 106.51174289245984 L 984 111.17923362175526 L 981.6662546353523 139.1841779975278" stroke-width="6" stroke-linecap="round" stroke-linejoin="round"/><g><circle cx="857.9777503090235" cy="94.84301606922126" r="4.800000000000001" fill="#1e1f22" stroke="#e74c3c" stroke-width="3"/><text x="867.9777503090235" y="84.84301606922126" font-size="12" fill="#e0e0e0">S1</text></g><g><circle cx="866.2043367952255" cy="95.6265004964786" r="4.800000000000001" fill="#1e1f22" stroke="#e74c3c" stroke-width="3"/><text x="876.2043367952255" y="85.6265004964786" font-size="12" fill="#e0e0e0">S2</text></g><g><circle cx="874.4309232814275" cy="96.40998492373593" r="4.800000000000001" fill="#1e1f22" stroke="#e74c3c" stroke-width="3"/><text x="884.4309232814275" y="86.40998492373593" font-size="12" fill="#e0e0e0">S3</text></g><g><circle cx="882.6575097676294" cy="97.19346935099325" r="4.800000000000001" fill="#1e1f22" stroke="#e74c3c" stroke-width="3"/><text x="892.6575097676294" y="87.19346935099325" font-size="12" fill="#e0e0e0">S4</text></g><g><circle cx="890.8840962538314" cy="97.97695377825059" r="4.800000000000001" fill="#1e1f22" stroke="#e74c3c" stroke-width="3"/><text x="900.8840962538314" y="87.97695377825059" font-size="12" fill="#e0e0e0">S5</text></g><g><circle cx="899.1106827400333" cy="98.76043820550792" r="4.800000000000001" fill="#1e1f22" stroke="#e74c3c" stroke-width="3"/><text x="909.1106827400333" y="88.76043820550792" font-size="12" fill="#e0e0e0">S6</text></g><g><circle cx="907.3372692262353" cy="99.54392263276526" r="4.800000000000001" fill="#1e1f22" stroke="#e74c3c" stroke-width="3"/><text x="917.3372692262353" y="89.54392263276526" font-size="12" fill="#e0e0e0">S7</text></g><g><circle cx="915.5638557124373" cy="100.3274070600226" r="4.800000000000001" fill="#1e1f22" stroke="#e74c3c" stroke-width="3"/><text x="925.5638557124373" y="90.3274070600226" font-size="12" fill="#e0e0e0">S8</text></g><g><circle cx="923.7904421986393" cy="101.11089148727991" r="4.800000000000001" fill="#1e1f22" stroke="#e74c3c" stroke-width="3"/><text x="933.7904421986393" y="91.11089148727991" font-size="12" fill="#e0e0e0">S9</text></g><g><circle cx="932.0170286848413" cy="101.89437591453725" r="4.800000000000001" fill="#1e1f22" stroke="#e74c3c" stroke-width="3"/><text x="942.0170286848413" y="91.89437591453725" font-size="12" fill="#e0e0e0">S10</text></g><g><circle cx="940.2436151710433" cy="102.67786034179458" r="4.800000000000001" fill="#1e1f22" stroke="#e74c3c" stroke-width="3"/><text x="950.2436151710433" y="92.67786034179458" font-size="12" fill="#e0e0e0">S11</text></g><g><circle cx="948.4702016572453" cy="103.46134476905192" r="4.800000000000001" fill="#1e1f22" stroke="#e74c3c" stroke-width="3"/><text x="958.4702016572453" y="93.46134476905192" font-size="12" fill="#e0e0e0">S12</text></g><g><circle cx="956.6967881434473" cy="104.24482919630925" r="4.800000000000001" fill="#1e1f22" stroke="#e74c3c" stroke-width="3"/><text x="966.6967881434473" y="94.24482919630925" font-size="12" fill="#e0e0e0">S13</text></g><g><circle cx="964.9233746296493" cy="105.02831362356659" r="4.800000000000001" fill="#1e1f22" stroke="#e74c3c" stroke-width="3"/><text x="974.9233746296493" y="95.02831362356659" font-size="12" fill="#e0e0e0">S14</text></g><g><circle cx="973.1499611158513" cy="105.81179805082391" r="4.800000000000001" fill="#1e1f22" stroke="#e74c3c" stroke-width="3"/><text x="983.1499611158513" y="95.81179805082391" font-size="12" fill="#e0e0e0">S15</text></g><g><circle cx="981.0280627998067" cy="107.21665068816417" r="4.800000000000001" fill="#1e1f22" stroke="#e74c3c" stroke-width="3"/><text x="991.0280627998067" y="97.21665068816417" font-size="12" fill="#e0e0e0">S16</text></g><g><circle cx="983.7250710974446" cy="114.47838045241984" r="4.800000000000001" fill="#1e1f22" stroke="#e74c3c" stroke-width="3"/><text x="993.7250710974446" y="104.47838045241984" font-size="12" fill="#e0e0e0">S17</text></g><g><circle cx="983.0387989434139" cy="122.71364630078916" r="4.800000000000001" fill="#1e1f22" stroke="#e74c3c" stroke-width="3"/><text x="993.0387989434139" y="112.71364630078916" font-size="12" fill="#e0e0e0">S18</text></g><g><circle cx="982.3525267893831" cy="130.94891214915845" r="4.800000000000001" fill="#1e1f22" stroke="#e74c3c" stroke-width="3"/><text x="992.3525267893831" y="120.94891214915845" font-size="12" fill="#e0e0e0">S19</text></g><g><circle cx="981.6662546353523" cy="139.1841779975278" r="4.800000000000001" fill="#1e1f22" stroke="#e74c3c" stroke-width="3"/><text x="991.6662546353523" y="129.1841779975278" font-size="12" fill="#e0e0e0">S20</text></g></g><g stroke="#2ecc71" fill="none"><path d="M 65.67119901112486 72.67243510506799 L 68.00494437577257 90.17552533992583 L 63.33745364647713 106.51174289245984 L 43.50061804697157 100.67737948084054 L 40 89.00865265760197" stroke-width="6" stroke-linecap="round" stroke-linejoin="round"/><path d="M 838.1409147095179 89.00865265760197 L 828.8059332509271 101.84425216316441 L 821.8046971569839 104.17799752781211 L 820.6378244746601 115.84672435105068 L 813.636588380717 125.18170580964154 L 797.300370828183 134.51668726823237 L 792.6328800988875 149.68603213844253 L 786.7985166872683 148.51915945611867 L 775.1297898640297 162.52163164400497 L 768.1285537700866 162.52163164400497 L 768.1285537700866 148.51915945611867" stroke-width="6" stroke-linecap="round" stroke-linejoin="round"/><path d="M 948.9938195302843 114.67985166872683 L 943.159456118665 106.51174289245984 L 922.1557478368356 106.51174289245984 L 923.3226205191595 129.84919653893695 L 919.8220024721879 133.34981458590852 L 919.8220024721879 142.6847960444994 L 925.6563658838072 147.35228677379482 L 923.3226205191595 161.35475896168109" stroke-width="6" stroke-linecap="round" stroke-linejoin="round"/><path d="M 398.229913473424 139.1841779975278 L 393.5624227441286 175.35723114956738 L 388.89493201483316 180.0247218788628 L 381.89369592089 178.85784919653895 L 381.89369592089 143.85166872682325" stroke-width="6" stroke-linecap="round" stroke-linejoin="round"/><path d="M 750.6254635352287 140.35105067985165 L 750.6254635352287 159.02101359703337 L 745.9579728059333 169.52286773794808 L 730.7886279357232 169.52286773794808 L 721.4536464771323 159.02101359703337 L 719.1199011124846 147.35228677379482" stroke-width="6" stroke-linecap="round" stroke-linejoin="round"/><path d="M 278.04202719406675 142.6847960444994 L 274.5414091470952 148.51915945611867 L 278.04202719406675 159.02101359703337 L 278.04202719406675 182.35846724351052 L 274.5414091470952 187.02595797280594 L 266.3733003708282 183.52533992583437 L 262.8726823238566 145.0185414091471" stroke-width="6" stroke-linecap="round" stroke-linejoin="round"/><path d="M 443.7379480840544 142.6847960444994 L 444.90482076637824 171.85661310259582 L 441.40420271940667 176.52410383189124 L 427.4017305315204 174.19035846724353 L 427.4017305315204 148.51915945611867" stroke-width="6" stroke-linecap="round" stroke-linejoin="round"/><path d="M 324.71693448702104 148.51915945611867 L 323.5500618046972 177.6909765142151 L 318.88257107540176 182.35846724351052 L 286.2101359703338 185.85908529048208 L 278.04202719406675 183.52533992583437" stroke-width="6" stroke-linecap="round" stroke-linejoin="round"/><path d="M 871.9802224969098 99.51050679851669 L 915.1545117428925 104.17799752781211 L 919.8220024721879 132.18294190358466" stroke-width="6" stroke-linecap="round" stroke-linejoin="round"/><g><circle cx="836.8547189488058" cy="90.777171828581" r="4.800000000000001" fill="#1e1f22" stroke="#2ecc71" stroke-width="3"/><text x="846.8547189488058" y="80.777171828581" font-size="12" fill="#e0e0e0">S1</text></g><g><circle cx="792.8766287768073" cy="148.89384893520355" r="4.800000000000001" fill="#1e1f22" stroke="#2ecc71" stroke-width="3"/><text x="802.8766287768073" y="138.89384893520355" font-size="12" fill="#e0e0e0">S2</text></g><g><circle cx="792.2561741486339" cy="149.6106909483918" r="4.800000000000001" fill="#1e1f22" stroke="#2ecc71" stroke-width="3"/><text x="802.2561741486339" y="139.6106909483918" font-size="12" fill="#e0e0e0">S3</text></g><g><circle cx="775.3577875530129" cy="162.24803441722509" r="4.800000000000001" fill="#1e1f22" stroke="#2ecc71" stroke-width="3"/><text x="785.3577875530129" y="152.24803441722509" font-size="12" fill="#e0e0e0">S4</text></g><g><circle cx="774.7127939694591" cy="162.52163164400497" r="4.800000000000001" fill="#1e1f22" stroke="#2ecc71" stroke-width="3"/><text x="784.7127939694591" y="152.52163164400497" font-size="12" fill="#e0e0e0">S5</text></g><g><circle cx="768.1285537700866" cy="161.77242453308963" r="4.800000000000001" fill="#1e1f22" stroke="#2ecc71" stroke-width="3"/><text x="778.1285537700866" y="151.77242453308963" font-size="12" fill="#e0e0e0">S6</text></g></g><g stroke="#40c4ff" fill="none"/><g stroke="#ffd740" fill="none"/></svg>